<?xml version="1.0" standalone="no"?>
<!DOCTYPE svg PUBLIC "-//W3C//DTD SVG 1.1//EN" "http://www.w3.org/Graphics/SVG/1.1/DTD/svg11.dtd" >
<svg xmlns="http://www.w3.org/2000/svg" xmlns:xlink="http://www.w3.org/1999/xlink" version="1.1">
<metadata></metadata>
<defs>
<font id="beausite_classicregular" horiz-adv-x="1603" >
<font-face units-per-em="2048" ascent="1638" descent="-410" />
<missing-glyph horiz-adv-x="522" />
<glyph unicode="&#xfb01;" horiz-adv-x="1200" d="M27 905v156h194v125q0 161 77 227t226 66q50 0 144 -4v-158q-66 4 -115 4q-72 0 -107.5 -30t-35.5 -113v-117h258v-156h-258v-905h-189v905h-194zM856 1255v220h197v-220h-197zM858 0v1061h193v-1061h-193z" />
<glyph unicode="&#xfb02;" horiz-adv-x="1200" d="M27 905v156h194v125q0 161 77 227t226 66q50 0 144 -4v-158q-66 4 -115 4q-72 0 -107.5 -30t-35.5 -113v-117h258v-156h-258v-905h-189v905h-194zM858 0v1475h193v-1475h-193z" />
<glyph unicode="&#xfb03;" horiz-adv-x="1837" d="M27 905v156h194v125q0 161 77 227t226 66q50 0 144 -4v-158q-66 4 -115 4q-72 0 -107.5 -30t-35.5 -113v-117h446v125q0 161 77 227t226 66q50 0 144 -4v-158q-66 4 -115 4q-72 0 -108 -30.5t-36 -112.5v-117h259v-156h-259v-905h-188v905h-446v-905h-189v905h-194z M1491 1255v220h197v-220h-197zM1493 0v1061h193v-1061h-193z" />
<glyph unicode="&#xfb04;" horiz-adv-x="1837" d="M27 905v156h194v125q0 161 77 227t226 66q50 0 144 -4v-158q-66 4 -115 4q-72 0 -107.5 -30t-35.5 -113v-117h446v125q0 161 77 227t226 66q50 0 144 -4v-158q-66 4 -115 4q-72 0 -108 -30.5t-36 -112.5v-117h259v-156h-259v-905h-188v905h-446v-905h-189v905h-194z M1493 0v1475h193v-1475h-193z" />
<glyph horiz-adv-x="1024" />
<glyph horiz-adv-x="1024" />
<glyph horiz-adv-x="682" />
<glyph unicode="&#xd;" horiz-adv-x="1024" />
<glyph unicode=" "  horiz-adv-x="522" />
<glyph unicode="&#x09;" horiz-adv-x="522" />
<glyph unicode="&#xa0;" horiz-adv-x="522" />
<glyph unicode="!" horiz-adv-x="563" d="M170 0v248h223v-248h-223zM178 969v465h205v-465l-45 -539h-115z" />
<glyph unicode="&#x22;" horiz-adv-x="759" d="M94 1434h209l-35 -502h-139zM455 1434h209l-35 -502h-140z" />
<glyph unicode="#" horiz-adv-x="1331" d="M78 385l33 162h200l66 319h-201l33 162h201l73 365h168l-73 -365h307l73 365h168l-73 -365h200l-32 -162h-201l-66 -319h201l-33 -162h-200l-78 -385h-168l78 385h-308l-77 -385h-168l78 385h-201zM479 547h307l66 319h-307z" />
<glyph unicode="$" horiz-adv-x="1280" d="M92 424h184q17 -119 96.5 -189t202.5 -85v473l-55 12q-189 41 -287 129t-98 233q0 170 124 280t316 128v168h140v-170q186 -19 300.5 -122.5t131.5 -279.5h-186q-14 92 -78 152.5t-168 77.5v-447l28 -6q205 -46 318 -138t113 -245q0 -95 -37 -172t-101.5 -127t-145.5 -79 t-175 -37v-164h-140v161q-206 16 -336 130t-147 317zM326 1014q0 -83 57 -125.5t192 -71.5v416q-108 -14 -178.5 -73.5t-70.5 -145.5zM715 150q120 14 193 72.5t73 152.5q0 83 -67 132.5t-199 82.5v-440z" />
<glyph unicode="%" horiz-adv-x="1822" d="M109 1102q0 108 49 190.5t125.5 123t167.5 40.5q142 0 242 -95.5t100 -258.5t-100.5 -260t-241.5 -97q-142 0 -242 96t-100 261zM279 1102q0 -97 45.5 -157t126.5 -60t126.5 60t45.5 157q0 95 -45.5 155t-126.5 60t-126.5 -60t-45.5 -155zM313 0l1006 1434h197 l-1006 -1434h-197zM1030 334q0 108 49 190.5t125.5 123t167.5 40.5q142 0 242 -95.5t100 -258.5t-100.5 -260t-241.5 -97q-142 0 -242 96t-100 261zM1200 334q0 -97 45.5 -157t126.5 -60t126.5 60t45.5 157q0 95 -45.5 155t-126.5 60t-126.5 -60t-45.5 -155z" />
<glyph unicode="&#x26;" horiz-adv-x="1392" d="M80 383q0 261 291 408q-70 81 -105 154.5t-35 162.5q0 153 112 253.5t275 100.5q164 0 271.5 -94.5t107.5 -253.5q0 -128 -79 -215.5t-244 -157.5l301 -323q78 141 96 334h197q-19 -286 -160 -478l254 -272v-2h-260l-127 135q-91 -79 -192 -119.5t-230 -40.5 q-135 0 -242 49t-169 142.5t-62 216.5zM279 395q0 -112 83 -180t201 -68q167 0 293 117l-373 402q-204 -94 -204 -271zM414 1108q0 -60 34 -113t109 -131q258 89 258 248q0 82 -56.5 132t-142.5 50q-90 0 -146 -53t-56 -133z" />
<glyph unicode="'" horiz-adv-x="397" d="M94 1434h209l-35 -502h-139z" />
<glyph unicode="(" horiz-adv-x="667" d="M123 655q0 142 30.5 276.5t83 242.5t108 190.5t120.5 151.5h176q-137 -177 -225 -397.5t-88 -463.5q0 -236 88.5 -461.5t224.5 -398.5h-176q-64 69 -120 151.5t-108.5 190.5t-83 242t-30.5 276z" />
<glyph unicode=")" horiz-adv-x="667" d="M27 -205q137 177 225 397t88 463q0 236 -89 462t-224 399h176q64 -69 120 -151.5t108.5 -190.5t83 -242.5t30.5 -276.5t-30.5 -276.5t-83 -242.5t-108 -189.5t-120.5 -151.5h-176z" />
<glyph unicode="*" horiz-adv-x="811" d="M63 1137l39 127l236 -76v246h137v-246l232 76l41 -127l-234 -76l145 -201l-110 -78l-143 197l-144 -197l-108 78l145 201z" />
<glyph unicode="+" horiz-adv-x="1202" d="M102 625v163h410v414h178v-414h410v-163h-410v-422h-178v422h-410z" />
<glyph unicode="," horiz-adv-x="505" d="M129 -160q46 16 77.5 51t31.5 80q0 29 -33 29h-64v248h224v-238q0 -241 -236 -301v131z" />
<glyph unicode="-" horiz-adv-x="905" d="M117 502v178h671v-178h-671z" />
<glyph unicode="." horiz-adv-x="505" d="M141 0v248h224v-248h-224z" />
<glyph unicode="/" horiz-adv-x="897" d="M-2 -143l661 1618h197l-661 -1618h-197z" />
<glyph unicode="0" horiz-adv-x="1357" d="M109 725q0 342 153 539.5t416 197.5q261 0 416 -198t155 -539q0 -344 -155 -547t-416 -203q-262 0 -415.5 202t-153.5 548zM317 725q0 -167 39.5 -294t122 -202t199.5 -75q174 0 268 158t94 413q0 254 -94.5 406.5t-267.5 152.5t-267 -152.5t-94 -406.5z" />
<glyph unicode="1" horiz-adv-x="813" d="M63 952v203l406 279h158v-1434h-201v1186z" />
<glyph unicode="2" horiz-adv-x="1185" d="M63 0l17 86q28 153 127 273t313 251q193 115 273.5 200.5t80.5 199.5q0 118 -74.5 196t-201.5 78t-206 -77t-87 -201h-203q10 204 148.5 330t349.5 126q212 0 345.5 -125.5t133.5 -324.5q0 -115 -47 -205.5t-140 -168.5t-257 -173q-145 -86 -220.5 -154t-101.5 -139h766 v-172h-1016z" />
<glyph unicode="3" horiz-adv-x="1208" d="M57 412h203q13 -117 95.5 -192t222.5 -75q145 0 230 70.5t85 185.5q0 125 -89 191.5t-241 66.5q-22 0 -70.5 -1t-74.5 -1v172q82 -4 145 -4q86 0 156 26t114 81.5t44 132.5q0 102 -80.5 165.5t-210.5 63.5t-209 -67.5t-92 -171.5h-201q22 186 157.5 296.5t344.5 110.5 q140 0 251.5 -45t178.5 -135.5t67 -212.5q0 -131 -79.5 -213.5t-204.5 -105.5v-5q134 -18 218.5 -110t84.5 -238q0 -128 -71.5 -225.5t-189.5 -147t-263 -49.5q-217 0 -359 118.5t-162 318.5z" />
<glyph unicode="4" horiz-adv-x="1210" d="M41 367v174l653 893h250v-899h217v-168h-217v-367h-190v367h-713zM246 535h508v694z" />
<glyph unicode="5" horiz-adv-x="1206" d="M86 387h203q14 -102 96.5 -171t204.5 -69q139 0 226 94t87 230q0 135 -89 226t-226 91q-96 0 -170 -42t-109 -99h-172l62 787h852v-172h-697l-30 -400q121 96 297 96q136 0 247.5 -58.5t177.5 -169.5t66 -255q0 -219 -147.5 -359.5t-374.5 -140.5q-200 0 -342 113 t-162 299z" />
<glyph unicode="6" horiz-adv-x="1243" d="M113 631q0 178 27.5 319.5t75.5 236.5t117.5 157.5t150 90t175.5 27.5q190 0 316.5 -94t152.5 -268h-202q-19 93 -88 143.5t-179 50.5q-154 0 -244.5 -138t-99.5 -439q46 91 141.5 149t217.5 58q94 0 179 -31t150.5 -88.5t104.5 -146.5t39 -197q0 -211 -146.5 -348.5 t-367.5 -137.5q-111 0 -203.5 39.5t-164.5 118t-112 206t-40 292.5zM342 455q0 -129 83.5 -219.5t211.5 -90.5q133 0 216 87t83 223q0 138 -87 219.5t-212 81.5q-122 0 -208.5 -83t-86.5 -218z" />
<glyph unicode="7" horiz-adv-x="1067" d="M35 1262v172h999v-162l-30 -39q-231 -286 -351.5 -589t-132.5 -644h-209q22 370 152 679.5t346 582.5h-774z" />
<glyph unicode="8" horiz-adv-x="1243" d="M104 387q0 134 91 232t211 120v4q-109 28 -189 115.5t-80 218.5q0 117 69 206t178 134t237 45q130 0 239 -44t177.5 -133t68.5 -208q0 -129 -78 -216t-188 -118v-4q124 -21 211.5 -117t87.5 -235q0 -184 -146.5 -298t-371.5 -114q-226 0 -371.5 114t-145.5 298zM309 397 q0 -110 87.5 -181t224.5 -71q141 0 227 69.5t86 182.5q0 109 -87.5 182.5t-225.5 73.5q-136 0 -224 -73t-88 -183zM338 1063q0 -105 80.5 -173.5t202.5 -68.5q124 0 204 67.5t80 174.5q0 105 -82 168t-202 63q-119 0 -201 -62.5t-82 -168.5z" />
<glyph unicode="9" horiz-adv-x="1243" d="M96 979q0 211 145.5 347t366.5 136q113 0 205.5 -38.5t164 -116.5t111 -207.5t39.5 -300.5q0 -824 -544 -824q-194 0 -324 94.5t-156 270.5h203q17 -94 91 -144.5t188 -50.5q77 0 136 29.5t105.5 95.5t72 181t28.5 278q-43 -95 -138.5 -155t-220.5 -60q-128 0 -234 53 t-172.5 161t-66.5 251zM305 987q0 -138 87.5 -221.5t213.5 -83.5q122 0 207.5 85t85.5 220q0 127 -83 217t-210 90q-134 0 -217.5 -86.5t-83.5 -220.5z" />
<glyph unicode=":" horiz-adv-x="540" d="M158 0v248h223v-248h-223zM158 813v248h223v-248h-223z" />
<glyph unicode=";" horiz-adv-x="540" d="M145 -160q46 16 77.5 51t31.5 80q0 29 -33 29h-63v248h223v-238q0 -241 -236 -301v131zM158 813v248h223v-248h-223z" />
<glyph unicode="&#x3c;" horiz-adv-x="1007" d="M104 594v182l779 385v-188l-582 -283l582 -282v-199z" />
<glyph unicode="=" horiz-adv-x="1202" d="M123 403v164h956v-164h-956zM123 846v164h956v-164h-956z" />
<glyph unicode="&#x3e;" horiz-adv-x="1007" d="M125 209v188l582 283l-582 283v198l778 -385v-182z" />
<glyph unicode="?" horiz-adv-x="1171" d="M82 1014q17 205 158 326.5t346 121.5q131 0 239 -45t175 -136t67 -212q0 -130 -68.5 -221t-222.5 -166q-98 -49 -129 -94t-31 -123v-35h-174v45q0 89 17 139q21 53 57 94.5t107 84.5q51 32 80.5 51t64 47t51.5 52t29 55.5t12 66.5q0 95 -78 159t-198 64q-130 0 -210 -75 t-89 -199h-203zM418 0v248h223v-248h-223z" />
<glyph unicode="@" horiz-adv-x="1810" d="M96 518q0 176 70 332t185 262.5t263.5 168.5t303.5 62q217 0 400 -96.5t289.5 -266.5t106.5 -376q0 -102 -26.5 -188t-68.5 -142t-96.5 -95t-108.5 -56t-105 -17q-79 0 -137.5 34t-81.5 93q-97 -129 -265 -129q-64 0 -124 23.5t-110 68.5t-80 119t-30 166q0 103 34 191.5 t90 147t128 91.5t148 33q84 0 151.5 -31t106.5 -90l14 101h174l-80 -551q-19 -133 84 -133q28 0 58.5 10t65.5 36t62.5 64.5t45.5 103.5t18 146q0 170 -88.5 312.5t-241 224.5t-333.5 82q-129 0 -253.5 -52t-221 -141.5t-155.5 -222.5t-59 -283q0 -129 39.5 -241.5t106 -192 t153.5 -136.5t182.5 -84.5t192.5 -27.5q108 0 219.5 36t177.5 93l78 -98q-83 -69 -210 -112.5t-265 -43.5q-122 0 -239.5 34t-220 102.5t-180 163.5t-122.5 225.5t-45 279.5zM674 492q0 -102 52.5 -164t141.5 -62q88 0 150.5 63t77.5 163q8 41 8 83q0 100 -53 158t-140 58 q-104 0 -170.5 -84.5t-66.5 -214.5z" />
<glyph unicode="A" horiz-adv-x="1409" d="M14 0l578 1434h225l578 -1434h-219l-146 375h-663l-146 -375h-207zM436 551h525l-263 674z" />
<glyph unicode="B" horiz-adv-x="1353" d="M168 0v1434h586q229 0 346 -101.5t117 -269.5q0 -120 -62.5 -202t-163.5 -109v-4q114 -27 186 -120t72 -229q0 -189 -132.5 -294t-373.5 -105h-575zM371 170h360q155 0 234 62t79 178t-80 179.5t-233 63.5h-360v-483zM371 823h368q133 0 203 57.5t70 161.5 q0 102 -70.5 162t-202.5 60h-368v-441z" />
<glyph unicode="C" horiz-adv-x="1490" d="M88 725q0 167 56.5 308t152.5 234.5t221 145t262 51.5q245 0 420 -132.5t213 -352.5h-205q-40 139 -155 220t-273 81q-98 0 -185 -39.5t-152 -110.5t-102.5 -176t-37.5 -229q0 -248 138 -406.5t339 -158.5q158 0 271 80t159 221h205q-46 -224 -218 -355t-417 -131 q-140 0 -266 53t-220.5 148.5t-150 237.5t-55.5 311z" />
<glyph unicode="D" horiz-adv-x="1460" d="M168 0v1434h450q355 0 554.5 -179t199.5 -530q0 -343 -203 -534t-553 -191h-448zM373 176h223q278 0 420.5 145t142.5 404q0 257 -141.5 394.5t-421.5 137.5h-223v-1081z" />
<glyph unicode="E" horiz-adv-x="1269" d="M168 0v1434h991v-177h-788v-423h733v-179h-733v-479h803v-176h-1006z" />
<glyph unicode="F" horiz-adv-x="1167" d="M168 0v1434h928v-177h-723v-446h663v-176h-663v-635h-205z" />
<glyph unicode="G" horiz-adv-x="1576" d="M88 725q0 166 56.5 306t154 234t229 146.5t279.5 52.5q154 0 287 -53t224 -156.5t114 -240.5h-203q-39 124 -151 196t-271 72q-223 0 -364.5 -151.5t-141.5 -405.5t139 -408.5t357 -154.5q174 0 305.5 112t144.5 285v6h-436v178h627v-743h-187l-2 219 q-69 -106 -195 -172.5t-280 -66.5q-142 0 -268 54t-218 149.5t-146 236t-54 305.5z" />
<glyph unicode="H" horiz-adv-x="1527" d="M168 0v1434h205v-600h782v600h207v-1434h-207v655h-782v-655h-205z" />
<glyph unicode="I" horiz-adv-x="540" d="M168 0v1434h205v-1434h-205z" />
<glyph unicode="J" horiz-adv-x="1124" d="M41 410h207q14 -115 83.5 -183.5t182.5 -68.5q111 0 180.5 73.5t69.5 198.5v1004h207v-1006q0 -110 -36.5 -198t-100 -143t-145 -83.5t-175.5 -28.5q-193 0 -320 111.5t-153 323.5z" />
<glyph unicode="K" horiz-adv-x="1382" d="M168 0v1434h203v-723l708 723h262l-532 -537l551 -897h-244l-452 750l-293 -295v-455h-203z" />
<glyph unicode="L" horiz-adv-x="1120" d="M168 0v1434h205v-1258h700v-176h-905z" />
<glyph unicode="M" horiz-adv-x="1863" d="M168 0v1434h340l430 -1205l428 1205h330v-1434h-197v1290l-463 -1290h-209l-462 1284v-1284h-197z" />
<glyph unicode="N" horiz-adv-x="1538" d="M168 0v1434h262l739 -1174v1174h201v-1434h-262l-739 1174v-1174h-201z" />
<glyph unicode="O" d="M88 725q0 166 57.5 306.5t155 234.5t227 146t273.5 52q146 0 276 -51.5t227.5 -145t154.5 -234t57 -308.5q0 -167 -57 -309t-154 -238t-227.5 -149.5t-276.5 -53.5q-147 0 -277 53.5t-227 149t-153 237.5t-56 310zM303 725q0 -250 142 -407.5t356 -157.5q215 0 356 156.5 t141 408.5q0 249 -141 402t-356 153t-356.5 -153t-141.5 -402z" />
<glyph unicode="P" horiz-adv-x="1267" d="M168 0v1434h534q245 0 377.5 -119.5t132.5 -325.5q0 -208 -135 -328t-377 -120h-327v-541h-205zM373 719h315q151 0 232 71.5t81 196.5q0 124 -81.5 197t-231.5 73h-315v-538z" />
<glyph unicode="Q" d="M88 725q0 166 57.5 306.5t155 234.5t227 146t273.5 52q146 0 276 -51.5t227.5 -145t154.5 -234t57 -308.5q0 -170 -59 -312.5t-163 -242.5l156 -172l-137 -125l-168 186q-156 -84 -344 -84q-147 0 -277 53.5t-227 149t-153 237.5t-56 310zM303 725q0 -250 142 -407.5 t356 -157.5q115 0 211 47l-236 258l137 125l246 -271q139 158 139 406q0 249 -141 402t-356 153t-356.5 -153t-141.5 -402z" />
<glyph unicode="R" horiz-adv-x="1361" d="M168 0v1434h610q233 0 354 -116t121 -304q0 -165 -87.5 -269t-225.5 -135v-2q9 -17 25.5 -45t27.5 -47l295 -516h-235l-314 553q-12 22 -21 27.5t-36 5.5h-311v-586h-203zM371 762h389q141 0 214 66.5t73 179.5q0 115 -74 182t-213 67h-389v-495z" />
<glyph unicode="S" horiz-adv-x="1271" d="M70 444h202q18 -144 118.5 -219t254.5 -75q144 0 241 62t97 171q0 95 -79.5 149.5t-233.5 88.5l-154 34q-201 45 -301 139.5t-100 249.5q0 121 70 218t188 149.5t260 52.5q222 0 366 -114t164 -316h-200q-17 118 -105 186t-225 68q-132 0 -225 -64t-93 -163 q0 -89 60.5 -135.5t195.5 -75.5l174 -39q212 -47 327.5 -145t115.5 -263q0 -84 -30 -155t-81.5 -120.5t-121 -84.5t-148 -51.5t-162.5 -16.5q-241 0 -398 120t-177 349z" />
<glyph unicode="T" horiz-adv-x="1282" d="M47 1257v177h1188v-177h-490v-1257h-206v1257h-492z" />
<glyph unicode="U" horiz-adv-x="1445" d="M150 563v871h206v-861q0 -193 101 -303t266 -110q167 0 267 108.5t100 302.5v863h206v-869q0 -276 -158 -433t-417 -157q-258 0 -414.5 155.5t-156.5 432.5z" />
<glyph unicode="V" horiz-adv-x="1331" d="M14 1434h219l439 -1203l438 1203h207l-537 -1434h-229z" />
<glyph unicode="W" horiz-adv-x="1964" d="M27 1434h206l334 -1162l312 1162h219l311 -1162l334 1162h194l-424 -1434h-215l-315 1163l-317 -1163h-215z" />
<glyph unicode="X" horiz-adv-x="1337" d="M6 0l537 719l-514 715h252l393 -555l397 555h240l-512 -695l532 -739h-252l-411 578l-420 -578h-242z" />
<glyph unicode="Y" horiz-adv-x="1241" d="M-8 1434h237l398 -689l397 689h225l-526 -893v-541h-205v541z" />
<glyph unicode="Z" horiz-adv-x="1312" d="M88 0v190l889 1067h-871v177h1108v-191l-888 -1067h905v-176h-1143z" />
<glyph unicode="[" horiz-adv-x="673" d="M168 -242v1774h461v-158h-269v-1456h269v-160h-461z" />
<glyph unicode="\" horiz-adv-x="903" d="M41 1475h203l661 -1618h-203z" />
<glyph unicode="]" horiz-adv-x="673" d="M45 -84h268v1456h-268v160h461v-1774h-461v158z" />
<glyph unicode="^" horiz-adv-x="1003" d="M66 901l360 533h154l360 -533h-199l-241 359l-244 -359h-190z" />
<glyph unicode="_" horiz-adv-x="876" d="M16 -147h844v-123h-844v123z" />
<glyph unicode="`" horiz-adv-x="415" d="M27 1475h206l119 -263h-180z" />
<glyph unicode="a" horiz-adv-x="1138" d="M88 297q0 68 24.5 121t65 89t106.5 64t136 45.5t166 32.5l225 37v21q0 223 -240 223q-106 0 -174.5 -51t-87.5 -146h-188q21 161 148.5 256.5t308.5 95.5q95 0 169.5 -20.5t132.5 -64.5t89 -120q30 -74 30 -174v-6l-4 -479q0 -33 11 -221h-181l-2 160 q-109 -183 -352 -183q-101 0 -186 34t-141 108.5t-56 177.5zM279 305q0 -81 63.5 -125.5t163.5 -44.5q133 0 219 81.5t86 227.5v88q-101 -13 -170 -23.5t-133.5 -24.5t-103.5 -30t-69.5 -37.5t-43 -49t-12.5 -62.5z" />
<glyph unicode="b" horiz-adv-x="1265" d="M152 0v1475h192v-572q45 81 136 131.5t214 50.5q101 0 189.5 -36t156 -103.5t106 -172.5t38.5 -234q0 -131 -39.5 -239t-107.5 -177.5t-157.5 -107.5t-189.5 -38q-117 0 -209 54t-137 139v-170h-192zM340 539q0 -184 93 -291t231 -107t228.5 107t90.5 291 q0 179 -90.5 281t-228.5 102q-142 0 -233 -101.5t-91 -281.5z" />
<glyph unicode="c" horiz-adv-x="1150" d="M80 539q0 118 41.5 220.5t112 173.5t167 111.5t203.5 40.5q120 0 224 -48t172.5 -137t82.5 -202h-190q-26 100 -105.5 158.5t-185.5 58.5q-142 0 -234 -105.5t-92 -270.5q0 -168 92.5 -280t233.5 -112q104 0 182.5 58t108.5 164h190q-27 -178 -165 -285t-318 -107 q-222 0 -371 156.5t-149 405.5z" />
<glyph unicode="d" horiz-adv-x="1265" d="M82 539q0 127 40.5 231.5t109 172.5t157 105t186.5 37q117 0 209 -48.5t138 -125.5v564h192v-1475h-192v168q-46 -83 -139 -137t-208 -54q-101 0 -190 37t-157 106.5t-107 177.5t-39 241zM283 539q0 -183 89.5 -290.5t231.5 -107.5q135 0 228.5 107.5t93.5 290.5 q0 179 -92 281t-230 102q-142 0 -231.5 -103.5t-89.5 -279.5z" />
<glyph unicode="e" horiz-adv-x="1187" d="M80 539q0 124 43 228.5t115 173t165 106.5t195 38q103 0 194.5 -36t162.5 -104.5t113 -177.5t42 -245v-47h-834q13 -149 108.5 -241.5t231.5 -92.5q99 0 175 39.5t116 122.5h193q-29 -106 -106.5 -181.5t-175.5 -110t-208 -34.5t-206.5 39.5t-168.5 111t-113.5 178 t-41.5 233.5zM274 631h635q-9 132 -97 212.5t-218 80.5q-126 0 -216.5 -79.5t-103.5 -213.5z" />
<glyph unicode="f" horiz-adv-x="706" d="M27 905v156h194v125q0 161 77 227t226 66q50 0 144 -4v-158q-66 4 -115 4q-72 0 -107.5 -30t-35.5 -113v-117h258v-156h-258v-905h-189v905h-194z" />
<glyph unicode="g" horiz-adv-x="1247" d="M86 563q0 120 39 219.5t105.5 165t152.5 101.5t182 36q114 0 202.5 -49t137.5 -131v156h193v-1032q0 -106 -38 -190.5t-104.5 -138t-153.5 -82t-188 -28.5q-208 0 -339.5 96t-159.5 257h190q26 -93 105 -143t204 -50q134 0 212.5 71t78.5 208v186q-44 -82 -135 -133 t-209 -51q-98 0 -184 36t-151 102t-102.5 168t-37.5 226zM287 563q0 -168 88.5 -268t222.5 -100q130 0 219.5 99.5t89.5 268.5q0 167 -90 263t-219 96q-133 0 -222 -99t-89 -260z" />
<glyph unicode="h" horiz-adv-x="1189" d="M152 0v1475h192v-527v-28q51 77 135.5 121t190.5 44q179 0 281 -108t102 -313v-664h-193v641q0 131 -66.5 204t-181.5 73q-114 0 -191 -84.5t-77 -239.5v-594h-192z" />
<glyph unicode="i" horiz-adv-x="493" d="M150 1255v220h196v-220h-196zM152 0v1061h192v-1061h-192z" />
<glyph unicode="j" horiz-adv-x="493" d="M-74 -231h107q69 0 94 29t25 106v1157h192v-1178q0 -150 -65.5 -213t-194.5 -63q-95 0 -158 4v158zM150 1255v220h196v-220h-196z" />
<glyph unicode="k" horiz-adv-x="1114" d="M152 0v1475h190v-897l481 483h252l-393 -385l408 -676h-224l-321 541l-203 -197v-344h-190z" />
<glyph unicode="l" horiz-adv-x="493" d="M152 0v1475h192v-1475h-192z" />
<glyph unicode="m" horiz-adv-x="1841" d="M152 0v1061h188v-141q101 165 317 165q103 0 189 -47.5t133 -142.5q50 90 139.5 140t204.5 50q79 0 145.5 -22.5t120.5 -69t84.5 -126.5t30.5 -187v-680h-193v653q0 129 -64.5 197t-168.5 68q-107 0 -180.5 -82.5t-73.5 -227.5v-608h-193v653q0 129 -64.5 197t-168.5 68 q-107 0 -180.5 -82t-73.5 -228v-608h-192z" />
<glyph unicode="n" horiz-adv-x="1189" d="M152 0v1061h190v-146q51 80 135.5 125t192.5 45q179 0 281 -108t102 -313v-664h-193v641q0 131 -66.5 204t-181.5 73q-114 0 -191 -84.5t-77 -239.5v-594h-192z" />
<glyph unicode="o" horiz-adv-x="1232" d="M80 539q0 120 42 223t114.5 173.5t170.5 110t209 39.5q230 0 383.5 -151t153.5 -395q0 -125 -42 -231t-115 -178t-171 -112.5t-209 -40.5q-150 0 -271 68t-193 197t-72 297zM276 539q0 -173 95.5 -282.5t244.5 -109.5q150 0 245 109t95 283q0 165 -96 270.5t-244 105.5 q-149 0 -244.5 -105t-95.5 -271z" />
<glyph unicode="p" horiz-adv-x="1265" d="M152 -389v1450h192v-160q46 81 136.5 132.5t213.5 51.5q101 0 189.5 -36t156 -103.5t106 -172.5t38.5 -234q0 -132 -39.5 -240t-107.5 -177.5t-157 -107t-190 -37.5q-118 0 -208.5 52t-137.5 135v-553h-192zM340 539q0 -184 93 -291t231 -107t228.5 107.5t90.5 290.5 q0 179 -90.5 281t-228.5 102q-141 0 -232.5 -102.5t-91.5 -280.5z" />
<glyph unicode="q" horiz-adv-x="1265" d="M82 539q0 127 41 231.5t110 172.5t158 105t187 37q119 0 209 -50t135 -130v156h192v-1450h-192v553q-47 -82 -140.5 -134.5t-206.5 -52.5q-101 0 -190 37t-157 106.5t-107 177.5t-39 241zM283 539q0 -183 89.5 -290.5t231.5 -107.5q135 0 228.5 107.5t93.5 290.5 q0 177 -92.5 280t-229.5 103q-142 0 -231.5 -103.5t-89.5 -279.5z" />
<glyph unicode="r" horiz-adv-x="739" d="M152 0v1061h190v-174q43 71 92 110q89 72 215 72q41 0 68 -6v-186q-49 2 -96 2q-38 0 -74 -7t-74 -26t-65.5 -49t-45.5 -80t-18 -115v-602h-192z" />
<glyph unicode="s" horiz-adv-x="1030" d="M72 332h184q17 -96 93 -146.5t186 -50.5q96 0 165.5 41t69.5 113q0 67 -58.5 104t-181.5 60l-108 20q-324 59 -324 291q0 145 117 234t287 89q168 0 288 -86t138 -235h-183q-20 79 -85.5 120.5t-163.5 41.5q-92 0 -154.5 -42t-62.5 -108q0 -59 47.5 -89t152.5 -50 l109 -21q178 -34 272 -107.5t94 -203.5q0 -102 -61 -179.5t-156 -115t-207 -37.5q-185 0 -312.5 92.5t-145.5 264.5z" />
<glyph unicode="t" horiz-adv-x="733" d="M27 905v156h186v254h190v-254h269v-156h-269v-610q0 -83 31 -111t103 -28h135v-154q-72 -4 -183 -4q-67 0 -114.5 11.5t-85.5 41t-57 83.5t-19 134v637h-186z" />
<glyph unicode="u" horiz-adv-x="1177" d="M137 391v670h193v-643q0 -131 66 -202t177 -71q108 0 184.5 82t76.5 230v604h192v-1061h-188v145q-50 -81 -132 -124.5t-188 -43.5q-173 0 -277 107.5t-104 306.5z" />
<glyph unicode="v" horiz-adv-x="1030" d="M8 1061h203l309 -846l309 846h193l-401 -1061h-211z" />
<glyph unicode="w" horiz-adv-x="1560" d="M20 1061h195l244 -832l233 832h185l233 -828l244 828h186l-334 -1061h-194l-232 809l-231 -809h-195z" />
<glyph unicode="x" horiz-adv-x="1032" d="M12 0l389 535l-381 526h226l276 -395l275 395h215l-375 -516l383 -545h-225l-281 410l-285 -410h-217z" />
<glyph unicode="y" horiz-adv-x="1021" d="M2 1061h207l315 -766l293 766h199l-578 -1450h-196l188 457z" />
<glyph unicode="z" horiz-adv-x="1007" d="M74 0v178l628 719h-616v164h838v-178l-629 -719h637v-164h-858z" />
<glyph unicode="{" horiz-adv-x="690" d="M68 569v156h16q87 0 116 44t29 169v266q0 85 15.5 142.5t44.5 95t82 57.5t116.5 27.5t159.5 7.5v-154q-98 0 -145.5 -17.5t-64.5 -57t-17 -121.5v-242q0 -131 -33.5 -200.5t-120.5 -90.5v-4q87 -22 120.5 -90.5t33.5 -202.5v-243q0 -62 8 -97t33.5 -59t68.5 -32.5 t117 -8.5v-154q-96 0 -159.5 7.5t-116.5 27.5t-82 57.5t-44.5 95t-15.5 142.5v264q0 126 -29 170.5t-116 44.5h-16z" />
<glyph unicode="|" horiz-adv-x="509" d="M168 -205v1721h174v-1721h-174z" />
<glyph unicode="}" horiz-adv-x="690" d="M43 -86q74 0 117 8.5t68.5 32.5t33.5 59t8 97v241q0 131 33.5 200.5t120.5 90.5v4q-87 22 -120.5 90.5t-33.5 202.5v244q0 82 -17 121.5t-64.5 57t-145.5 17.5v154q96 0 159.5 -7.5t116.5 -27.5t82 -57.5t44.5 -95t15.5 -142.5v-264q0 -126 29 -170.5t116 -44.5h17v-156 h-17q-87 0 -116 -44t-29 -169v-266q0 -85 -15.5 -142.5t-44.5 -95t-82 -57.5t-116.5 -27.5t-159.5 -7.5v154z" />
<glyph unicode="~" horiz-adv-x="1159" d="M68 717q64 132 143.5 188t177.5 56q102 0 221 -87q5 -4 22.5 -18.5t24 -19.5t22 -16.5t25 -16.5t23 -11.5t26 -9t25.5 -2.5q55 0 92.5 36t75.5 114l146 -74q-119 -244 -322 -244q-107 0 -221 86q-3 3 -25.5 21.5t-29 23.5t-25.5 18t-30.5 17.5t-28 9.5t-31.5 5 q-54 0 -91 -36t-75 -114z" />
<glyph unicode="&#xa1;" horiz-adv-x="563" d="M170 813v248h223v-248h-223zM178 92l45 539h115l45 -539v-481h-205v481z" />
<glyph unicode="&#xa2;" horiz-adv-x="1234" d="M117 539q0 218 131 368t327 174v176h134v-176q163 -21 278 -125t135 -258h-192q-20 83 -79.5 138t-141.5 73v-755q81 18 139 72.5t82 142.5h192q-24 -159 -139.5 -262.5t-273.5 -124.5v-166h-134v166q-200 22 -329 174t-129 383zM315 539q0 -147 72 -253t188 -132v755 q-117 -25 -188.5 -125t-71.5 -245z" />
<glyph unicode="&#xa3;" horiz-adv-x="1355" d="M143 649v154h174v155q0 118 35.5 209.5t98.5 148.5t146.5 86.5t182.5 29.5q178 0 306.5 -110t146.5 -296h-197q-8 95 -76 161t-182 66q-124 0 -192 -76t-68 -219v-155h410v-154h-410v-192q0 -117 -28 -183t-84 -104l2 -6q65 8 165 8h660v-172h-1081v158 q86 35 125.5 100.5t39.5 167.5v223h-174z" />
<glyph unicode="&#xa5;" horiz-adv-x="1384" d="M106 1401h234l356 -637l359 637h221l-420 -731h311v-148h-374v-168h374v-147h-374v-207h-201v207h-375v147h375v168h-375v148h311z" />
<glyph unicode="&#xa6;" horiz-adv-x="509" d="M168 -205v737h174v-737h-174zM168 840v676h174v-676h-174z" />
<glyph unicode="&#xa7;" horiz-adv-x="1075" d="M84 596q0 105 63.5 178.5t161.5 114.5q-133 98 -133 248q0 142 110 231.5t267 89.5q160 0 265 -88.5t118 -243.5h-186q-8 83 -60 132t-137 49q-82 0 -136.5 -47t-54.5 -119q0 -63 43.5 -103.5t126.5 -68.5l142 -45q157 -49 237 -125t80 -201q0 -105 -63 -179.5 t-160 -113.5q139 -101 139 -250q0 -144 -112 -234.5t-269 -90.5q-153 0 -262.5 89t-122.5 242h189q9 -82 63 -131t133 -49q82 0 136.5 48t54.5 122q0 119 -172 174l-144 45q-155 49 -236 126t-81 200zM262 625q0 -71 56 -120.5t176 -86.5l118 -39q87 21 145 69t58 121 q0 78 -56.5 125t-189.5 88l-108 35q-199 -57 -199 -192z" />
<glyph unicode="&#xa8;" horiz-adv-x="774" d="M102 1264v211h193v-211h-193zM481 1264v211h191v-211h-191z" />
<glyph unicode="&#xa9;" horiz-adv-x="1685" d="M106 721q0 152 58.5 289.5t157 236t235.5 157t287 58.5t286.5 -58t235.5 -157t157 -236.5t58 -289.5t-58 -290t-157 -237.5t-235.5 -158t-286.5 -58.5q-203 0 -372.5 99t-267.5 270t-98 375zM215 721q0 -173 82 -320t227.5 -234t319.5 -87t318.5 86.5t226 233.5t81.5 321 q0 172 -82 318.5t-226.5 233.5t-317.5 87q-175 0 -320 -86.5t-227 -233t-82 -319.5zM453 727q0 179 115 294.5t284 115.5q140 0 245.5 -83.5t125.5 -219.5h-156q-21 72 -76.5 116.5t-138.5 44.5q-106 0 -172 -74.5t-66 -193.5q0 -116 69.5 -195t168.5 -79q164 0 215 157h156 q-28 -137 -131.5 -221t-239.5 -82q-172 0 -285.5 119.5t-113.5 300.5z" />
<glyph unicode="&#xaa;" horiz-adv-x="911" d="M86 862q0 50 19 90t50 67.5t80.5 48.5t101.5 34.5t122 25.5l168 29v6q0 164 -172 164q-79 0 -127 -36.5t-62 -104.5h-160q15 122 113 194t240 72q153 0 242.5 -73t89.5 -230l-3 -344q0 -51 7 -170h-154l-4 115q-83 -132 -262 -132q-75 0 -139.5 26.5t-107 83.5t-42.5 134 zM250 870q0 -58 45 -90t115 -32q94 0 155.5 57.5t61.5 159.5v69q-213 -31 -295 -64t-82 -100z" />
<glyph unicode="&#xab;" horiz-adv-x="1083" d="M84 539l266 389h185l-234 -385l234 -389h-185zM522 539l266 389h185l-234 -385l234 -389h-185z" />
<glyph unicode="&#xad;" horiz-adv-x="905" d="M117 502v178h671v-178h-671z" />
<glyph unicode="&#xae;" horiz-adv-x="958" d="M70 1047q0 172 119.5 291.5t289.5 119.5q171 0 291.5 -117.5t120.5 -293.5q0 -169 -122 -289.5t-290 -120.5q-171 0 -290 119.5t-119 290.5zM160 1047q0 -130 94 -228t225 -98t225.5 96.5t94.5 229.5q0 130 -94.5 228.5t-225.5 98.5q-132 0 -225.5 -97.5t-93.5 -229.5z M319 840v420h199q65 0 101 -38t36 -94q0 -43 -23 -73t-59 -43v-2q12 -16 23 -41l72 -129h-107l-74 137q-4 10 -9 13t-17 3h-49v-153h-93zM412 1071h84q63 0 63 55q0 27 -16.5 42.5t-46.5 15.5h-84v-113z" />
<glyph unicode="&#xaf;" horiz-adv-x="706" d="M90 1288v139h526v-139h-526z" />
<glyph unicode="&#xb0;" horiz-adv-x="735" d="M72 1167q0 122 88 206.5t207 84.5q121 0 208 -84t87 -207q0 -121 -87.5 -204.5t-207.5 -83.5q-121 0 -208 83t-87 205zM211 1167q0 -66 45.5 -112.5t110.5 -46.5q66 0 111.5 46t45.5 113q0 66 -45.5 114t-111.5 48t-111 -47t-45 -115z" />
<glyph unicode="&#xb1;" horiz-adv-x="1202" d="M102 57v166h998v-166h-998zM102 739v164h410v342h178v-342h410v-164h-410v-348h-178v348h-410z" />
<glyph unicode="&#xb2;" horiz-adv-x="706" d="M45 666l8 55q14 88 72 155.5t178 133.5q106 56 147.5 96t41.5 94t-37 89.5t-97 35.5q-63 0 -101.5 -36.5t-41.5 -96.5h-149q8 114 88 185t204 71q125 0 204 -68.5t79 -177.5q0 -92 -56.5 -155t-189.5 -132q-77 -41 -113.5 -70.5t-48.5 -62.5h406v-116h-594z" />
<glyph unicode="&#xb3;" horiz-adv-x="722" d="M45 895h152q6 -58 46 -93.5t107 -35.5q69 0 109.5 33.5t40.5 87.5q0 59 -43 90t-117 31h-86v110h88q65 0 107.5 28.5t42.5 82.5q0 49 -38 77.5t-100 28.5q-64 0 -102.5 -31.5t-44.5 -80.5h-148q15 105 94 165t201 60q123 0 206 -56.5t83 -154.5q0 -68 -41 -112t-106 -60 v-2q70 -12 113.5 -61t43.5 -123q0 -103 -86 -164.5t-217 -61.5q-127 0 -209.5 63.5t-95.5 178.5z" />
<glyph unicode="&#xb4;" horiz-adv-x="411" d="M61 1212l117 263h207l-143 -263h-181z" />
<glyph unicode="&#xb5;" horiz-adv-x="1191" d="M152 -389v1450h192v-643q0 -131 66.5 -202t177.5 -71q107 0 183.5 82t76.5 230v604h192v-1061h-188v145q-50 -81 -132 -124.5t-188 -43.5q-108 0 -190 43v-409h-190z" />
<glyph unicode="&#xb6;" horiz-adv-x="1122" d="M66 1110q0 151 96 237.5t248 86.5h626v-144h-159v-1290h-160v1290h-137v-1290h-160v776h-10q-152 0 -248 90t-96 244z" />
<glyph unicode="&#xb7;" horiz-adv-x="505" d="M141 446v248h224v-248h-224z" />
<glyph unicode="&#xb8;" horiz-adv-x="458" d="M66 -283q65 -14 110 -14q100 0 100 61q0 60 -86 60q-45 0 -86 -14h-14l55 233h134l-41 -133q12 2 28 2q58 0 102 -35t44 -106q0 -85 -58 -127.5t-166 -42.5q-66 0 -122 16v100z" />
<glyph unicode="&#xb9;" horiz-adv-x="514" d="M57 1149v141l228 144h121v-768h-152v596z" />
<glyph unicode="&#xba;" horiz-adv-x="980" d="M80 1040q0 183 118 297.5t291 114.5q177 0 295.5 -113.5t118.5 -298.5q0 -188 -119 -305t-295 -117q-175 0 -292 115.5t-117 306.5zM250 1040q0 -126 66.5 -203t172.5 -77q108 0 176 77.5t68 202.5q0 120 -68.5 195.5t-175.5 75.5q-105 0 -172 -75.5t-67 -195.5z" />
<glyph unicode="&#xbb;" horiz-adv-x="1083" d="M111 154l233 385l-233 389h184l266 -385l-266 -389h-184zM549 154l233 385l-233 389h184l266 -385l-266 -389h-184z" />
<glyph unicode="&#xbc;" horiz-adv-x="1579" d="M57 1149v141l228 144h121v-768h-152v596zM156 0l1005 1434h197l-1006 -1434h-196zM895 184v115l344 469h184v-467h115v-117h-115v-184h-141v184h-387zM1040 301h242v332z" />
<glyph unicode="&#xbd;" horiz-adv-x="1701" d="M57 1149v141l228 144h121v-768h-152v596zM156 0l1005 1434h197l-1006 -1434h-196zM989 0l8 55q14 88 72 155.5t178 133.5q106 56 147.5 96.5t41.5 94.5t-36.5 89t-96.5 35q-64 0 -102.5 -37t-41.5 -96h-149q8 114 88.5 185t204.5 71q125 0 203.5 -68t78.5 -177 q0 -92 -56.5 -155t-189.5 -132q-76 -41 -112.5 -70.5t-48.5 -62.5h405v-117h-594z" />
<glyph unicode="&#xbe;" horiz-adv-x="1718" d="M45 895h152q6 -58 46 -93.5t107 -35.5q69 0 109.5 33.5t40.5 87.5q0 59 -43 90t-117 31h-86v110h88q65 0 107.5 28.5t42.5 82.5q0 49 -38 77.5t-100 28.5q-64 0 -102.5 -31.5t-44.5 -80.5h-148q15 105 94 165t201 60q123 0 206 -56.5t83 -154.5q0 -68 -41 -112t-106 -60 v-2q70 -12 113.5 -61t43.5 -123q0 -103 -86 -164.5t-217 -61.5q-127 0 -209.5 63.5t-95.5 178.5zM293 0l1005 1434h197l-1006 -1434h-196zM1034 184v115l344 469h185v-467h114v-117h-114v-184h-142v184h-387zM1180 301h241v332z" />
<glyph unicode="&#xbf;" horiz-adv-x="1171" d="M104 -8q0 130 68.5 221t222.5 166q98 49 129 94t31 123v35h172v-45q0 -99 -14 -140q-20 -52 -56.5 -93.5t-107.5 -84.5q-51 -31 -81 -51t-64 -47.5t-51.5 -51.5t-29.5 -55t-12 -67q0 -95 78 -159t197 -64q130 0 211 75.5t90 198.5h203q-17 -205 -158 -326.5t-346 -121.5 q-97 0 -184 26.5t-153.5 75.5t-105.5 124.5t-39 166.5zM530 813v248h224v-248h-224z" />
<glyph unicode="&#xc0;" horiz-adv-x="1409" d="M14 0l578 1434h225l578 -1434h-219l-146 375h-663l-146 -375h-207zM436 551h525l-263 674zM471 1831h207l119 -262h-181z" />
<glyph unicode="&#xc1;" horiz-adv-x="1409" d="M14 0l578 1434h225l578 -1434h-219l-146 375h-663l-146 -375h-207zM436 551h525l-263 674zM614 1569l117 262h207l-143 -262h-181z" />
<glyph unicode="&#xc2;" horiz-adv-x="1409" d="M14 0l578 1434h225l578 -1434h-219l-146 375h-663l-146 -375h-207zM381 1569l233 262h185l231 -262h-178l-150 155l-143 -155h-178zM436 551h525l-263 674z" />
<glyph unicode="&#xc3;" horiz-adv-x="1409" d="M14 0l578 1434h225l578 -1434h-219l-146 375h-663l-146 -375h-207zM358 1657q79 172 224 172q73 0 151 -62q66 -49 105 -49q29 0 53.5 21.5t50.5 70.5l113 -63q-39 -83 -97 -126.5t-127 -43.5q-73 0 -151 59q-67 50 -105 50q-30 0 -54 -21.5t-50 -71.5zM436 551h525 l-263 674z" />
<glyph unicode="&#xc4;" horiz-adv-x="1409" d="M14 0l578 1434h225l578 -1434h-219l-146 375h-663l-146 -375h-207zM420 1620v211h192v-211h-192zM436 551h525l-263 674zM799 1620v211h190v-211h-190z" />
<glyph unicode="&#xc5;" horiz-adv-x="1409" d="M14 0l578 1434h225l578 -1434h-219l-146 375h-663l-146 -375h-207zM436 551h525l-263 674zM498 1753q0 86 61 144.5t146 58.5q88 0 148 -58t60 -145q0 -86 -61.5 -144.5t-146.5 -58.5q-88 0 -147.5 58t-59.5 145zM600 1753q0 -44 30.5 -75t74.5 -31q47 0 76.5 30.5 t29.5 75.5t-30.5 76t-75.5 31t-75 -31t-30 -76z" />
<glyph unicode="&#xc6;" horiz-adv-x="2078" d="M-12 0l882 1434h1096v-177h-788v-423h731v-179h-731v-479h802v-176h-1003v416h-510l-250 -416h-229zM573 594h404v674z" />
<glyph unicode="&#xc7;" horiz-adv-x="1490" d="M88 725q0 167 56.5 308t152.5 234.5t221 145t262 51.5q245 0 420 -132.5t213 -352.5h-205q-40 139 -155 220t-273 81q-98 0 -185 -39.5t-152 -110.5t-102.5 -176t-37.5 -229q0 -248 138 -406.5t339 -158.5q158 0 271 80t159 221h205q-43 -211 -199.5 -340.5 t-381.5 -143.5l-21 -67q12 2 29 2q58 0 101.5 -34.5t43.5 -106.5q0 -85 -57.5 -127.5t-165.5 -42.5q-67 0 -123 16v100q65 -14 111 -14q100 0 100 61q0 60 -86 60q-45 0 -86 -14h-14l41 170q-129 13 -241.5 71.5t-196.5 152.5t-132.5 229t-48.5 292z" />
<glyph unicode="&#xc8;" horiz-adv-x="1269" d="M168 0v1434h991v-177h-788v-423h733v-179h-733v-479h803v-176h-1006zM424 1831h207l119 -262h-181z" />
<glyph unicode="&#xc9;" horiz-adv-x="1269" d="M168 0v1434h991v-177h-788v-423h733v-179h-733v-479h803v-176h-1006zM567 1569l117 262h207l-143 -262h-181z" />
<glyph unicode="&#xca;" horiz-adv-x="1269" d="M168 0v1434h991v-177h-788v-423h733v-179h-733v-479h803v-176h-1006zM332 1569l233 262h185l231 -262h-178l-150 155l-143 -155h-178z" />
<glyph unicode="&#xcb;" horiz-adv-x="1269" d="M168 0v1434h991v-177h-788v-423h733v-179h-733v-479h803v-176h-1006zM373 1620v211h192v-211h-192zM752 1620v211h190v-211h-190z" />
<glyph unicode="&#xcc;" horiz-adv-x="540" d="M37 1831h207l118 -262h-180zM168 0v1434h205v-1434h-205z" />
<glyph unicode="&#xcd;" horiz-adv-x="540" d="M168 0v1434h205v-1434h-205zM180 1569l117 262h207l-144 -262h-180z" />
<glyph unicode="&#xce;" horiz-adv-x="540" d="M-55 1569l233 262h184l232 -262h-178l-150 155l-143 -155h-178zM168 0v1434h205v-1434h-205z" />
<glyph unicode="&#xcf;" horiz-adv-x="540" d="M-14 1620v211h192v-211h-192zM168 0v1434h205v-1434h-205zM365 1620v211h190v-211h-190z" />
<glyph unicode="&#xd0;" horiz-adv-x="1544" d="M39 668v155h213v611h450q355 0 554.5 -179t199.5 -530q0 -343 -203 -534t-553 -191h-448v668h-213zM457 176h223q278 0 420.5 145t142.5 404q0 257 -141.5 394.5t-421.5 137.5h-223v-434h325v-155h-325v-492z" />
<glyph unicode="&#xd1;" horiz-adv-x="1538" d="M168 0v1434h262l739 -1174v1174h201v-1434h-262l-739 1174v-1174h-201zM440 1657q79 172 224 172q73 0 151 -62q66 -49 105 -49q29 0 53.5 21.5t50.5 70.5l113 -63q-39 -83 -97 -126.5t-127 -43.5q-73 0 -151 59q-67 50 -105 50q-30 0 -54 -21.5t-50 -71.5z" />
<glyph unicode="&#xd2;" d="M88 725q0 166 57.5 306.5t155 234.5t227 146t273.5 52q146 0 276 -51.5t227.5 -145t154.5 -234t57 -308.5q0 -167 -57 -309t-154 -238t-227.5 -149.5t-276.5 -53.5q-147 0 -277 53.5t-227 149t-153 237.5t-56 310zM303 725q0 -250 142 -407.5t356 -157.5q215 0 356 156.5 t141 408.5q0 249 -141 402t-356 153t-356.5 -153t-141.5 -402zM567 1831h207l119 -262h-180z" />
<glyph unicode="&#xd3;" d="M88 725q0 166 57.5 306.5t155 234.5t227 146t273.5 52q146 0 276 -51.5t227.5 -145t154.5 -234t57 -308.5q0 -167 -57 -309t-154 -238t-227.5 -149.5t-276.5 -53.5q-147 0 -277 53.5t-227 149t-153 237.5t-56 310zM303 725q0 -250 142 -407.5t356 -157.5q215 0 356 156.5 t141 408.5q0 249 -141 402t-356 153t-356.5 -153t-141.5 -402zM711 1569l116 262h207l-143 -262h-180z" />
<glyph unicode="&#xd4;" d="M88 725q0 166 57.5 306.5t155 234.5t227 146t273.5 52q146 0 276 -51.5t227.5 -145t154.5 -234t57 -308.5q0 -167 -57 -309t-154 -238t-227.5 -149.5t-276.5 -53.5q-147 0 -277 53.5t-227 149t-153 237.5t-56 310zM303 725q0 -250 142 -407.5t356 -157.5q215 0 356 156.5 t141 408.5q0 249 -141 402t-356 153t-356.5 -153t-141.5 -402zM477 1569l234 262h184l231 -262h-178l-149 155l-144 -155h-178z" />
<glyph unicode="&#xd5;" d="M88 725q0 166 57.5 306.5t155 234.5t227 146t273.5 52q146 0 276 -51.5t227.5 -145t154.5 -234t57 -308.5q0 -167 -57 -309t-154 -238t-227.5 -149.5t-276.5 -53.5q-147 0 -277 53.5t-227 149t-153 237.5t-56 310zM303 725q0 -250 142 -407.5t356 -157.5q215 0 356 156.5 t141 408.5q0 249 -141 402t-356 153t-356.5 -153t-141.5 -402zM455 1657q79 172 223 172q73 0 151 -62q66 -49 105 -49q29 0 53.5 21.5t50.5 70.5l113 -63q-39 -84 -97 -127t-126 -43q-74 0 -152 59q-67 50 -104 50q-30 0 -54.5 -21.5t-50.5 -71.5z" />
<glyph unicode="&#xd6;" d="M88 725q0 166 57.5 306.5t155 234.5t227 146t273.5 52q146 0 276 -51.5t227.5 -145t154.5 -234t57 -308.5q0 -167 -57 -309t-154 -238t-227.5 -149.5t-276.5 -53.5q-147 0 -277 53.5t-227 149t-153 237.5t-56 310zM303 725q0 -250 142 -407.5t356 -157.5q215 0 356 156.5 t141 408.5q0 249 -141 402t-356 153t-356.5 -153t-141.5 -402zM516 1620v211h193v-211h-193zM895 1620v211h190v-211h-190z" />
<glyph unicode="&#xd7;" horiz-adv-x="1202" d="M154 365l325 325l-325 326l122 125l328 -326l326 326l119 -119l-326 -326l326 -327l-123 -123l-328 325l-326 -325z" />
<glyph unicode="&#xd8;" d="M88 725q0 166 57.5 306.5t155 234.5t227 146t273.5 52q195 0 356 -88l111 164h194l-176 -256q109 -100 169.5 -242t60.5 -317q0 -167 -57 -309t-154 -238t-227.5 -149.5t-276.5 -53.5q-191 0 -352 88l-113 -169h-195l178 264q-110 99 -170.5 244t-60.5 323zM303 725 q0 -245 137 -401l602 895q-113 61 -241 61q-215 0 -356.5 -153t-141.5 -402zM563 221q109 -61 238 -61q215 0 356 156.5t141 408.5q0 241 -133 393z" />
<glyph unicode="&#xd9;" horiz-adv-x="1445" d="M150 563v871h206v-861q0 -193 101 -303t266 -110q167 0 267 108.5t100 302.5v863h206v-869q0 -276 -158 -433t-417 -157q-258 0 -414.5 155.5t-156.5 432.5zM489 1831h207l119 -262h-180z" />
<glyph unicode="&#xda;" horiz-adv-x="1445" d="M150 563v871h206v-861q0 -193 101 -303t266 -110q167 0 267 108.5t100 302.5v863h206v-869q0 -276 -158 -433t-417 -157q-258 0 -414.5 155.5t-156.5 432.5zM631 1569l117 262h206l-143 -262h-180z" />
<glyph unicode="&#xdb;" horiz-adv-x="1445" d="M150 563v871h206v-861q0 -193 101 -303t266 -110q167 0 267 108.5t100 302.5v863h206v-869q0 -276 -158 -433t-417 -157q-258 0 -414.5 155.5t-156.5 432.5zM397 1569l234 262h184l232 -262h-179l-149 155l-144 -155h-178z" />
<glyph unicode="&#xdc;" horiz-adv-x="1445" d="M150 563v871h206v-861q0 -193 101 -303t266 -110q167 0 267 108.5t100 302.5v863h206v-869q0 -276 -158 -433t-417 -157q-258 0 -414.5 155.5t-156.5 432.5zM438 1620v211h193v-211h-193zM817 1620v211h191v-211h-191z" />
<glyph unicode="&#xdd;" horiz-adv-x="1241" d="M-8 1434h237l398 -689l397 689h225l-526 -893v-541h-205v541zM530 1569l117 262h207l-143 -262h-181z" />
<glyph unicode="&#xde;" horiz-adv-x="1259" d="M168 0v1434h205v-246h317q245 0 377.5 -119.5t132.5 -325.5q0 -209 -134.5 -328.5t-377.5 -119.5h-315v-295h-205zM373 471h303q151 0 232 72.5t81 197.5q0 124 -82 197.5t-231 73.5h-303v-541z" />
<glyph unicode="&#xdf;" horiz-adv-x="1234" d="M152 0v1018q0 114 38.5 204.5t104.5 147t149.5 86t176.5 29.5q120 0 223.5 -43.5t169 -129.5t65.5 -196q0 -146 -78 -225t-200 -98v-5q71 -8 131.5 -33.5t110 -70t78 -115t28.5 -159.5q0 -106 -40.5 -188t-109.5 -130.5t-154 -73t-181 -24.5q-88 0 -162 12v166 q68 -12 141 -12q142 0 226.5 67.5t84.5 196.5q0 132 -93 202t-263 70h-35v168h33q131 0 211 63t80 171q0 101 -76.5 162t-192.5 61q-118 0 -196 -78.5t-78 -228.5v-1014h-192z" />
<glyph unicode="&#xe0;" horiz-adv-x="1138" d="M88 297q0 68 24.5 121t65 89t106.5 64t136 45.5t166 32.5l225 37v21q0 223 -240 223q-106 0 -174.5 -51t-87.5 -146h-188q21 161 148.5 256.5t308.5 95.5q95 0 169.5 -20.5t132.5 -64.5t89 -120t30 -180l-4 -479q0 -33 11 -221h-181l-2 160q-109 -183 -352 -183 q-101 0 -186 34t-141 108.5t-56 177.5zM279 305q0 -81 63.5 -125.5t163.5 -44.5q133 0 219 81.5t86 227.5v88q-101 -13 -170 -23.5t-133.5 -24.5t-103.5 -30t-69.5 -37.5t-43 -49t-12.5 -62.5zM338 1475h207l119 -263h-181z" />
<glyph unicode="&#xe1;" horiz-adv-x="1138" d="M88 297q0 68 24.5 121t65 89t106.5 64t136 45.5t166 32.5l225 37v21q0 223 -240 223q-106 0 -174.5 -51t-87.5 -146h-188q21 161 148.5 256.5t308.5 95.5q95 0 169.5 -20.5t132.5 -64.5t89 -120t30 -180l-4 -479q0 -33 11 -221h-181l-2 160q-109 -183 -352 -183 q-101 0 -186 34t-141 108.5t-56 177.5zM279 305q0 -81 63.5 -125.5t163.5 -44.5q133 0 219 81.5t86 227.5v88q-101 -13 -170 -23.5t-133.5 -24.5t-103.5 -30t-69.5 -37.5t-43 -49t-12.5 -62.5zM479 1212l117 263h207l-144 -263h-180z" />
<glyph unicode="&#xe2;" horiz-adv-x="1138" d="M88 297q0 68 24.5 121t65 89t106.5 64t136 45.5t166 32.5l225 37v21q0 223 -240 223q-106 0 -174.5 -51t-87.5 -146h-188q21 161 148.5 256.5t308.5 95.5q95 0 169.5 -20.5t132.5 -64.5t89 -120t30 -180l-4 -479q0 -33 11 -221h-181l-2 160q-109 -183 -352 -183 q-101 0 -186 34t-141 108.5t-56 177.5zM246 1212l233 263h185l231 -263h-178l-150 156l-143 -156h-178zM279 305q0 -81 63.5 -125.5t163.5 -44.5q133 0 219 81.5t86 227.5v88q-101 -13 -170 -23.5t-133.5 -24.5t-103.5 -30t-69.5 -37.5t-43 -49t-12.5 -62.5z" />
<glyph unicode="&#xe3;" horiz-adv-x="1138" d="M88 297q0 68 24.5 121t65 89t106.5 64t136 45.5t166 32.5l225 37v21q0 223 -240 223q-106 0 -174.5 -51t-87.5 -146h-188q21 161 148.5 256.5t308.5 95.5q95 0 169.5 -20.5t132.5 -64.5t89 -120t30 -180l-4 -479q0 -33 11 -221h-181l-2 160q-109 -183 -352 -183 q-101 0 -186 34t-141 108.5t-56 177.5zM223 1300q80 173 223 173q74 0 152 -62q66 -49 104 -49q30 0 54.5 21.5t50.5 70.5l113 -63q-39 -83 -97 -126.5t-127 -43.5q-73 0 -151 59q-66 49 -105 49q-30 0 -54 -21t-50 -71zM279 305q0 -81 63.5 -125.5t163.5 -44.5 q133 0 219 81.5t86 227.5v88q-101 -13 -170 -23.5t-133.5 -24.5t-103.5 -30t-69.5 -37.5t-43 -49t-12.5 -62.5z" />
<glyph unicode="&#xe4;" horiz-adv-x="1138" d="M88 297q0 68 24.5 121t65 89t106.5 64t136 45.5t166 32.5l225 37v21q0 223 -240 223q-106 0 -174.5 -51t-87.5 -146h-188q21 161 148.5 256.5t308.5 95.5q95 0 169.5 -20.5t132.5 -64.5t89 -120t30 -180l-4 -479q0 -33 11 -221h-181l-2 160q-109 -183 -352 -183 q-101 0 -186 34t-141 108.5t-56 177.5zM279 305q0 -81 63.5 -125.5t163.5 -44.5q133 0 219 81.5t86 227.5v88q-101 -13 -170 -23.5t-133.5 -24.5t-103.5 -30t-69.5 -37.5t-43 -49t-12.5 -62.5zM287 1264v211h192v-211h-192zM666 1264v211h190v-211h-190z" />
<glyph unicode="&#xe5;" horiz-adv-x="1138" d="M88 297q0 68 24.5 121t65 89t106.5 64t136 45.5t166 32.5l225 37v21q0 223 -240 223q-106 0 -174.5 -51t-87.5 -146h-188q21 161 148.5 256.5t308.5 95.5q95 0 169.5 -20.5t132.5 -64.5t89 -120t30 -180l-4 -479q0 -33 11 -221h-181l-2 160q-109 -183 -352 -183 q-101 0 -186 34t-141 108.5t-56 177.5zM279 305q0 -81 63.5 -125.5t163.5 -44.5q133 0 219 81.5t86 227.5v88q-101 -13 -170 -23.5t-133.5 -24.5t-103.5 -30t-69.5 -37.5t-43 -49t-12.5 -62.5zM365 1397q0 86 60.5 144t145.5 58q88 0 148.5 -57.5t60.5 -144.5 q0 -86 -62 -144.5t-147 -58.5q-88 0 -147 58t-59 145zM467 1397q0 -45 30 -76t74 -31q47 0 77 31t30 76t-31 75.5t-76 30.5t-74.5 -30.5t-29.5 -75.5z" />
<glyph unicode="&#xe6;" horiz-adv-x="1882" d="M88 301q0 78 30 135.5t83 94.5t135 59.5t175 31.5t214 9h80v74q0 225 -238 225q-105 0 -172 -51.5t-86 -145.5h-188q22 160 148 256t306 96q120 0 217.5 -48.5t131.5 -139.5q68 92 166.5 140t209.5 48q101 0 191 -36t160.5 -104.5t111.5 -177.5t41 -245v-47h-817 q12 -149 106 -241.5t226 -92.5q94 0 169 39.5t114 122.5h192q-29 -106 -105.5 -181.5t-172.5 -110t-203 -34.5q-123 0 -233.5 63.5t-176.5 170.5q-61 -109 -171.5 -171.5t-248.5 -62.5q-168 0 -281.5 85.5t-113.5 238.5zM279 307q0 -81 63 -126.5t160 -45.5q135 0 219 81.5 t84 229.5v31q-125 -1 -210 -6.5t-148.5 -17t-99 -31.5t-52 -47.5t-16.5 -67.5zM985 631h617q-7 132 -93.5 212.5t-212.5 80.5q-122 0 -210 -80t-101 -213z" />
<glyph unicode="&#xe7;" horiz-adv-x="1150" d="M80 539q0 118 41.5 220.5t112 173.5t167 111.5t203.5 40.5q120 0 224 -48t172.5 -137t82.5 -202h-190q-26 100 -105.5 158.5t-185.5 58.5q-142 0 -234 -105.5t-92 -270.5q0 -168 92.5 -280t233.5 -112q104 0 182.5 58t108.5 164h190q-24 -161 -140 -264.5t-277 -122.5 l-23 -72q12 2 29 2q58 0 101.5 -34.5t43.5 -106.5q0 -85 -57.5 -127.5t-165.5 -42.5q-67 0 -123 16v100q65 -14 111 -14q100 0 100 61q0 60 -86 60q-45 0 -86 -14h-14l41 172q-199 24 -328 175.5t-129 381.5z" />
<glyph unicode="&#xe8;" horiz-adv-x="1187" d="M80 539q0 124 43 228.5t115 173t165 106.5t195 38q103 0 194.5 -36t162.5 -104.5t113 -177.5t42 -245v-47h-834q13 -149 108.5 -241.5t231.5 -92.5q99 0 175 39.5t116 122.5h193q-29 -106 -106.5 -181.5t-175.5 -110t-208 -34.5t-206.5 39.5t-168.5 111t-113.5 178 t-41.5 233.5zM274 631h635q-9 132 -97 212.5t-218 80.5q-126 0 -216.5 -79.5t-103.5 -213.5zM362 1475h207l119 -263h-180z" />
<glyph unicode="&#xe9;" horiz-adv-x="1187" d="M80 539q0 124 43 228.5t115 173t165 106.5t195 38q103 0 194.5 -36t162.5 -104.5t113 -177.5t42 -245v-47h-834q13 -149 108.5 -241.5t231.5 -92.5q99 0 175 39.5t116 122.5h193q-29 -106 -106.5 -181.5t-175.5 -110t-208 -34.5t-206.5 39.5t-168.5 111t-113.5 178 t-41.5 233.5zM274 631h635q-9 132 -97 212.5t-218 80.5q-126 0 -216.5 -79.5t-103.5 -213.5zM506 1212l117 263h206l-143 -263h-180z" />
<glyph unicode="&#xea;" horiz-adv-x="1187" d="M80 539q0 124 43 228.5t115 173t165 106.5t195 38q103 0 194.5 -36t162.5 -104.5t113 -177.5t42 -245v-47h-834q13 -149 108.5 -241.5t231.5 -92.5q99 0 175 39.5t116 122.5h193q-29 -106 -106.5 -181.5t-175.5 -110t-208 -34.5t-206.5 39.5t-168.5 111t-113.5 178 t-41.5 233.5zM270 1212l234 263h184l232 -263h-179l-149 156l-143 -156h-179zM274 631h635q-9 132 -97 212.5t-218 80.5q-126 0 -216.5 -79.5t-103.5 -213.5z" />
<glyph unicode="&#xeb;" horiz-adv-x="1187" d="M80 539q0 124 43 228.5t115 173t165 106.5t195 38q103 0 194.5 -36t162.5 -104.5t113 -177.5t42 -245v-47h-834q13 -149 108.5 -241.5t231.5 -92.5q99 0 175 39.5t116 122.5h193q-29 -106 -106.5 -181.5t-175.5 -110t-208 -34.5t-206.5 39.5t-168.5 111t-113.5 178 t-41.5 233.5zM274 631h635q-9 132 -97 212.5t-218 80.5q-126 0 -216.5 -79.5t-103.5 -213.5zM311 1264v211h193v-211h-193zM690 1264v211h191v-211h-191z" />
<glyph unicode="&#xec;" horiz-adv-x="493" d="M14 1475h207l119 -263h-180zM152 0v1061h192v-1061h-192z" />
<glyph unicode="&#xed;" horiz-adv-x="493" d="M152 0v1061h192v-1061h-192zM156 1212l116 263h207l-143 -263h-180z" />
<glyph unicode="&#xee;" horiz-adv-x="493" d="M-78 1212l234 263h184l231 -263h-178l-149 156l-144 -156h-178zM152 0v1061h192v-1061h-192z" />
<glyph unicode="&#xef;" horiz-adv-x="493" d="M-18 1268v207h188v-207h-188zM152 0v1061h192v-1061h-192zM326 1268v207h188v-207h-188z" />
<glyph unicode="&#xf0;" horiz-adv-x="1210" d="M80 500q0 111 44.5 207.5t114.5 158.5t154 97.5t166 35.5q112 0 203 -43t151 -116q-29 111 -107.5 206t-197.5 164l-229 -143l-57 94l167 105q-119 47 -264 65l37 166q238 -39 406 -121l194 121l58 -92l-146 -90q344 -232 344 -752q0 -140 -41.5 -252.5t-113.5 -184.5 t-166 -110.5t-201 -38.5q-143 0 -261 67t-186.5 187t-68.5 269zM276 500q0 -153 94 -253t230 -100q135 0 226 97t92 254q0 146 -92.5 238.5t-227.5 92.5q-133 0 -227.5 -94.5t-94.5 -234.5z" />
<glyph unicode="&#xf1;" horiz-adv-x="1189" d="M152 0v1061h190v-146q51 80 135.5 125t192.5 45q179 0 281 -108t102 -313v-664h-193v641q0 131 -66.5 204t-181.5 73q-114 0 -191 -84.5t-77 -239.5v-594h-192zM260 1300q80 173 223 173q74 0 152 -62q66 -49 104 -49q30 0 54.5 21.5t50.5 70.5l112 -63q-39 -84 -97 -127 t-126 -43q-73 0 -151 59q-66 49 -105 49q-30 0 -54 -21t-50 -71z" />
<glyph unicode="&#xf2;" horiz-adv-x="1232" d="M80 539q0 120 42 223t114.5 173.5t170.5 110t209 39.5q230 0 383.5 -151t153.5 -395q0 -125 -42 -231t-115 -178t-171 -112.5t-209 -40.5q-150 0 -271 68t-193 197t-72 297zM276 539q0 -173 95.5 -282.5t244.5 -109.5q150 0 245 109t95 283q0 165 -96 270.5t-244 105.5 q-149 0 -244.5 -105t-95.5 -271zM383 1475h207l119 -263h-181z" />
<glyph unicode="&#xf3;" horiz-adv-x="1232" d="M80 539q0 120 42 223t114.5 173.5t170.5 110t209 39.5q230 0 383.5 -151t153.5 -395q0 -125 -42 -231t-115 -178t-171 -112.5t-209 -40.5q-150 0 -271 68t-193 197t-72 297zM276 539q0 -173 95.5 -282.5t244.5 -109.5q150 0 245 109t95 283q0 165 -96 270.5t-244 105.5 q-149 0 -244.5 -105t-95.5 -271zM526 1212l117 263h207l-143 -263h-181z" />
<glyph unicode="&#xf4;" horiz-adv-x="1232" d="M80 539q0 120 42 223t114.5 173.5t170.5 110t209 39.5q230 0 383.5 -151t153.5 -395q0 -125 -42 -231t-115 -178t-171 -112.5t-209 -40.5q-150 0 -271 68t-193 197t-72 297zM276 539q0 -173 95.5 -282.5t244.5 -109.5q150 0 245 109t95 283q0 165 -96 270.5t-244 105.5 q-149 0 -244.5 -105t-95.5 -271zM291 1212l233 263h185l231 -263h-178l-150 156l-143 -156h-178z" />
<glyph unicode="&#xf5;" horiz-adv-x="1232" d="M80 539q0 120 42 223t114.5 173.5t170.5 110t209 39.5q230 0 383.5 -151t153.5 -395q0 -125 -42 -231t-115 -178t-171 -112.5t-209 -40.5q-150 0 -271 68t-193 197t-72 297zM268 1300q80 173 224 173q73 0 151 -62q66 -49 105 -49q29 0 53.5 21.5t50.5 70.5l113 -63 q-39 -83 -97 -126.5t-127 -43.5q-73 0 -151 59q-66 49 -105 49q-30 0 -54 -21t-50 -71zM276 539q0 -173 95.5 -282.5t244.5 -109.5q150 0 245 109t95 283q0 165 -96 270.5t-244 105.5q-149 0 -244.5 -105t-95.5 -271z" />
<glyph unicode="&#xf6;" horiz-adv-x="1232" d="M80 539q0 120 42 223t114.5 173.5t170.5 110t209 39.5q230 0 383.5 -151t153.5 -395q0 -125 -42 -231t-115 -178t-171 -112.5t-209 -40.5q-150 0 -271 68t-193 197t-72 297zM276 539q0 -173 95.5 -282.5t244.5 -109.5q150 0 245 109t95 283q0 165 -96 270.5t-244 105.5 q-149 0 -244.5 -105t-95.5 -271zM332 1264v211h192v-211h-192zM711 1264v211h190v-211h-190z" />
<glyph unicode="&#xf7;" horiz-adv-x="1202" d="M102 625v163h998v-163h-998zM489 172v234h224v-234h-224zM489 1008v233h224v-233h-224z" />
<glyph unicode="&#xf8;" horiz-adv-x="1232" d="M63 -111l177 238q-160 157 -160 412q0 120 42 223t114.5 173.5t170.5 110t209 39.5q148 0 269 -65l108 151h176l-172 -235q156 -153 156 -397q0 -125 -42 -231t-115 -178t-171 -112.5t-209 -40.5q-146 0 -266 66l-110 -154h-177zM276 539q0 -148 76 -258l424 593 q-71 41 -160 41q-149 0 -244.5 -105t-95.5 -271zM457 186q73 -39 159 -39q150 0 245 109t95 283q0 145 -73 243z" />
<glyph unicode="&#xf9;" horiz-adv-x="1177" d="M137 391v670h193v-643q0 -131 66 -202t177 -71q108 0 184.5 82t76.5 230v604h192v-1061h-188v145q-50 -81 -132 -124.5t-188 -43.5q-173 0 -277 107.5t-104 306.5zM348 1475h207l119 -263h-180z" />
<glyph unicode="&#xfa;" horiz-adv-x="1177" d="M137 391v670h193v-643q0 -131 66 -202t177 -71q108 0 184.5 82t76.5 230v604h192v-1061h-188v145q-50 -81 -132 -124.5t-188 -43.5q-173 0 -277 107.5t-104 306.5zM492 1212l116 263h207l-143 -263h-180z" />
<glyph unicode="&#xfb;" horiz-adv-x="1177" d="M137 391v670h193v-643q0 -131 66 -202t177 -71q108 0 184.5 82t76.5 230v604h192v-1061h-188v145q-50 -81 -132 -124.5t-188 -43.5q-173 0 -277 107.5t-104 306.5zM258 1212l234 263h184l231 -263h-178l-149 156l-144 -156h-178z" />
<glyph unicode="&#xfc;" horiz-adv-x="1177" d="M137 391v670h193v-643q0 -131 66 -202t177 -71q108 0 184.5 82t76.5 230v604h192v-1061h-188v145q-50 -81 -132 -124.5t-188 -43.5q-173 0 -277 107.5t-104 306.5zM297 1264v211h192v-211h-192zM676 1264v211h190v-211h-190z" />
<glyph unicode="&#xfd;" horiz-adv-x="1021" d="M2 1061h207l315 -766l293 766h199l-578 -1450h-196l188 457zM418 1210l117 263h206l-143 -263h-180z" />
<glyph unicode="&#xfe;" horiz-adv-x="1265" d="M152 -389v1864h192v-572q45 81 136.5 131.5t217.5 50.5q101 0 189 -36t154.5 -103.5t104.5 -172.5t38 -234q0 -132 -39 -239.5t-106 -177t-155.5 -107.5t-189.5 -38q-120 0 -212.5 54t-137.5 139v-559h-192zM340 539q0 -184 93 -291t231 -107t228.5 107t90.5 291 q0 179 -90.5 281t-228.5 102q-142 0 -233 -101.5t-91 -281.5z" />
<glyph unicode="&#xff;" horiz-adv-x="1021" d="M2 1061h207l315 -766l293 766h199l-578 -1450h-196l188 457zM225 1262v211h193v-211h-193zM604 1262v211h191v-211h-191z" />
<glyph unicode="&#x152;" horiz-adv-x="2088" d="M88 725q0 138 39 254t109.5 199.5t169 141.5t216.5 86t252 28h1104v-177h-788v-423h733v-179h-733v-479h803v-176h-1119q-170 0 -311.5 44.5t-248.5 131.5t-166.5 227.5t-59.5 321.5zM303 725q0 -270 154 -409.5t415 -139.5h115v1081h-115q-260 0 -414.5 -136 t-154.5 -396z" />
<glyph unicode="&#x153;" horiz-adv-x="2033" d="M80 539q0 120 41.5 222.5t112.5 173t168 110.5t206 40q141 0 251 -65.5t173 -177.5q63 116 174.5 179.5t241.5 63.5q81 0 155.5 -22.5t138.5 -68.5t111 -112t74 -158.5t27 -201.5v-47h-819q13 -149 106 -241.5t225 -92.5q96 0 172 40t115 122h193q-30 -106 -107 -181.5 t-173.5 -110t-203.5 -34.5q-134 0 -250.5 69t-179.5 187q-61 -118 -173 -187t-251 -69q-109 0 -206 40t-168 112t-112.5 178.5t-41.5 231.5zM276 539q0 -173 94 -283.5t240 -110.5q143 0 236.5 110t93.5 284q0 165 -93.5 272t-236.5 107q-146 0 -240 -106.5t-94 -272.5z M1133 631h620q-9 132 -95.5 212.5t-213.5 80.5q-122 0 -210 -80t-101 -213z" />
<glyph unicode="&#x178;" horiz-adv-x="1241" d="M-8 1434h237l398 -689l397 689h225l-526 -893v-541h-205v541zM338 1620v211h192v-211h-192zM717 1620v211h190v-211h-190z" />
<glyph unicode="&#x2c6;" horiz-adv-x="710" d="M31 1212l233 263h185l231 -263h-178l-150 156l-143 -156h-178z" />
<glyph unicode="&#x2dc;" horiz-adv-x="802" d="M53 1300q80 173 223 173q74 0 152 -62q66 -49 104 -49q30 0 54.5 21.5t50.5 70.5l113 -63q-39 -83 -97 -126.5t-127 -43.5q-73 0 -151 59q-66 49 -105 49q-30 0 -54 -21t-50 -71z" />
<glyph unicode="&#x2000;" horiz-adv-x="978" />
<glyph unicode="&#x2001;" horiz-adv-x="1956" />
<glyph unicode="&#x2002;" horiz-adv-x="978" />
<glyph unicode="&#x2003;" horiz-adv-x="1956" />
<glyph unicode="&#x2004;" horiz-adv-x="652" />
<glyph unicode="&#x2005;" horiz-adv-x="489" />
<glyph unicode="&#x2006;" horiz-adv-x="326" />
<glyph unicode="&#x2007;" horiz-adv-x="326" />
<glyph unicode="&#x2008;" horiz-adv-x="244" />
<glyph unicode="&#x2009;" horiz-adv-x="391" />
<glyph unicode="&#x200a;" horiz-adv-x="108" />
<glyph unicode="&#x2010;" horiz-adv-x="905" d="M117 502v178h671v-178h-671z" />
<glyph unicode="&#x2011;" horiz-adv-x="905" d="M117 502v178h671v-178h-671z" />
<glyph unicode="&#x2012;" horiz-adv-x="905" d="M117 502v178h671v-178h-671z" />
<glyph unicode="&#x2013;" horiz-adv-x="1196" d="M98 483v179h998v-179h-998z" />
<glyph unicode="&#x2014;" horiz-adv-x="1951" d="M98 483v179h1753v-179h-1753z" />
<glyph unicode="&#x2018;" horiz-adv-x="505" d="M141 911v238q0 241 236 301v-131q-46 -16 -77.5 -51t-31.5 -80q0 -29 33 -29h64v-248h-224z" />
<glyph unicode="&#x2019;" horiz-adv-x="505" d="M129 895v131q46 16 77.5 51t31.5 80q0 29 -33 29h-64v248h224v-238q0 -241 -236 -301z" />
<glyph unicode="&#x201a;" horiz-adv-x="505" d="M129 -160q46 16 77.5 51t31.5 80q0 29 -33 29h-64v248h224v-238q0 -241 -236 -301v131z" />
<glyph unicode="&#x201c;" horiz-adv-x="913" d="M141 911v238q0 241 236 301v-131q-46 -16 -77.5 -51t-31.5 -80q0 -29 33 -29h64v-248h-224zM549 911v238q0 241 235 301v-131q-46 -16 -77 -51t-31 -80q0 -29 33 -29h63v-248h-223z" />
<glyph unicode="&#x201d;" horiz-adv-x="913" d="M129 895v131q46 16 77.5 51t31.5 80q0 29 -33 29h-64v248h224v-238q0 -241 -236 -301zM537 895v131q46 16 77 51t31 80q0 29 -33 29h-63v248h223v-238q0 -241 -235 -301z" />
<glyph unicode="&#x201e;" horiz-adv-x="913" d="M129 -160q46 16 77.5 51t31.5 80q0 29 -33 29h-64v248h224v-238q0 -241 -236 -301v131zM537 -160q46 16 77 51t31 80q0 29 -33 29h-63v248h223v-238q0 -241 -235 -301v131z" />
<glyph unicode="&#x2022;" horiz-adv-x="757" d="M135 623q0 103 71.5 174t172.5 71q102 0 174 -71.5t72 -173.5t-72 -174t-174 -72q-101 0 -172.5 71.5t-71.5 174.5z" />
<glyph unicode="&#x2026;" horiz-adv-x="1517" d="M141 0v248h224v-248h-224zM647 0v248h223v-248h-223zM1153 0v248h223v-248h-223z" />
<glyph unicode="&#x202f;" horiz-adv-x="391" />
<glyph unicode="&#x2039;" horiz-adv-x="647" d="M84 539l266 389h185l-234 -385l234 -389h-185z" />
<glyph unicode="&#x203a;" horiz-adv-x="647" d="M113 154l233 385l-233 389h184l266 -385l-266 -389h-184z" />
<glyph unicode="&#x205f;" horiz-adv-x="489" />
<glyph unicode="&#x20ac;" horiz-adv-x="1585" d="M123 473v143h219q-4 62 -4 93q0 30 4 92h-219v145h242q55 230 208 358t359 128q207 0 354 -112t184 -316h-186q-33 127 -124 192.5t-228 65.5t-232.5 -82t-136.5 -234h404v-145h-428q-4 -58 -4 -92q0 -35 4 -93h428v-143h-406q40 -155 135.5 -240.5t235.5 -85.5 q132 0 224.5 71t129.5 198h187q-43 -203 -187 -319.5t-354 -116.5t-362.5 130.5t-207.5 362.5h-239z" />
<glyph unicode="&#x2122;" horiz-adv-x="1497" d="M61 1331v103h494v-103h-188v-479h-117v479h-189zM678 852v582h186l156 -437l154 437h180v-582h-113v473l-172 -473h-108l-170 473v-473h-113z" />
<glyph unicode="&#x25fc;" horiz-adv-x="1064" d="M0 0v1065h1065v-1065h-1065z" />
</font>
</defs>
</svg>
