<?xml version="1.0" standalone="no"?>
<!DOCTYPE svg PUBLIC "-//W3C//DTD SVG 1.1//EN" "http://www.w3.org/Graphics/SVG/1.1/DTD/svg11.dtd" >
<svg xmlns="http://www.w3.org/2000/svg" xmlns:xlink="http://www.w3.org/1999/xlink" version="1.1">
<metadata></metadata>
<defs>
<font id="district_book_italicBkIt" horiz-adv-x="1118" >
<font-face units-per-em="2048" ascent="1638" descent="-410" />
<missing-glyph horiz-adv-x="600" />
<glyph unicode="&#xfb01;" horiz-adv-x="1099" d="M238 0l192 901h-168l29 129h166l35 162q27 133 114 202.5t209 69.5q44 0 91 -10.5t69 -32.5l-29 -139q-38 53 -121 53q-36 0 -64.5 -9.5t-47.5 -30t-31.5 -40.5t-21.5 -54t-13.5 -56t-10.5 -60.5t-9 -54.5h549l-220 -1030h-170l191 901h-379l-190 -901h-170z" />
<glyph unicode="&#xfb02;" horiz-adv-x="1122" d="M238 0l190 901h-168l29 129h166l34 162q28 134 109.5 203t194.5 69q101 0 139 -43l-29 -139q-33 53 -100 53q-57 0 -96 -35.5t-52 -107.5l-30 -162h233l-29 -129h-233l-190 -901h-168zM805 0l307 1440h172l-307 -1440h-172z" />
<glyph horiz-adv-x="0" />
<glyph horiz-adv-x="682" />
<glyph unicode=" "  horiz-adv-x="600" />
<glyph unicode="&#x09;" horiz-adv-x="600" />
<glyph unicode="&#xa0;" horiz-adv-x="600" />
<glyph unicode="!" horiz-adv-x="505" d="M160 90q0 46 33 78.5t79 32.5t78.5 -32.5t32.5 -78.5t-32.5 -79.5t-78.5 -33.5t-79 33.5t-33 79.5zM274 383l39 336l154 721h172l-154 -721l-104 -336h-107z" />
<glyph unicode="&#x22;" horiz-adv-x="788" d="M338 834l70 598q3 25 35 37t75 12h2h2q90 0 90 -43q0 -6 -2 -8l-184 -596h-88zM715 834l71 598q3 25 35.5 37t75.5 12h2q90 0 90 -43v-8l-186 -596h-88z" />
<glyph unicode="#" horiz-adv-x="1445" d="M236 432l30 143h269l65 312h-270l30 143h271l88 410h158l-89 -410h295l86 410h160l-88 -410h281l-31 -143h-281l-67 -312h282l-30 -143h-281l-92 -432h-160l92 432h-292l-95 -432h-155l92 432h-268zM690 573h295l68 316h-295z" />
<glyph unicode="$" horiz-adv-x="1241" d="M166 283l141 96q62 -236 346 -236q72 0 142.5 18t131 53t97.5 93.5t37 132.5q0 37 -16.5 67.5t-41 52t-73.5 45t-92 39.5t-119 42q-167 56 -251.5 145t-84.5 203q0 77 26 141.5t70.5 110t105 78.5t127.5 50.5t140 23.5l20 100h156l-22 -102q240 -31 362 -226l-131 -98 q-111 180 -344 180q-63 0 -119.5 -12t-107.5 -38t-81 -74.5t-30 -114.5q0 -73 57 -123.5t185 -93.5q55 -18 94 -33t88.5 -37t84 -43t70 -50.5t57 -61t35 -72t13.5 -86.5q0 -101 -45.5 -184.5t-121.5 -137.5t-166 -86.5t-187 -42.5l-25 -111h-153l22 107q-152 11 -255 82 t-142 203z" />
<glyph unicode="%" horiz-adv-x="1933" d="M299 860q0 79 18 161.5t55.5 161t90 140.5t127 99.5t160.5 37.5q56 0 100.5 -17t72.5 -45.5t47 -69t26.5 -84.5t7.5 -95q0 -101 -29.5 -204.5t-83.5 -194t-143 -148t-197 -57.5q-125 0 -188.5 87t-63.5 228zM440 858q0 -85 32 -139.5t108 -54.5q67 0 123.5 51.5t89.5 128 t51 155t18 142.5q0 88 -32 145t-107 57q-66 0 -122 -52.5t-90 -130t-52.5 -158t-18.5 -144.5zM498 -18l1118 1497l133 -17l-1120 -1499zM1235 293q0 100 29.5 203t84 193t143.5 147t196 57q56 0 100 -17t72 -45.5t46 -69t25.5 -84.5t7.5 -95q0 -80 -17.5 -162.5t-55 -161.5 t-89.5 -141t-127 -99.5t-161 -37.5q-126 0 -190 86t-64 227zM1376 291q0 -86 32.5 -140.5t107.5 -54.5q68 0 124.5 51.5t89.5 128t50.5 155.5t17.5 144q0 201 -137 201q-53 0 -100.5 -35t-80.5 -89.5t-57 -120.5t-35.5 -128t-11.5 -112z" />
<glyph unicode="&#x26;" horiz-adv-x="1318" d="M178 340q0 131 90 247.5t262 176.5l-63 92q-49 70 -49 168q0 80 34.5 157t98.5 142t168 105t231 40q76 0 142 -15t109.5 -35.5t86 -56t64.5 -60.5t53 -64l-137 -107q-59 98 -134.5 143.5t-193.5 45.5q-77 -1 -143.5 -27t-109.5 -67.5t-67 -91t-24 -99.5q0 -48 27 -92 l417 -647q48 58 58 125h164q-12 -67 -48 -135.5t-88 -120.5l107 -164h-193l-43 66q-166 -93 -376 -93q-106 0 -191.5 30.5t-139.5 82t-83 117t-29 137.5zM360 362q0 -99 79 -169t214 -70q152 0 262 63q-17 25 -137 205t-172 256q-122 -44 -184 -121t-62 -164z" />
<glyph unicode="'" horiz-adv-x="411" d="M338 834l70 598q3 25 35 37t75 12h2h2q90 0 90 -43q0 -6 -2 -8l-184 -596h-88z" />
<glyph unicode="(" horiz-adv-x="684" d="M213 403q0 357 192.5 686.5t499.5 532.5l45 -84q-271 -241 -420 -535.5t-149 -635.5q0 -173 45.5 -337.5t132.5 -289.5l-67 -66q-138 128 -208.5 321.5t-70.5 407.5z" />
<glyph unicode=")" horiz-adv-x="684" d="M8 -246q271 241 420.5 535t149.5 633q0 175 -45.5 339.5t-133.5 288.5l68 68q137 -127 207.5 -320.5t70.5 -408.5q0 -356 -192 -685t-500 -534z" />
<glyph unicode="*" horiz-adv-x="833" d="M317 1010l275 94l-230 90l66 113l197 -138l39 271h122l-75 -264l245 133l31 -109l-262 -98l217 -101l-70 -108l-190 145l-39 -274h-123l74 266l-248 -131z" />
<glyph unicode="+" horiz-adv-x="1314" d="M225 571l31 150h477l103 481h153l-102 -481h479l-31 -150h-479l-102 -481h-154l102 481h-477z" />
<glyph unicode="," horiz-adv-x="446" d="M2 -229l207 419h194l-276 -444z" />
<glyph unicode="-" horiz-adv-x="727" d="M236 625l34 163h523l-35 -163h-522z" />
<glyph unicode="." horiz-adv-x="382" d="M98 90q0 46 33 78.5t80 32.5q46 0 78.5 -32.5t32.5 -78.5t-32.5 -78t-78.5 -32q-47 0 -80 32t-33 78z" />
<glyph unicode="/" horiz-adv-x="980" d="M20 -92l1045 1624h184l-1042 -1624h-187z" />
<glyph unicode="0" horiz-adv-x="1275" d="M225 475q0 106 20.5 218.5t59.5 223.5t101 209.5t139.5 174t181.5 119.5t221 44q105 0 185 -38t128 -106.5t71.5 -156.5t23.5 -194q0 -128 -28 -263.5t-88 -266.5t-143 -234t-203 -166.5t-259 -63.5q-199 0 -304.5 137t-105.5 363zM401 465q0 -71 13 -129t41.5 -108 t81.5 -77.5t127 -27.5q87 0 163.5 41.5t131.5 111t98.5 157t69.5 183.5t39.5 185.5t13.5 167.5q0 165 -65.5 257.5t-194.5 92.5q-103 0 -191.5 -60t-147 -154t-100.5 -209.5t-61 -226t-19 -204.5z" />
<glyph unicode="1" horiz-adv-x="784" d="M379 1112l27 125q262 8 327 203h152l-305 -1440h-174l241 1141q-22 -11 -101.5 -19t-146.5 -10h-2h-2h-6h-10z" />
<glyph unicode="2" horiz-adv-x="1167" d="M102 0q19 78 68 156.5t95.5 132.5t138.5 128t136 104.5t148 101.5l57 39q144 98 198 147q157 140 157 303q0 99 -66 153t-186 54q-115 0 -216 -70t-147 -153l-123 84q79 125 209 204.5t289 79.5q192 0 300 -91.5t108 -244.5q0 -82 -26 -157.5t-63.5 -132t-100 -115 t-115.5 -97.5t-129 -89q-228 -151 -326 -228.5t-148 -156.5h727l-32 -152h-953z" />
<glyph unicode="3" horiz-adv-x="1200" d="M145 299l146 76q16 -130 98 -191t211 -61q170 0 284.5 95t114.5 259q0 201 -294 201h-158l31 141h143q75 0 141.5 18t120.5 54t85.5 96.5t31.5 138.5q0 89 -62 143t-188 54q-109 0 -206.5 -67.5t-145.5 -157.5l-125 78q171 290 499 290q173 0 286.5 -82t113.5 -231 q0 -162 -84.5 -269t-239.5 -139q109 -13 168.5 -83t59.5 -183q0 -97 -33 -180t-90.5 -142t-134.5 -100.5t-164.5 -61.5t-180.5 -20q-181 0 -299 91q-104 82 -129 233z" />
<glyph unicode="4" horiz-adv-x="1275" d="M176 344l29 139l891 957h200l-53 -246l-149 -709h200l-30 -141h-201l-74 -344h-168l74 344h-719zM399 485h525l155 727z" />
<glyph unicode="5" horiz-adv-x="1234" d="M156 250l135 88q71 -217 313 -217q194 0 319.5 133t125.5 326q0 111 -65.5 173t-192.5 62q-95 0 -184 -43.5t-161 -130.5l-145 41l225 758h817l-32 -154h-670l-152 -452q143 124 345 124q186 0 289.5 -98.5t103.5 -265.5q0 -180 -84.5 -322t-231 -219.5t-327.5 -77.5 q-103 0 -189.5 29t-151.5 92t-87 154z" />
<glyph unicode="6" horiz-adv-x="1239" d="M211 424q0 111 25.5 230t72.5 234.5t119 218.5t159 181t199 124t234 46q86 0 163 -24.5t117 -59.5l-94 -117q-66 45 -190 56h-4h-2q-194 1 -343.5 -150t-224.5 -387q155 152 410 152q186 0 298 -101t112 -268q0 -170 -82.5 -304t-222 -206t-310.5 -72q-116 0 -202 35.5 t-136 98.5t-74 141t-24 172zM375 399q0 -53 15.5 -100t47.5 -87.5t89.5 -64.5t134.5 -24q180 0 301.5 121.5t121.5 300.5q0 115 -73.5 178t-204.5 63q-112 0 -210.5 -48t-160 -138t-61.5 -201z" />
<glyph unicode="7" horiz-adv-x="1157" d="M354 1284l33 156h952l-30 -150q-304 -304 -486 -610.5t-284 -679.5h-183q90 337 290 673.5t468 610.5h-760z" />
<glyph unicode="8" horiz-adv-x="1265" d="M178 326q0 164 97.5 278.5t263.5 173.5q-73 34 -114.5 98t-41.5 148q0 107 47.5 193.5t126 139.5t174.5 81t199 28q193 0 306.5 -86t113.5 -227q0 -135 -80 -240.5t-211 -148.5q92 -35 146.5 -109.5t54.5 -177.5q0 -122 -53 -220t-141.5 -158.5t-197 -92t-227.5 -31.5 q-216 0 -339.5 97.5t-123.5 253.5zM354 346q0 -102 78.5 -163.5t226.5 -61.5q79 0 154 22t136.5 63.5t98.5 108.5t37 150q0 106 -84 166.5t-223 60.5q-105 0 -200 -38t-159.5 -119t-64.5 -189zM553 1030q0 -87 68.5 -141.5t193.5 -54.5q90 0 171 32.5t136.5 102t55.5 161.5 q0 95 -74 144t-189 51q-89 0 -170 -32.5t-136.5 -101.5t-55.5 -161z" />
<glyph unicode="9" horiz-adv-x="1249" d="M256 66l92 116q68 -46 193 -57h4h2q192 -1 342 151t223 386q-155 -152 -410 -152q-186 0 -296.5 100.5t-110.5 268.5q0 170 82 303.5t221.5 205.5t310.5 72q116 0 202.5 -35.5t136.5 -98t74 -140t24 -170.5q0 -111 -25.5 -230.5t-72.5 -235t-119.5 -219t-160 -181.5 t-199.5 -124t-234 -46q-86 0 -162.5 24.5t-116.5 61.5zM469 893q0 -115 74.5 -178.5t204.5 -63.5q113 0 212 48.5t160.5 138.5t61.5 200q0 53 -15.5 100t-47.5 88t-90 65t-134 24q-182 0 -304 -121t-122 -301z" />
<glyph unicode=":" horiz-adv-x="423" d="M119 90q0 46 32.5 78.5t79.5 32.5q46 0 78.5 -32.5t32.5 -78.5t-32.5 -78t-78.5 -32q-47 0 -79.5 32t-32.5 78zM297 920q0 46 32.5 79t78.5 33t79 -33t33 -79t-33 -78.5t-79 -32.5t-78.5 32.5t-32.5 78.5z" />
<glyph unicode=";" horiz-adv-x="432" d="M2 -229l207 419h194l-276 -444zM305 920q0 46 32.5 79t78.5 33t79 -33t33 -79t-33 -78.5t-79 -32.5t-78.5 32.5t-32.5 78.5z" />
<glyph unicode="&#x3c;" horiz-adv-x="1124" d="M217 639l33 154l1085 583l-43 -202l-905 -472l703 -479l-37 -170z" />
<glyph unicode="=" horiz-adv-x="1320" d="M180 369l33 149h1116l-31 -149h-1118zM268 780l33 152h1116l-33 -152h-1116z" />
<glyph unicode="&#x3e;" horiz-adv-x="1124" d="M92 53l43 201l905 471l-702 481l37 170l835 -585l-30 -156z" />
<glyph unicode="?" horiz-adv-x="1077" d="M334 1176q59 91 127.5 152.5t165 98.5t213.5 37q176 0 285.5 -85t109.5 -228q0 -55 -12 -104t-38 -91t-53.5 -75.5t-71 -69t-78 -59.5t-87.5 -58q-86 -56 -122.5 -90t-57.5 -80.5t-43 -142.5h-166q27 118 55.5 183t82.5 122t157 123q39 25 53.5 34.5t50.5 35t52 41 t41.5 43.5t37.5 51.5t21.5 55.5t9.5 65q0 81 -62.5 134.5t-177.5 53.5q-119 0 -205 -52t-165 -173zM434 88q0 46 33 79.5t80 33.5q45 0 77.5 -33.5t32.5 -79.5t-32 -78.5t-78 -32.5q-47 0 -80 32.5t-33 78.5z" />
<glyph unicode="@" horiz-adv-x="1681" d="M231 598q0 173 64 330.5t174.5 274t267.5 185t334 68.5q151 0 278 -50.5t214 -137.5t135.5 -207t48.5 -258q0 -249 -113 -411.5t-274 -162.5q-157 0 -193 144q-111 -125 -282 -125q-104 0 -180 87.5t-76 229.5q0 123 59.5 246.5t163 206t217.5 82.5q92 0 151 -34.5 t97 -109.5l39 105h137q0 -3 -12.5 -49t-57 -196.5t-110.5 -360.5q-8 -21 -8 -49q0 -76 79 -76q61 0 112 52.5t81 129.5t46.5 154.5t16.5 136.5q0 250 -158 402.5t-415 152.5q-151 0 -286.5 -58.5t-233 -159.5t-154.5 -242t-57 -300q0 -150 52 -272t142 -201t208.5 -121.5 t252.5 -42.5q254 0 486 180l49 -82q-249 -196 -533 -196q-118 0 -229 30t-208 91.5t-169.5 147.5t-114 206t-41.5 260zM784 590q0 -100 41.5 -157.5t118.5 -57.5q66 0 126 42.5t99 107t61.5 137t22.5 135.5q0 170 -163 170q-73 0 -145.5 -59t-116.5 -147t-44 -171z" />
<glyph unicode="A" horiz-adv-x="1380" d="M61 0l852 1440h174l232 -1440h-178l-56 383h-604l-217 -383h-203zM563 528h502l-100 709z" />
<glyph unicode="B" horiz-adv-x="1333" d="M143 0l306 1440h587q167 0 267 -77.5t100 -215.5q0 -139 -79 -237t-222 -136q97 -24 158 -101.5t61 -189.5q0 -483 -672 -483h-506zM356 154h355q426 0 426 329q0 58 -24 100t-67.5 65.5t-94.5 34.5t-113 11h-367zM502 844h354q72 0 134 15.5t114 47.5t82.5 89t30.5 132 q0 160 -240 160h-381z" />
<glyph unicode="C" horiz-adv-x="1343" d="M231 528q0 136 34.5 271t103 255.5t162.5 213.5t223 147.5t274 54.5q193 0 312.5 -101.5t154.5 -270.5l-162 -58q-27 127 -107 201t-222 74q-90 0 -172 -36t-145 -97t-115 -141t-85 -168.5t-51 -178.5t-18 -172q0 -178 82.5 -286.5t247.5 -108.5q113 0 214 58t173 155 l137 -100q-222 -271 -553 -271q-125 0 -221.5 46t-153 125t-85 177t-28.5 211z" />
<glyph unicode="D" horiz-adv-x="1357" d="M143 0l306 1440h432q277 0 417 -130t140 -374q0 -160 -35.5 -301.5t-108 -258t-176 -200.5t-245 -130t-308.5 -46h-422zM358 156h230q168 1 298.5 63t209.5 169.5t119 244.5t40 297q0 178 -99.5 266t-305.5 88h-252z" />
<glyph unicode="E" horiz-adv-x="1150" d="M143 0l306 1440h927l-33 -156h-747l-96 -455h563l-33 -153h-563l-111 -520h787l-33 -156h-967z" />
<glyph unicode="F" horiz-adv-x="1101" d="M143 0l306 1440h919l-33 -154h-741l-96 -457h555l-31 -151h-557l-143 -678h-179z" />
<glyph unicode="G" horiz-adv-x="1423" d="M231 522q0 136 34.5 271.5t103.5 257t163 215.5t222 149t272 55q105 0 190.5 -32t141 -87t90 -118t49.5 -135l-166 -58q-11 41 -24 75t-38 73.5t-57.5 66t-83.5 44.5t-114 18q-92 0 -175.5 -34.5t-148 -94t-117.5 -137.5t-86.5 -165t-52 -177t-18.5 -174t18.5 -156 t56 -130t102 -91t150.5 -33q174 0 327 131.5t208 331.5h-395l32 151h572l-25 -116q-21 -98 -64 -191.5t-110 -177.5t-149 -147.5t-188 -100.5t-220 -37q-126 0 -223.5 44t-157 121t-89.5 175t-30 213z" />
<glyph unicode="H" horiz-adv-x="1402" d="M143 0l306 1440h180l-133 -619h757l131 619h181l-305 -1440h-181l142 666h-758l-141 -666h-179z" />
<glyph unicode="I" horiz-adv-x="466" d="M143 0l306 1440h180l-305 -1440h-181z" />
<glyph unicode="J" horiz-adv-x="1071" d="M104 319v33l164 51q-2 -14 -2 -43q0 -116 52.5 -176.5t179.5 -60.5q76 0 138.5 32t104.5 88t69.5 120.5t43.5 140.5l199 936h180l-191 -899q-23 -106 -52 -187.5t-75 -155t-105.5 -121.5t-144 -76t-190.5 -28q-179 0 -275 87.5t-96 258.5z" />
<glyph unicode="K" horiz-adv-x="1335" d="M143 0l306 1440h180l-156 -735l813 735h242l-643 -570l356 -870h-190l-303 750l-326 -289l-98 -461h-181z" />
<glyph unicode="L" horiz-adv-x="1101" d="M143 0l308 1440h182l-273 -1282h734l-33 -158h-918z" />
<glyph unicode="M" horiz-adv-x="1593" d="M143 0l306 1440h206l209 -1110l670 1110h221l-305 -1440h-180l233 1096l-667 -1096h-62l-217 1106l-233 -1106h-181z" />
<glyph unicode="N" horiz-adv-x="1400" d="M143 0l306 1440h180l504 -1178l251 1178h179l-306 -1440h-180l-504 1180l-249 -1180h-181z" />
<glyph unicode="O" horiz-adv-x="1441" d="M231 522q0 139 34 275t102.5 257t163 214t225 147.5t278.5 54.5q125 0 220 -41t152.5 -113.5t86.5 -166.5t29 -207q0 -114 -24 -229.5t-69.5 -224t-115.5 -203t-156.5 -165t-199 -111t-236.5 -40.5q-101 0 -183.5 29.5t-139 80.5t-94.5 122t-55.5 151t-17.5 170zM416 520 q0 -85 19 -155t57.5 -124t102.5 -84t148 -30q108 0 204.5 51t165.5 134t119.5 187t75.5 212.5t25 208.5q0 85 -18.5 154.5t-56 124.5t-101 85.5t-147.5 30.5q-110 0 -208 -50.5t-167 -133t-119.5 -187t-75 -213.5t-24.5 -211z" />
<glyph unicode="P" horiz-adv-x="1251" d="M143 0l306 1440h548q223 0 334 -87.5t111 -236.5q0 -165 -81 -284.5t-219 -178.5t-317 -59h-379l-124 -594h-179zM479 743h359q119 0 213 38t152.5 120.5t58.5 200.5q0 57 -23.5 95.5t-69 58t-97.5 27t-124 7.5h-352z" />
<glyph unicode="Q" horiz-adv-x="1445" d="M231 510q0 115 24 230.5t69 222.5t115 199t156.5 161t199 108t237.5 39t221 -42t153.5 -116t86.5 -169.5t29 -208.5q0 -253 -122.5 -496.5t-328.5 -367.5l68 -136l-158 -77l-70 141q-98 -29 -194 -29q-125 0 -220.5 43t-152.5 118.5t-85 171t-28 208.5zM418 522 q0 -85 19 -155.5t57.5 -124.5t102.5 -84.5t148 -30.5q58 0 97 8l-72 146l158 77l73 -149q150 101 241 306t91 403q0 84 -18.5 154.5t-56.5 125.5t-102 86t-148 31q-110 0 -207 -50.5t-165.5 -132.5t-119 -186.5t-74.5 -213t-24 -210.5z" />
<glyph unicode="R" horiz-adv-x="1275" d="M143 0l306 1440h534q230 0 344.5 -89t114.5 -239q0 -209 -130 -337t-351 -152l249 -623h-190l-242 612h-327l-129 -612h-179zM483 760h365q118 0 210 36.5t148 115.5t56 192q0 44 -15.5 77t-42 53.5t-67.5 33t-86 17.5t-103 5h-352z" />
<glyph unicode="S" horiz-adv-x="1202" d="M158 268l137 94q33 -127 117.5 -185t228.5 -58q71 0 142 20t131.5 57t98.5 98.5t38 137.5q0 93 -80 149.5t-260 118.5q-334 120 -334 351q0 86 30 157t80.5 119t119.5 81t145 47.5t159 14.5q158 0 270.5 -66.5t176.5 -174.5l-131 -101q-56 96 -136.5 143.5t-201.5 47.5 q-65 0 -123.5 -13.5t-110.5 -41.5t-83 -79t-31 -118q0 -74 59 -127t188 -98q54 -19 93.5 -34.5t88.5 -38t83.5 -44.5t69.5 -52.5t57 -63.5t35.5 -75.5t13.5 -89.5q0 -95 -36 -175t-96.5 -134.5t-140.5 -92.5t-167 -55.5t-177 -17.5q-173 0 -292 74t-162 225z" />
<glyph unicode="T" horiz-adv-x="1128" d="M313 1286l33 154h1047l-33 -154h-434l-273 -1286h-180l277 1286h-437z" />
<glyph unicode="U" horiz-adv-x="1310" d="M217 367q0 120 39 305l164 768h180l-182 -854q-27 -147 -27 -211q0 -118 62 -183t211 -65q384 0 475 440l186 873h178l-160 -758q-19 -91 -40 -165t-52.5 -149.5t-68.5 -133t-89 -109t-114.5 -85t-144.5 -52.5t-179 -19q-100 0 -176 19.5t-125 54t-80.5 85.5t-44 109 t-12.5 130z" />
<glyph unicode="V" horiz-adv-x="1380" d="M367 1440h178l178 -1237l700 1237h201l-852 -1440h-174z" />
<glyph unicode="W" horiz-adv-x="1802" d="M367 1440h176l16 -1188l555 1188h168l57 -1188l514 1188h193l-662 -1440h-174l-61 1171l-555 -1171h-178z" />
<glyph unicode="X" horiz-adv-x="1353" d="M61 0l672 772l-291 668h193l225 -551l461 551h223l-602 -692l330 -748h-191l-262 631l-534 -631h-224z" />
<glyph unicode="Y" horiz-adv-x="1296" d="M336 1440h188l258 -707l568 707h221l-725 -871l-121 -569h-178l123 578z" />
<glyph unicode="Z" horiz-adv-x="1212" d="M72 0l28 131l1082 1153h-791l33 156h1024l-31 -140l-1075 -1148h825l-30 -152h-1065z" />
<glyph unicode="[" horiz-adv-x="622" d="M84 -276l399 1880h398l-27 -134h-240l-342 -1615h238l-29 -131h-397z" />
<glyph unicode="\" horiz-adv-x="919" d="M356 1532h162l348 -1624h-159z" />
<glyph unicode="]" horiz-adv-x="622" d="M23 -276l28 131h238l344 1615h-238l27 132h397l-399 -1878h-397z" />
<glyph unicode="^" horiz-adv-x="1198" d="M301 743l545 697h127l239 -697h-168l-165 500l-381 -500h-197z" />
<glyph unicode="_" horiz-adv-x="1024" d="M-72 -289l27 123h1044l-26 -123h-1045z" />
<glyph unicode="`" horiz-adv-x="729" d="M461 1487h227l150 -305h-115z" />
<glyph unicode="a" d="M156 227q0 82 39 158t108 134t172.5 93t224.5 35q93 0 201 -24q1 5 8 37.5t12.5 60.5t6.5 35q4 24 4 30q0 61 -48.5 95t-129.5 34q-84 0 -161.5 -39.5t-139.5 -117.5l-109 90q79 103 193 155t241 52q143 0 233.5 -66.5t90.5 -183.5q0 -33 -8 -64l-125 -598q-4 -16 -4 -20 q0 -31 39 -31h30l-18 -92h-148q-35 0 -57.5 18.5t-22.5 55.5q0 2 5 32l6 23q-65 -72 -161 -113t-196 -41q-125 0 -205.5 66t-80.5 186zM309 250q0 -63 45.5 -98t116.5 -35q91 0 196.5 56t170.5 153l34 163q-39 27 -167 27q-165 0 -280.5 -77t-115.5 -189z" />
<glyph unicode="b" d="M143 0l306 1440h169l-114 -541q66 76 153.5 115t180.5 39q145 0 227 -100.5t82 -274.5q0 -119 -34.5 -240t-98.5 -225t-168.5 -170t-231.5 -66q-185 0 -272 156l-29 -133h-170zM379 311q25 -95 87.5 -141.5t141.5 -46.5q73 0 134.5 36.5t102 94.5t69 131.5t41 145.5 t12.5 139q0 115 -50 177t-147 62q-103 0 -188 -76.5t-133 -189.5z" />
<glyph unicode="c" horiz-adv-x="1019" d="M193 365q0 128 39.5 250.5t111.5 221t184.5 158.5t247.5 60q237 0 344 -201l-133 -80q-66 135 -215 135q-91 0 -169 -52t-127.5 -133.5t-77 -175t-27.5 -181.5q0 -248 213 -248q154 0 282 143l121 -86q-29 -36 -64 -67t-86.5 -63.5t-120.5 -51.5t-147 -19 q-184 0 -280 110t-96 280z" />
<glyph unicode="d" horiz-adv-x="1116" d="M193 352q0 77 15 157.5t43.5 159.5t74.5 148.5t102.5 122.5t132 84t160.5 31q181 0 274 -154l115 539h170l-307 -1440h-170l26 129q-146 -152 -327 -152q-146 0 -227.5 101.5t-81.5 273.5zM371 358q0 -114 49 -174.5t145 -60.5t181 70t135 178l73 342q-23 96 -83 146 t-142 50q-90 0 -161.5 -55t-112.5 -140.5t-62.5 -177.5t-21.5 -178z" />
<glyph unicode="e" horiz-adv-x="1095" d="M195 375q0 126 38.5 246t108.5 217t180 156t242 59q177 0 273 -104t96 -271q0 -114 -31 -199h-723q-12 -61 -12 -117q0 -111 51.5 -177t165.5 -66q168 0 338 151l102 -98q-184 -197 -463 -197q-94 0 -166 32t-115 88t-64 126.5t-21 153.5zM397 608h561q5 62 5 70 q0 235 -211 235q-110 0 -209.5 -81.5t-145.5 -223.5z" />
<glyph unicode="f" horiz-adv-x="710" d="M238 0l190 901h-168l29 129h166l34 162q28 134 109.5 203t194.5 69q101 0 139 -43l-29 -139q-33 53 -100 53q-57 0 -96 -35.5t-52 -107.5l-30 -162h233l-29 -129h-233l-190 -901h-168z" />
<glyph unicode="g" horiz-adv-x="1136" d="M102 -236l134 84q85 -141 235 -141q127 0 232 97t137 251l16 74q-137 -152 -336 -152q-147 0 -228 107t-81 285q0 94 21 189.5t66 184.5t107 158t151 110.5t192 41.5q185 0 270 -152l26 125h170l-206 -979q-33 -156 -117.5 -268t-196 -165.5t-239.5 -53.5 q-113 0 -206 53.5t-147 150.5zM385 358q0 -114 50.5 -175.5t150.5 -61.5q101 0 185.5 73t135.5 183q24 120 72 336q-22 97 -86 146.5t-145 49.5q-74 0 -136 -36.5t-103 -95t-69.5 -132t-41.5 -146.5t-13 -141z" />
<glyph unicode="h" horiz-adv-x="1097" d="M143 0l306 1440h172l-115 -537q129 152 319 152q149 0 220 -76.5t71 -212.5q0 -74 -18 -156l-129 -610h-172l129 612q16 75 16 129q0 166 -168 166q-124 0 -218 -104t-128 -271l-113 -532h-172z" />
<glyph unicode="i" horiz-adv-x="493" d="M166 0l219 1030h172l-219 -1030h-172zM430 1350q0 43 31.5 73.5t75.5 30.5q43 0 73.5 -30.5t30.5 -73.5q0 -44 -30.5 -75.5t-73.5 -31.5q-44 0 -75.5 31.5t-31.5 75.5z" />
<glyph unicode="j" horiz-adv-x="538" d="M-68 -399l45 127q37 -29 78 -29q127 0 160 151l246 1180h168l-250 -1186q-30 -138 -118 -208t-193 -70q-77 0 -136 35zM477 1350q0 43 31 73.5t74 30.5t74.5 -30.5t31.5 -73.5q0 -44 -31.5 -75.5t-74.5 -31.5t-74 31.5t-31 75.5z" />
<glyph unicode="k" horiz-adv-x="1052" d="M143 0l306 1440h172l-193 -901l530 491h222l-439 -395l246 -635h-176l-199 518l-233 -211l-66 -307h-170z" />
<glyph unicode="l" horiz-adv-x="460" d="M143 0l308 1440h172l-308 -1440h-172z" />
<glyph unicode="m" horiz-adv-x="1669" d="M143 0l219 1030h173l-29 -133q66 83 148.5 119.5t160.5 36.5q102 0 170.5 -51.5t77.5 -151.5q76 103 154.5 153t193.5 50q144 0 205 -71t61 -196q0 -82 -28 -208l-123 -578h-172l123 580q7 28 20 94q10 52 10 90q0 66 -33 102.5t-114 36.5q-67 0 -124.5 -34t-97 -91 t-65.5 -120.5t-41 -133.5l-112 -524h-170l124 586q2 12 8 40.5t9 45t5.5 40.5t2.5 44q0 69 -32.5 108t-112.5 39q-116 0 -205 -111.5t-123 -273.5l-111 -518h-172z" />
<glyph unicode="n" horiz-adv-x="1112" d="M143 0l219 1030h173l-29 -129q127 152 319 152q150 0 220.5 -76t70.5 -213q0 -74 -18 -156l-129 -608h-172l129 612q16 75 16 127q0 81 -39.5 123.5t-128.5 42.5q-124 0 -218 -103t-128 -270l-113 -532h-172z" />
<glyph unicode="o" horiz-adv-x="1136" d="M195 377q0 128 42 249t117 216.5t189 153t248 57.5q177 0 274.5 -114t97.5 -294q0 -127 -38.5 -245.5t-110 -214.5t-184.5 -154t-250 -58q-177 0 -281 111.5t-104 292.5zM371 367q0 -123 57.5 -185.5t161.5 -62.5q96 0 174.5 51t125.5 131.5t72 172.5t25 183 q0 53 -10.5 96t-34 80.5t-68 58.5t-106.5 21q-89 0 -166 -52.5t-126 -133.5t-77 -176t-28 -184z" />
<glyph unicode="p" horiz-adv-x="1116" d="M57 -410l308 1440h170l-27 -129q146 152 328 152q146 0 227.5 -101.5t81.5 -273.5q0 -93 -21 -189.5t-65 -189t-105 -164.5t-149 -116t-189 -44q-188 0 -274 154l-115 -539h-170zM383 317q23 -96 83 -146t142 -50q72 0 133.5 37t102 95t69 132t41.5 146t13 139 q0 115 -49.5 176t-145.5 61t-178.5 -66t-136.5 -173z" />
<glyph unicode="q" d="M190 352q0 119 34.5 240t98.5 225t168.5 170t231.5 66q185 0 272 -156l29 133h170l-305 -1440h-170l115 543q-143 -158 -334 -158q-145 0 -227.5 101.5t-82.5 275.5zM369 360q0 -115 50 -177t146 -62q104 0 189 76t133 190l71 332q-25 95 -88.5 141.5t-142.5 46.5 q-72 0 -133.5 -36.5t-102 -94.5t-69 -131.5t-41 -145.5t-12.5 -139z" />
<glyph unicode="r" horiz-adv-x="761" d="M143 0l219 1032h173l-31 -135q62 73 144.5 115.5t176.5 42.5q63 0 125 -19l-96 -147q-33 16 -82 16q-123 0 -215.5 -103t-128.5 -270l-113 -532h-172z" />
<glyph unicode="s" horiz-adv-x="954" d="M139 172l123 90q89 -145 256 -145q45 0 88.5 10t83 30t64 56.5t24.5 83.5q0 56 -49.5 94.5t-167.5 77.5q-260 86 -260 274q0 80 32.5 142t88.5 99t124 56t144 19q230 0 359 -164l-125 -92q-43 58 -98.5 86.5t-139.5 28.5q-55 0 -102 -14t-82 -50.5t-35 -91.5 q0 -51 43 -86.5t143 -71.5q145 -53 221 -122t76 -169q0 -87 -39 -154.5t-104 -107t-141.5 -59t-159.5 -19.5q-123 0 -217 51t-150 148z" />
<glyph unicode="t" horiz-adv-x="753" d="M283 901l26 129h166l86 410h168l-86 -410h236l-27 -129h-236l-139 -655q-8 -36 -8 -64q0 -30 14.5 -42.5t48.5 -12.5q76 0 162 47l-35 -149q-86 -45 -198 -45q-83 0 -122.5 40t-39.5 125q0 57 14 123l136 633h-166z" />
<glyph unicode="u" horiz-adv-x="1097" d="M201 266q0 74 18 156l129 608h172l-129 -612q-16 -75 -16 -127q0 -81 39.5 -123.5t128.5 -42.5q124 0 218 103t128 270l112 532h173l-220 -1030h-172l29 129q-127 -152 -319 -152q-150 0 -220.5 76t-70.5 213z" />
<glyph unicode="v" horiz-adv-x="1017" d="M281 1030h170l92 -809l444 809h189l-598 -1030h-154z" />
<glyph unicode="w" horiz-adv-x="1470" d="M281 1030h161l45 -799l390 799h145l51 -799l375 799h180l-518 -1030h-156l-47 805l-387 -805h-153z" />
<glyph unicode="x" horiz-adv-x="1013" d="M61 0l469 547l-206 483h165l150 -366l307 366h197l-434 -508l223 -522h-166l-166 403l-342 -403h-197z" />
<glyph unicode="y" horiz-adv-x="1079" d="M84 -406l51 132q47 -15 76 -15q73 0 115 74l125 215l-144 1030h164l100 -848l473 848h193l-784 -1327q-39 -67 -107.5 -101t-142.5 -34q-68 0 -119 26z" />
<glyph unicode="z" horiz-adv-x="866" d="M51 0l25 111l694 780h-483l28 139h713l-24 -112l-693 -775h535l-31 -143h-764z" />
<glyph unicode="{" horiz-adv-x="774" d="M276 625l27 123q89 25 137.5 84t69.5 153l43 201q22 103 53.5 172.5t86 122t137 78.5t200.5 30l-22 -108q-74 -13 -124 -36.5t-83.5 -63t-53.5 -88.5t-36 -124l-29 -127q-41 -193 -84 -264.5t-145 -107.5q56 -35 79 -70t23 -94q0 -63 -31 -209l-30 -147q-17 -87 -17 -132 q0 -78 41 -120t141 -60l-24 -108q-169 7 -243.5 74.5t-74.5 201.5q0 58 21 174l45 207q8 39 8 80q0 120 -115 158z" />
<glyph unicode="|" horiz-adv-x="350" d="M-197 -444l433 2031h155l-432 -2031h-156z" />
<glyph unicode="}" horiz-adv-x="776" d="M25 -272l22 108q144 25 205.5 94t93.5 220l39 182q40 191 84 263t147 107q-58 37 -81 71t-23 95q0 49 31 207l18 92q19 97 19 131q0 78 -41.5 120.5t-141.5 62.5l23 108q169 -7 244 -75t75 -203q0 -70 -22 -174l-31 -152q-10 -48 -10 -80q0 -119 115 -157l-25 -121 q-90 -25 -138.5 -84.5t-68.5 -153.5l-55 -258q-22 -103 -54.5 -172.5t-87.5 -121.5t-137 -78t-200 -31z" />
<glyph unicode="~" horiz-adv-x="1255" d="M274 618q149 218 330 218q45 0 98.5 -23t94.5 -50t89.5 -50t84.5 -23q56 0 102.5 35t104.5 109l33.5 -33.5l25 -25t33.5 -36.5q-157 -213 -334 -213q-43 0 -94 23t-90.5 50t-89.5 50t-91 23q-54 0 -92.5 -30t-109.5 -118z" />
<glyph unicode="&#xa1;" horiz-adv-x="520" d="M100 -410l154 721l104 336h107l-39 -336l-154 -721h-172zM356 942q0 46 32.5 78.5t78.5 32.5t79.5 -32.5t33.5 -78.5q0 -47 -33.5 -80t-79.5 -33t-78.5 33t-32.5 80z" />
<glyph unicode="&#xa2;" horiz-adv-x="1165" d="M223 530q0 117 36 229t101 204.5t165 155t220 75.5l52 246h149l-53 -242q96 -13 155 -59t107 -131l-131 -78q-60 133 -223 133q-76 0 -142.5 -34t-113.5 -90t-81 -126.5t-50.5 -144.5t-16.5 -144q0 -117 54.5 -188.5t171.5 -71.5q24 0 67.5 9t109 43t101.5 87l117 -79 q-38 -66 -133.5 -125t-216.5 -70l-52 -240h-149l51 240q-100 14 -168.5 75t-97.5 143.5t-29 182.5z" />
<glyph unicode="&#xa3;" horiz-adv-x="1208" d="M143 0l232 1090q38 174 172 274t327 100q136 0 228.5 -40t146.5 -128l-145 -75q-37 54 -91.5 75t-142.5 21q-262 0 -315 -242l-35 -166h432l-32 -155h-433l-129 -598h420q96 0 173 57t77 149q0 42 -25 82.5t-67 65.5l123 119q63 -46 99 -116.5t36 -145.5q0 -109 -60 -194 t-157 -129t-211 -44h-623z" />
<glyph unicode="&#xa4;" horiz-adv-x="1400" d="M109 508l38 131h172q6 41 15 84q9 39 14 55h-182l39 133h186q97 252 287 405.5t434 153.5q194 0 310.5 -101t152.5 -271l-164 -58q-27 127 -107 201t-223 74q-159 0 -290.5 -112t-210.5 -292h503l-41 -133h-510q-2 -10 -7 -30.5t-7 -30.5q-5 -24 -14 -78h522l-41 -131 h-487q3 -173 84.5 -277t242.5 -104q113 0 214.5 57.5t174.5 155.5l136 -100q-222 -271 -551 -271q-126 0 -221.5 41t-153.5 114.5t-86.5 170t-28.5 213.5h-200z" />
<glyph unicode="&#xa5;" horiz-adv-x="1335" d="M311 326l25 110h321l31 142l-20 51h-291l22 110h226l-271 701h189l258 -707l567 707h221l-583 -701h229l-23 -110h-299l-49 -60l-28 -133h335l-22 -110h-336l-70 -326h-178l70 326h-324z" />
<glyph unicode="&#xa6;" horiz-adv-x="569" d="M205 0l119 561h159l-118 -561h-160zM391 877l119 563h160l-119 -563h-160z" />
<glyph unicode="&#xa7;" horiz-adv-x="1286" d="M139 -78l121 119q138 -141 322 -141q60 0 116.5 19.5t98 64.5t41.5 108q0 108 -197 180q-70 26 -120 47.5t-106.5 55t-91 68.5t-58 84.5t-23.5 105.5q0 143 83 236.5t230 140.5q-86 73 -86 172q0 105 59 185.5t153 121.5t204 41q114 0 218.5 -42.5t180.5 -117.5 l-125 -117q-129 129 -291 129q-84 0 -151.5 -45.5t-67.5 -124.5q0 -116 193 -182q53 -19 83 -30t77 -31.5t74.5 -37.5t60 -43.5t50 -53.5t30 -63.5t12.5 -78.5q0 -272 -305 -395q88 -71 88 -176q0 -166 -128 -268.5t-309 -102.5q-137 0 -250 48t-186 124zM406 649 q0 -32 18.5 -62t43 -50.5t66 -42t71 -33.5t75 -29t61.5 -24q65 -29 76 -35q45 22 85.5 50t78.5 65t61 83.5t23 94.5q0 34 -21.5 65t-61.5 57t-76 43.5t-87 38.5q-80 35 -153 60q-50 -20 -92 -45t-82 -59.5t-63 -80t-23 -96.5z" />
<glyph unicode="&#xa8;" horiz-adv-x="751" d="M381 1380q0 38 27 65.5t65 27.5t66 -27.5t28 -65.5q0 -39 -27.5 -66.5t-66.5 -27.5q-38 0 -65 27t-27 67zM745 1380q0 38 27.5 65.5t65.5 27.5t66 -27.5t28 -65.5q0 -39 -27.5 -66.5t-66.5 -27.5q-38 0 -65.5 27t-27.5 67z" />
<glyph unicode="&#xa9;" horiz-adv-x="1677" d="M258 719q0 157 57 294t155 233.5t234 152t289 55.5t288.5 -55.5t233.5 -152t154.5 -234t56.5 -295.5q0 -204 -95 -371.5t-263.5 -263.5t-376.5 -96q-149 0 -283 54t-233.5 149t-158 233t-58.5 297zM344 717q0 -136 49.5 -256t135.5 -206.5t206.5 -136.5t257.5 -50 q177 0 324.5 82t234.5 231.5t88 335.5q1 182 -82.5 332t-232.5 236.5t-332 86.5q-180 0 -329 -84.5t-234.5 -235t-85.5 -335.5zM590 721q0 193 116 323t295 130q205 0 332 -170l-96 -78q-48 59 -102 93t-134 34q-122 0 -203 -93.5t-81 -234.5q0 -148 81.5 -241t202.5 -93 q81 0 137.5 35.5t104.5 91.5l92 -78q-55 -71 -121 -110q-100 -60 -217 -60q-174 0 -290.5 127t-116.5 324z" />
<glyph unicode="&#xaa;" horiz-adv-x="991" d="M324 954q0 64 33.5 118.5t88.5 89t122.5 54t138.5 19.5q47 0 112 -14q6 28 8 36q4 28 4 41q0 84 -104 84q-68 0 -113 -25t-92 -79l-84 65q66 76 134.5 109t168.5 33q60 0 111.5 -16t87 -53t35.5 -89q0 -23 -2 -33l-82 -385v-6q0 -16 27 -16h14l-17 -78h-112 q-24 0 -41 15.5t-17 39.5v10q-97 -81 -225 -81q-87 0 -141.5 42t-54.5 119zM457 981q0 -38 29 -59t71 -21q67 0 132.5 36t86.5 79l19 88q-15 24 -84 24q-57 0 -112.5 -14t-98.5 -48.5t-43 -84.5z" />
<glyph unicode="&#xab;" horiz-adv-x="1079" d="M217 586l428 461l150 -41l-412 -441l219 -413h-160zM610 586l428 461l152 -41l-412 -441l219 -413h-159z" />
<glyph unicode="&#xac;" horiz-adv-x="1314" d="M203 578l33 155h1130l-104 -489h-160l69 334h-968z" />
<glyph unicode="&#xad;" horiz-adv-x="727" d="M236 625l34 163h523l-35 -163h-522z" />
<glyph unicode="&#xae;" horiz-adv-x="1679" d="M258 719q0 210 98.5 379.5t265.5 262.5t369 93q156 0 293 -56.5t234 -154t153 -234t55 -290.5q0 -208 -96.5 -376t-264.5 -262.5t-374 -94.5q-149 0 -283 54t-233.5 149t-158 233t-58.5 297zM344 719q0 -184 86 -333.5t234 -233.5t327 -84q182 0 331 84.5t234 233.5 t86 333q0 183 -84.5 332.5t-233 235t-331.5 85.5q-181 0 -330 -85t-234 -234.5t-85 -333.5zM709 297v864h309q125 0 194 -35q117 -55 117 -198q0 -92 -52.5 -150t-139.5 -76q32 -13 63.5 -67t52 -113.5t43.5 -128.5t37 -96h-151q-13 26 -35.5 98t-42 128.5t-59.5 103.5 t-91 47h-114v-377h-131zM840 786h172q186 0 186 136q0 55 -33 88q-23 26 -60.5 35.5t-100.5 9.5h-164v-269z" />
<glyph unicode="&#xaf;" horiz-adv-x="823" d="M406 1231l30 143h537l-31 -143h-536z" />
<glyph unicode="&#xb0;" horiz-adv-x="901" d="M336 1049q0 110 59 209.5t158.5 159t210.5 59.5q126 0 205.5 -77.5t79.5 -197.5q0 -111 -59 -210.5t-158.5 -159.5t-210.5 -60q-127 0 -206 78t-79 199zM481 1073q0 -74 45 -119t121 -45q104 0 181 81.5t77 185.5q0 73 -45 119t-121 46q-105 0 -181.5 -81.5t-76.5 -186.5 z" />
<glyph unicode="&#xb2;" horiz-adv-x="985" d="M211 410q2 7 8 25.5t8 25.5q24 66 67 124.5t104 108.5t113.5 86.5t129.5 85t117 76.5q87 63 134.5 119.5t47.5 128.5q0 64 -46.5 92.5t-117.5 28.5q-77 0 -146.5 -44t-109.5 -112l-129 82q69 104 169.5 162.5t221.5 58.5q87 0 159 -25.5t120.5 -85.5t48.5 -147 q0 -78 -28.5 -143t-93.5 -123.5t-111.5 -91t-140.5 -90.5q-14 -9 -21 -13q-169 -104 -238 -180h516l-32 -149h-750z" />
<glyph unicode="&#xb3;" horiz-adv-x="999" d="M233 641l140 66q24 -94 74 -130t147 -36q72 0 131.5 20t101 69.5t41.5 121.5q0 120 -202 120h-107l31 144h86q47 0 90.5 10t83 30.5t63 58t23.5 87.5q0 111 -170 111q-78 0 -146.5 -42.5t-105.5 -111.5l-127 76q71 114 167 168.5t228 54.5q60 0 114.5 -12.5t102 -39 t75.5 -74t28 -109.5q0 -94 -50 -167t-139 -112q123 -51 123 -184q0 -91 -40 -163.5t-106 -116t-146 -66.5t-166 -23q-139 0 -229.5 62t-115.5 188z" />
<glyph unicode="&#xb4;" horiz-adv-x="675" d="M354 1180l279 307h256l-393 -307h-142z" />
<glyph unicode="&#xb5;" horiz-adv-x="1114" d="M55 -410l305 1440h172l-122 -573q-21 -107 -21 -164q0 -86 39.5 -128t132.5 -42q83 0 156 54.5t119 137t67 179.5l115 536h170l-219 -1032h-170l28 135q-122 -158 -305 -158q-135 0 -196 82l-99 -467h-172z" />
<glyph unicode="&#xb6;" horiz-adv-x="1275" d="M332 932q0 47 8 88q37 174 186.5 297t323.5 123h588l-25 -123h-35l-368 -1727h-140l369 1727h-248l-366 -1727h-140l215 1010h-24h-2h-2h-4h-2h-11q-143 4 -233 98.5t-90 233.5z" />
<glyph unicode="&#xb7;" horiz-adv-x="464" d="M274 717q0 46 32.5 79t78.5 33t79.5 -33t33.5 -79t-33.5 -78.5t-79.5 -32.5t-78.5 32.5t-32.5 78.5z" />
<glyph unicode="&#xb8;" horiz-adv-x="679" d="M63 -379l33 64q60 -29 121 -29q32 0 62 8.5t54.5 31t24.5 56.5q0 24 -17 38.5t-50 14.5q-34 0 -76 -20l-61 12l145 221h78l-92 -143q43 16 86 16q52 0 85 -27t33 -77q0 -67 -42.5 -115.5t-101.5 -70t-124 -21.5q-74 0 -158 41z" />
<glyph unicode="&#xb9;" horiz-adv-x="634" d="M346 1169l29 131q49 2 81.5 7t66 19t56 42t37.5 72h154l-219 -1030h-172l164 772q-93 -13 -197 -13z" />
<glyph unicode="&#xba;" horiz-adv-x="962" d="M317 1065q0 174 111.5 297t286.5 123q123 0 195.5 -68t72.5 -186q0 -113 -49 -210t-141.5 -157.5t-208.5 -60.5q-127 0 -197 71.5t-70 190.5zM459 1069q0 -72 35.5 -114t103.5 -42q105 0 174.5 93.5t69.5 207.5q0 73 -34 116.5t-106 43.5q-46 0 -86.5 -19t-68.5 -50 t-48.5 -71t-30 -82t-9.5 -83z" />
<glyph unicode="&#xbb;" horiz-adv-x="1097" d="M125 152l434 464l-203 383l131 58l240 -459l-418 -446h-184zM526 152l437 464l-203 383l129 58l239 -459l-417 -446h-185z" />
<glyph unicode="&#xbc;" horiz-adv-x="1937" d="M346 1169l29 131q49 2 81.5 7t66 19t56 42t37.5 72h154l-219 -1030h-172l164 772q-93 -13 -197 -13zM444 -18l1117 1497l141 -19l-1120 -1497zM1100 236l26 129l658 665h182l-43 -203l-96 -448h149l-30 -143h-150l-49 -236h-168l49 236h-528zM1343 379h316l86 403z" />
<glyph unicode="&#xbd;" horiz-adv-x="2064" d="M346 1169l29 131q49 2 81.5 7t66 19t56 42t37.5 72h154l-219 -1030h-172l164 772q-93 -13 -197 -13zM428 -18l1118 1497l140 -19l-1119 -1497zM1210 0l17 51q24 66 67 125t104.5 109.5t112.5 86t129.5 84.5t116.5 76q86 62 134 119.5t48 128.5q0 64 -46 92.5t-117 28.5 q-78 0 -147.5 -43.5t-108.5 -112.5l-129 82q69 105 169 163.5t222 58.5q64 0 121.5 -15t104 -45t74 -81t27.5 -117q0 -63 -25 -122t-51 -96t-92.5 -89.5t-95 -71t-114.5 -71.5q-11 -7 -17 -11q-84 -51 -140 -92t-97 -88h516l-33 -150h-750z" />
<glyph unicode="&#xbe;" horiz-adv-x="2248" d="M233 641l140 66q24 -94 74 -130t147 -36q72 0 131.5 20t101 69.5t41.5 121.5q0 120 -202 120h-107l31 144h86q47 0 90.5 10t83 30.5t63 58t23.5 87.5q0 111 -170 111q-78 0 -146.5 -42.5t-105.5 -111.5l-127 76q71 114 167 168.5t228 54.5q60 0 114.5 -12.5t102 -39 t75.5 -74t28 -109.5q0 -94 -50 -167t-139 -112q123 -51 123 -184q0 -91 -40 -163.5t-106 -116t-146 -66.5t-166 -23q-139 0 -229.5 62t-115.5 188zM758 -18l1118 1497l139 -19l-1118 -1497zM1415 236l27 129l657 665h182l-43 -203l-96 -448h148l-31 -143h-148l-51 -236h-168 l52 236h-529zM1659 379h315l86 403z" />
<glyph unicode="&#xbf;" horiz-adv-x="1077" d="M61 -119q0 56 12 105t38 91t53 75t71 69t77.5 59t86.5 58q87 56 124 90.5t58.5 81t43.5 141.5h163q-15 -66 -25.5 -105t-27 -80t-33.5 -66t-47.5 -56t-66.5 -57t-92 -62q-118 -77 -159 -114q-110 -98 -110 -213q0 -81 63.5 -134t178.5 -53q120 0 206 50.5t167 172.5 l121 -77q-91 -140 -212.5 -214.5t-295.5 -74.5q-175 0 -284.5 85t-109.5 228zM637 944q0 46 33.5 79.5t79.5 33.5t79 -33.5t33 -79.5t-33 -78t-79 -32t-79.5 32.5t-33.5 77.5z" />
<glyph unicode="&#xc0;" horiz-adv-x="1380" d="M61 0l852 1440h174l232 -1440h-178l-56 383h-604l-217 -383h-203zM563 528h502l-100 709zM707 1870h227l149 -307h-114z" />
<glyph unicode="&#xc1;" horiz-adv-x="1388" d="M61 0l852 1440h174l232 -1440h-178l-56 383h-604l-217 -383h-203zM563 528h502l-100 709zM928 1563l278 307h258l-393 -307h-143z" />
<glyph unicode="&#xc2;" horiz-adv-x="1351" d="M61 0l852 1440h174l232 -1440h-178l-56 383h-604l-217 -383h-203zM563 528h502l-100 709zM676 1599l321 306h131l197 -306h-121l-160 168l-223 -168h-145z" />
<glyph unicode="&#xc3;" horiz-adv-x="1333" d="M61 0l852 1440h174l232 -1440h-178l-56 383h-604l-217 -383h-203zM563 528h502l-100 709zM637 1608q30 95 99 162t155 67q77 0 143 -51q50 -37 74.5 -50.5t48.5 -13.5q63 0 111 111l37 -2l75 -8q-37 -104 -104 -168t-150 -64q-71 0 -147 54q-59 42 -78.5 52.5t-42.5 10.5 q-61 0 -106 -109z" />
<glyph unicode="&#xc4;" horiz-adv-x="1376" d="M61 0l852 1440h174l232 -1440h-178l-56 383h-604l-217 -383h-203zM563 528h502l-100 709zM725 1667q0 40 27 67t65 27q39 0 66.5 -27.5t27.5 -66.5q0 -38 -28 -65t-66 -27t-65 27t-27 65zM1087 1667q0 39 28 66.5t67 27.5q38 0 65 -27t27 -67q0 -38 -27 -65t-65 -27 q-39 0 -67 27t-28 65z" />
<glyph unicode="&#xc5;" horiz-adv-x="1380" d="M61 0l852 1440h174l232 -1440h-178l-56 383h-604l-217 -383h-203zM563 528h502l-100 709zM819 1712q0 86 59.5 145.5t147.5 59.5t147.5 -59.5t59.5 -145.5q0 -87 -60 -147t-147 -60t-147 60t-60 147zM913 1712q0 -50 31 -82.5t80 -32.5q50 0 81.5 32.5t31.5 82.5 q0 48 -31.5 81.5t-81.5 33.5q-49 0 -80 -33.5t-31 -81.5z" />
<glyph unicode="&#xc6;" horiz-adv-x="2103" d="M61 0l1256 1440h985l-33 -156h-747l-97 -455h564l-33 -153h-563l-111 -520h786l-32 -156h-967l78 371h-545l-315 -371h-226zM731 524h449l149 705z" />
<glyph unicode="&#xc7;" horiz-adv-x="1343" d="M231 502q0 113 25 228.5t71 223t117 201.5t157.5 164t198.5 110.5t234 40.5q193 0 309 -101t152 -271l-162 -58q-27 127 -107 201t-222 74q-90 0 -172 -36t-145 -97t-115 -141t-85 -168.5t-51 -178.5t-18 -172q0 -178 82.5 -286.5t247.5 -108.5q113 0 214 58t173 155 l137 -100q-224 -271 -531 -271q-14 0 -22 2l-64 -98q37 18 86 18q50 0 83.5 -27t33.5 -77q0 -68 -42 -116.5t-101 -69.5t-125 -21q-69 0 -158 39l35 66q54 -29 119 -29q54 0 97.5 23.5t43.5 72.5q0 24 -17 38.5t-48 14.5q-40 0 -76 -22l-62 14l115 178q-105 13 -185 59.5 t-128 118t-71.5 159.5t-23.5 190z" />
<glyph unicode="&#xc8;" horiz-adv-x="1171" d="M143 0l306 1440h927l-33 -156h-747l-96 -455h563l-33 -153h-563l-111 -520h787l-33 -156h-967zM694 1870h230l147 -307h-113z" />
<glyph unicode="&#xc9;" horiz-adv-x="1163" d="M143 0l306 1440h927l-33 -156h-747l-96 -455h563l-33 -153h-563l-111 -520h787l-33 -156h-967zM844 1563l278 307h258l-395 -307h-141z" />
<glyph unicode="&#xca;" horiz-adv-x="1171" d="M143 0l306 1440h927l-33 -156h-747l-96 -455h563l-33 -153h-563l-111 -520h787l-33 -156h-967zM662 1599l319 306h133l197 -306h-121l-162 168l-223 -168h-143z" />
<glyph unicode="&#xcb;" horiz-adv-x="1171" d="M143 0l306 1440h927l-33 -156h-747l-96 -455h563l-33 -153h-563l-111 -520h787l-33 -156h-967zM719 1667q0 40 27 67t65 27q40 0 67 -27t27 -67q0 -38 -27 -65t-67 -27q-38 0 -65 27t-27 65zM1083 1667q0 39 27.5 66.5t65.5 27.5q39 0 66.5 -27.5t27.5 -66.5 q0 -38 -28 -65t-66 -27t-65.5 27t-27.5 65z" />
<glyph unicode="&#xcc;" horiz-adv-x="466" d="M160 0l305 1440h180l-305 -1440h-180zM291 1870h229l148 -307h-113z" />
<glyph unicode="&#xcd;" horiz-adv-x="466" d="M160 0l305 1440h180l-305 -1440h-180zM481 1563l279 307h258l-393 -307h-144z" />
<glyph unicode="&#xce;" horiz-adv-x="466" d="M160 0l305 1440h180l-305 -1440h-180zM242 1599l321 306h131l197 -306h-121l-160 168l-223 -168h-145z" />
<glyph unicode="&#xcf;" horiz-adv-x="466" d="M160 0l305 1440h180l-305 -1440h-180zM299 1667q0 40 27 67t65 27t65 -27t27 -67q0 -38 -27 -65t-65 -27t-65 27t-27 65zM662 1667q0 39 27.5 66.5t66.5 27.5q38 0 65 -27t27 -67q0 -38 -27 -65t-65 -27t-66 27t-28 65z" />
<glyph unicode="&#xd0;" horiz-adv-x="1413" d="M184 0l148 688h-146l31 143h145l130 609h434q277 0 416 -128t139 -370q0 -159 -35.5 -300.5t-107 -259t-174 -203t-244 -132.5t-308.5 -47h-428zM401 156h230q135 0 246.5 41.5t188 113.5t129 171t77 213t24.5 241q0 178 -97.5 263t-303.5 85h-254l-96 -453h354l-31 -143 h-354z" />
<glyph unicode="&#xd1;" horiz-adv-x="1400" d="M143 0l306 1440h180l504 -1178l251 1178h179l-306 -1440h-180l-504 1180l-249 -1180h-181zM682 1608q28 95 96.5 162t155.5 67q79 0 145 -51q48 -37 72.5 -50.5t48.5 -13.5q67 0 111 111l37 -2l75 -8q-37 -104 -104 -168t-150 -64q-71 0 -147 54q-57 42 -76.5 52.5 t-44.5 10.5q-61 0 -106 -109z" />
<glyph unicode="&#xd2;" horiz-adv-x="1441" d="M231 522q0 139 34 275t102.5 257t163 214t225 147.5t278.5 54.5q125 0 220 -41t152.5 -113.5t86.5 -166.5t29 -207q0 -114 -24 -229.5t-69.5 -224t-115.5 -203t-156.5 -165t-199 -111t-236.5 -40.5q-101 0 -183.5 29.5t-139 80.5t-94.5 122t-55.5 151t-17.5 170zM416 520 q0 -85 19 -155t57.5 -124t102.5 -84t148 -30q108 0 204.5 51t165.5 134t119.5 187t75.5 212.5t25 208.5q0 85 -18.5 154.5t-56 124.5t-101 85.5t-147.5 30.5q-110 0 -208 -50.5t-167 -133t-119.5 -187t-75 -213.5t-24.5 -211zM748 1870h227l149 -307h-114z" />
<glyph unicode="&#xd3;" horiz-adv-x="1441" d="M231 522q0 139 34 275t102.5 257t163 214t225 147.5t278.5 54.5q125 0 220 -41t152.5 -113.5t86.5 -166.5t29 -207q0 -114 -24 -229.5t-69.5 -224t-115.5 -203t-156.5 -165t-199 -111t-236.5 -40.5q-101 0 -183.5 29.5t-139 80.5t-94.5 122t-55.5 151t-17.5 170zM416 520 q0 -85 19 -155t57.5 -124t102.5 -84t148 -30q108 0 204.5 51t165.5 134t119.5 187t75.5 212.5t25 208.5q0 85 -18.5 154.5t-56 124.5t-101 85.5t-147.5 30.5q-110 0 -208 -50.5t-167 -133t-119.5 -187t-75 -213.5t-24.5 -211zM938 1563l279 307h258l-394 -307h-143z" />
<glyph unicode="&#xd4;" horiz-adv-x="1441" d="M231 522q0 139 34 275t102.5 257t163 214t225 147.5t278.5 54.5q125 0 220 -41t152.5 -113.5t86.5 -166.5t29 -207q0 -114 -24 -229.5t-69.5 -224t-115.5 -203t-156.5 -165t-199 -111t-236.5 -40.5q-101 0 -183.5 29.5t-139 80.5t-94.5 122t-55.5 151t-17.5 170zM416 520 q0 -85 19 -155t57.5 -124t102.5 -84t148 -30q108 0 204.5 51t165.5 134t119.5 187t75.5 212.5t25 208.5q0 85 -18.5 154.5t-56 124.5t-101 85.5t-147.5 30.5q-110 0 -208 -50.5t-167 -133t-119.5 -187t-75 -213.5t-24.5 -211zM727 1599l320 306h131l198 -306h-123l-159 168 l-224 -168h-143z" />
<glyph unicode="&#xd5;" horiz-adv-x="1441" d="M231 522q0 139 34 275t102.5 257t163 214t225 147.5t278.5 54.5q125 0 220 -41t152.5 -113.5t86.5 -166.5t29 -207q0 -114 -24 -229.5t-69.5 -224t-115.5 -203t-156.5 -165t-199 -111t-236.5 -40.5q-101 0 -183.5 29.5t-139 80.5t-94.5 122t-55.5 151t-17.5 170zM416 520 q0 -85 19 -155t57.5 -124t102.5 -84t148 -30q108 0 204.5 51t165.5 134t119.5 187t75.5 212.5t25 208.5q0 85 -18.5 154.5t-56 124.5t-101 85.5t-147.5 30.5q-110 0 -208 -50.5t-167 -133t-119.5 -187t-75 -213.5t-24.5 -211zM672 1608q28 95 96.5 162t155.5 67 q75 0 145 -51q48 -37 72.5 -50.5t48.5 -13.5q66 0 110 111l37 -2l76 -8q-37 -104 -104 -168t-150 -64q-71 0 -147 54q-59 42 -78.5 52.5t-42.5 10.5q-62 0 -107 -109z" />
<glyph unicode="&#xd6;" horiz-adv-x="1441" d="M231 522q0 139 34 275t102.5 257t163 214t225 147.5t278.5 54.5q125 0 220 -41t152.5 -113.5t86.5 -166.5t29 -207q0 -114 -24 -229.5t-69.5 -224t-115.5 -203t-156.5 -165t-199 -111t-236.5 -40.5q-101 0 -183.5 29.5t-139 80.5t-94.5 122t-55.5 151t-17.5 170zM416 520 q0 -85 19 -155t57.5 -124t102.5 -84t148 -30q108 0 204.5 51t165.5 134t119.5 187t75.5 212.5t25 208.5q0 85 -18.5 154.5t-56 124.5t-101 85.5t-147.5 30.5q-110 0 -208 -50.5t-167 -133t-119.5 -187t-75 -213.5t-24.5 -211zM815 1667q0 39 27.5 66.5t66.5 27.5 q38 0 65 -27t27 -67q0 -38 -27 -65t-65 -27t-66 27t-28 65zM1180 1667q0 39 27.5 66.5t66.5 27.5q38 0 65 -27t27 -67q0 -38 -27 -65t-65 -27t-66 27t-28 65z" />
<glyph unicode="&#xd7;" horiz-adv-x="1214" d="M158 168l456 377l-288 366l118 93l285 -365l465 385l94 -115l-467 -387l295 -377l-117 -92l-292 375l-453 -375z" />
<glyph unicode="&#xd8;" horiz-adv-x="1574" d="M147 -39l160 193q-94 140 -94 350q0 137 33 273.5t100 261.5t159.5 221t221 153t274.5 57q205 0 326 -94l111 135l123 -36l-152 -183q94 -134 94 -348q0 -113 -23.5 -228t-67 -224t-112 -204t-153 -166t-195 -112t-233.5 -41q-97 0 -184.5 26t-145.5 71l-119 -142z M399 528q0 -131 41 -217l766 922q-85 82 -223 82q-108 0 -204 -50.5t-164 -132.5t-118 -185.5t-74 -211t-24 -207.5zM508 209q85 -82 223 -82q106 0 201.5 50.5t164 133t119 186t75 210.5t24.5 206q0 131 -41 217z" />
<glyph unicode="&#xd9;" horiz-adv-x="1310" d="M217 367q0 120 39 305l164 768h180l-182 -854q-27 -147 -27 -211q0 -118 62 -183t211 -65q384 0 475 440l186 873h178l-160 -758q-19 -91 -40 -165t-52.5 -149.5t-68.5 -133t-89 -109t-114.5 -85t-144.5 -52.5t-179 -19q-100 0 -176 19.5t-125 54t-80.5 85.5t-44 109 t-12.5 130zM678 1870h227l148 -307h-113z" />
<glyph unicode="&#xda;" horiz-adv-x="1310" d="M217 367q0 120 39 305l164 768h180l-182 -854q-27 -147 -27 -211q0 -118 62 -183t211 -65q384 0 475 440l186 873h178l-160 -758q-19 -91 -40 -165t-52.5 -149.5t-68.5 -133t-89 -109t-114.5 -85t-144.5 -52.5t-179 -19q-100 0 -176 19.5t-125 54t-80.5 85.5t-44 109 t-12.5 130zM905 1563l279 307h256l-393 -307h-142z" />
<glyph unicode="&#xdb;" horiz-adv-x="1310" d="M217 367q0 120 39 305l164 768h180l-182 -854q-27 -147 -27 -211q0 -118 62 -183t211 -65q384 0 475 440l186 873h178l-160 -758q-19 -91 -40 -165t-52.5 -149.5t-68.5 -133t-89 -109t-114.5 -85t-144.5 -52.5t-179 -19q-100 0 -176 19.5t-125 54t-80.5 85.5t-44 109 t-12.5 130zM678 1599l319 306h131l199 -306h-123l-160 168l-223 -168h-143z" />
<glyph unicode="&#xdc;" horiz-adv-x="1310" d="M217 367q0 120 39 305l164 768h180l-182 -854q-27 -147 -27 -211q0 -118 62 -183t211 -65q384 0 475 440l186 873h178l-160 -758q-19 -91 -40 -165t-52.5 -149.5t-68.5 -133t-89 -109t-114.5 -85t-144.5 -52.5t-179 -19q-100 0 -176 19.5t-125 54t-80.5 85.5t-44 109 t-12.5 130zM729 1667q0 39 27.5 66.5t66.5 27.5q38 0 65 -27t27 -67q0 -38 -27 -65t-65 -27t-66 27t-28 65zM1094 1667q0 39 27.5 66.5t66.5 27.5q38 0 65 -27t27 -67q0 -38 -27 -65t-65 -27t-66 27t-28 65z" />
<glyph unicode="&#xdd;" horiz-adv-x="1296" d="M336 1440h188l258 -707l568 707h221l-725 -871l-121 -569h-178l123 578zM823 1563l279 307h256l-393 -307h-142z" />
<glyph unicode="&#xde;" horiz-adv-x="1280" d="M162 0l305 1440h180l-49 -238h356q455 0 455 -313q0 -167 -81.5 -289t-220 -183t-316.5 -61h-373l-76 -356h-180zM449 506h360q186 0 301 92.5t115 267.5q0 46 -16 80t-43 54t-68.5 32.5t-84.5 16.5t-100 4h-348z" />
<glyph unicode="&#xdf;" horiz-adv-x="1116" d="M100 -201l252 1188q23 111 59.5 196t93.5 154.5t142.5 106.5t196.5 37q153 0 235 -81.5t82 -201.5q0 -126 -74 -234t-196 -147q100 -35 158.5 -121t58.5 -200q0 -224 -149.5 -369t-385.5 -145q-35 0 -70.5 9.5t-53.5 22.5l30 144q52 -29 119 -29q147 0 241.5 101.5 t94.5 250.5q0 111 -90 183t-252 75l31 144h4q87 0 167.5 32.5t136.5 101.5t56 159q0 73 -44 116t-128 43q-102 0 -178 -85t-115 -271l-239 -1133z" />
<glyph unicode="&#xe0;" d="M156 227q0 82 39 158t108 134t172.5 93t224.5 35q93 0 201 -24q1 5 8 37.5t12.5 60.5t6.5 35q4 24 4 30q0 61 -48.5 95t-129.5 34q-84 0 -161.5 -39.5t-139.5 -117.5l-109 90q79 103 193 155t241 52q143 0 233.5 -66.5t90.5 -183.5q0 -33 -8 -64l-125 -598q-4 -16 -4 -20 q0 -31 39 -31h30l-18 -92h-148q-35 0 -57.5 18.5t-22.5 55.5q0 2 5 32l6 23q-65 -72 -161 -113t-196 -41q-125 0 -205.5 66t-80.5 186zM309 250q0 -63 45.5 -98t116.5 -35q91 0 196.5 56t170.5 153l34 163q-39 27 -167 27q-165 0 -280.5 -77t-115.5 -189zM506 1487h227 l150 -305h-115z" />
<glyph unicode="&#xe1;" d="M156 227q0 82 39 158t108 134t172.5 93t224.5 35q93 0 201 -24q1 5 8 37.5t12.5 60.5t6.5 35q4 24 4 30q0 61 -48.5 95t-129.5 34q-84 0 -161.5 -39.5t-139.5 -117.5l-109 90q79 103 193 155t241 52q143 0 233.5 -66.5t90.5 -183.5q0 -33 -8 -64l-125 -598q-4 -16 -4 -20 q0 -31 39 -31h30l-18 -92h-148q-35 0 -57.5 18.5t-22.5 55.5q0 2 5 32l6 23q-65 -72 -161 -113t-196 -41q-125 0 -205.5 66t-80.5 186zM309 250q0 -63 45.5 -98t116.5 -35q91 0 196.5 56t170.5 153l34 163q-39 27 -167 27q-165 0 -280.5 -77t-115.5 -189zM676 1180l278 307 h258l-393 -307h-143z" />
<glyph unicode="&#xe2;" d="M156 227q0 82 39 158t108 134t172.5 93t224.5 35q93 0 201 -24q1 5 8 37.5t12.5 60.5t6.5 35q4 24 4 30q0 61 -48.5 95t-129.5 34q-84 0 -161.5 -39.5t-139.5 -117.5l-109 90q79 103 193 155t241 52q143 0 233.5 -66.5t90.5 -183.5q0 -33 -8 -64l-125 -598q-4 -16 -4 -20 q0 -31 39 -31h30l-18 -92h-148q-35 0 -57.5 18.5t-22.5 55.5q0 2 5 32l6 23q-65 -72 -161 -113t-196 -41q-125 0 -205.5 66t-80.5 186zM309 250q0 -63 45.5 -98t116.5 -35q91 0 196.5 56t170.5 153l34 163q-39 27 -167 27q-165 0 -280.5 -77t-115.5 -189zM459 1184l319 305 h133l197 -305h-121l-162 168l-223 -168h-143z" />
<glyph unicode="&#xe3;" d="M156 227q0 82 39 158t108 134t172.5 93t224.5 35q93 0 201 -24q1 5 8 37.5t12.5 60.5t6.5 35q4 24 4 30q0 61 -48.5 95t-129.5 34q-84 0 -161.5 -39.5t-139.5 -117.5l-109 90q79 103 193 155t241 52q143 0 233.5 -66.5t90.5 -183.5q0 -33 -8 -64l-125 -598q-4 -16 -4 -20 q0 -31 39 -31h30l-18 -92h-148q-35 0 -57.5 18.5t-22.5 55.5q0 2 5 32l6 23q-65 -72 -161 -113t-196 -41q-125 0 -205.5 66t-80.5 186zM309 250q0 -63 45.5 -98t116.5 -35q91 0 196.5 56t170.5 153l34 163q-39 27 -167 27q-165 0 -280.5 -77t-115.5 -189zM420 1219 q28 95 96.5 162t155.5 67q45 0 86 -18t66.5 -39.5t56 -39.5t57.5 -18q67 0 111 111l112 -10q-37 -104 -104 -168t-150 -64q-43 0 -84.5 18.5t-68 40t-58.5 40t-57 18.5q-32 0 -57.5 -27t-49.5 -82z" />
<glyph unicode="&#xe4;" d="M156 227q0 82 39 158t108 134t172.5 93t224.5 35q93 0 201 -24q1 5 8 37.5t12.5 60.5t6.5 35q4 24 4 30q0 61 -48.5 95t-129.5 34q-84 0 -161.5 -39.5t-139.5 -117.5l-109 90q79 103 193 155t241 52q143 0 233.5 -66.5t90.5 -183.5q0 -33 -8 -64l-125 -598q-4 -16 -4 -20 q0 -31 39 -31h30l-18 -92h-148q-35 0 -57.5 18.5t-22.5 55.5q0 2 5 32l6 23q-65 -72 -161 -113t-196 -41q-125 0 -205.5 66t-80.5 186zM309 250q0 -63 45.5 -98t116.5 -35q91 0 196.5 56t170.5 153l34 163q-39 27 -167 27q-165 0 -280.5 -77t-115.5 -189zM555 1380 q0 38 27 65.5t65 27.5t65 -27.5t27 -65.5q0 -40 -27 -67t-65 -27t-65 27t-27 67zM918 1380q0 38 28 65.5t66 27.5t65 -27.5t27 -65.5q0 -40 -27 -67t-65 -27q-39 0 -66.5 27.5t-27.5 66.5z" />
<glyph unicode="&#xe5;" d="M156 227q0 82 39 158t108 134t172.5 93t224.5 35q93 0 201 -24q1 5 8 37.5t12.5 60.5t6.5 35q4 24 4 30q0 61 -48.5 95t-129.5 34q-84 0 -161.5 -39.5t-139.5 -117.5l-109 90q79 103 193 155t241 52q143 0 233.5 -66.5t90.5 -183.5q0 -33 -8 -64l-125 -598q-4 -16 -4 -20 q0 -31 39 -31h30l-18 -92h-148q-35 0 -57.5 18.5t-22.5 55.5q0 2 5 32l6 23q-65 -72 -161 -113t-196 -41q-125 0 -205.5 66t-80.5 186zM309 250q0 -63 45.5 -98t116.5 -35q91 0 196.5 56t170.5 153l34 163q-39 27 -167 27q-165 0 -280.5 -77t-115.5 -189zM633 1386 q0 87 60 147t147 60t147 -60t60 -147q0 -86 -59.5 -145t-147.5 -59t-147.5 59t-59.5 145zM727 1386q0 -50 31 -82t80 -32q50 0 81 32t31 82t-31 82.5t-81 32.5q-49 0 -80 -32.5t-31 -82.5z" />
<glyph unicode="&#xe6;" horiz-adv-x="1763" d="M156 227q0 82 39 158t108.5 134t173 93t223.5 35q91 0 201 -22q7 21 20 79t13 82q0 61 -49 97.5t-131 36.5q-81 0 -161.5 -39.5t-141.5 -116.5l-105 82q77 101 191 155t241 54q108 0 189 -39t114 -111q159 150 361 150q175 0 266.5 -102.5t91.5 -272.5q0 -118 -33 -201 h-725q-12 -78 -12 -117q0 -111 51.5 -177t167.5 -66q167 0 336 153l105 -98q-85 -93 -205.5 -146t-267.5 -53q-238 0 -324 205q-87 -102 -202 -153.5t-240 -51.5q-130 0 -212.5 67.5t-82.5 184.5zM328 250q0 -62 41.5 -97.5t111.5 -35.5q95 0 196.5 58t180.5 171v19 q0 59 12 129q-20 8 -28 10q-52 12 -131 12q-165 0 -274 -76.5t-109 -189.5zM1071 608h559q4 50 4 72q0 233 -211 233q-117 0 -211 -80t-141 -225z" />
<glyph unicode="&#xe7;" horiz-adv-x="1019" d="M193 365q0 128 39.5 250.5t111.5 221t184.5 158.5t247.5 60q237 0 344 -201l-133 -80q-66 135 -215 135q-91 0 -169 -52t-127.5 -133.5t-77 -175t-27.5 -181.5q0 -248 213 -248q154 0 282 143l121 -86q-27 -34 -60.5 -64t-82.5 -62t-114 -52t-138 -23l-66 -100 q40 16 86 16q50 0 83.5 -27t33.5 -77q0 -98 -81.5 -152.5t-184.5 -54.5q-73 0 -160 41l35 64q60 -29 121 -29q32 0 62 8.5t54.5 31t24.5 56.5q0 24 -17.5 38.5t-50.5 14.5q-37 0 -75 -20l-62 12l119 180q-158 18 -239.5 124.5t-81.5 263.5z" />
<glyph unicode="&#xe8;" horiz-adv-x="1095" d="M195 375q0 126 38.5 246t108.5 217t180 156t242 59q177 0 273 -104t96 -271q0 -114 -31 -199h-723q-12 -61 -12 -117q0 -111 51.5 -177t165.5 -66q168 0 338 151l102 -98q-184 -197 -463 -197q-94 0 -166 32t-115 88t-64 126.5t-21 153.5zM397 608h561q5 62 5 70 q0 235 -211 235q-110 0 -209.5 -81.5t-145.5 -223.5zM494 1487h229l147 -305h-112z" />
<glyph unicode="&#xe9;" horiz-adv-x="1095" d="M195 375q0 126 38.5 246t108.5 217t180 156t242 59q177 0 273 -104t96 -271q0 -114 -31 -199h-723q-12 -61 -12 -117q0 -111 51.5 -177t165.5 -66q168 0 338 151l102 -98q-184 -197 -463 -197q-94 0 -166 32t-115 88t-64 126.5t-21 153.5zM397 608h561q5 62 5 70 q0 235 -211 235q-110 0 -209.5 -81.5t-145.5 -223.5zM686 1180l279 307h256l-394 -307h-141z" />
<glyph unicode="&#xea;" horiz-adv-x="1095" d="M195 375q0 126 38.5 246t108.5 217t180 156t242 59q177 0 273 -104t96 -271q0 -114 -31 -199h-723q-12 -61 -12 -117q0 -111 51.5 -177t165.5 -66q168 0 338 151l102 -98q-184 -197 -463 -197q-94 0 -166 32t-115 88t-64 126.5t-21 153.5zM397 608h561q5 62 5 70 q0 235 -211 235q-110 0 -209.5 -81.5t-145.5 -223.5zM446 1184l320 305h133l197 -305h-121l-160 168l-225 -168h-144z" />
<glyph unicode="&#xeb;" horiz-adv-x="1095" d="M195 375q0 126 38.5 246t108.5 217t180 156t242 59q177 0 273 -104t96 -271q0 -114 -31 -199h-723q-12 -61 -12 -117q0 -111 51.5 -177t165.5 -66q168 0 338 151l102 -98q-184 -197 -463 -197q-94 0 -166 32t-115 88t-64 126.5t-21 153.5zM397 608h561q5 62 5 70 q0 235 -211 235q-110 0 -209.5 -81.5t-145.5 -223.5zM543 1380q0 38 27 65.5t65 27.5t66 -27.5t28 -65.5q0 -39 -27.5 -66.5t-66.5 -27.5q-38 0 -65 27t-27 67zM907 1380q0 38 27 65.5t65 27.5t66.5 -27.5t28.5 -65.5q0 -39 -28 -66.5t-67 -27.5q-38 0 -65 27t-27 67z" />
<glyph unicode="&#xec;" horiz-adv-x="493" d="M143 0l219 1030h173l-220 -1030h-172zM172 1487h227l148 -305h-113z" />
<glyph unicode="&#xed;" horiz-adv-x="493" d="M143 0l219 1030h173l-220 -1030h-172zM365 1180l278 307h256l-393 -307h-141z" />
<glyph unicode="&#xee;" horiz-adv-x="493" d="M143 1184l320 305h133l197 -305h-121l-162 168l-223 -168h-144zM152 0l219 1030h170l-217 -1030h-172z" />
<glyph unicode="&#xef;" horiz-adv-x="493" d="M143 0l219 1030h173l-220 -1030h-172zM203 1380q0 38 28 65.5t66 27.5t65 -27.5t27 -65.5q0 -40 -27 -67t-65 -27q-39 0 -66.5 27.5t-27.5 66.5zM567 1380q0 38 27.5 65.5t67.5 27.5q38 0 65 -27.5t27 -65.5q0 -40 -27 -67t-65 -27q-40 0 -67.5 27t-27.5 67z" />
<glyph unicode="&#xf0;" horiz-adv-x="1179" d="M207 354q0 117 42 232.5t114 207.5t179.5 149.5t229.5 57.5q105 0 173 -35.5t110 -109.5q-12 186 -103 318l-227 -107l-68 90l211 98q-62 64 -145 97l72 114q17 -10 53 -30.5t56.5 -32.5t48 -32t48.5 -40l148 70l68 -90l-138 -66q121 -184 121 -442q0 -116 -22 -230 t-71 -222.5t-119.5 -191t-176.5 -132.5t-233 -50q-175 0 -273 103t-98 274zM381 362q0 -118 60.5 -179.5t164.5 -61.5q90 0 165.5 43.5t123 113.5t74 154.5t26.5 169.5q0 52 -11.5 95.5t-36.5 81.5t-72.5 59.5t-112.5 21.5q-89 0 -163.5 -46.5t-120.5 -120t-71.5 -160 t-25.5 -171.5z" />
<glyph unicode="&#xf1;" horiz-adv-x="1112" d="M143 0l219 1030h173l-29 -129q127 152 319 152q150 0 220.5 -76t70.5 -213q0 -74 -18 -156l-129 -608h-172l129 612q16 75 16 127q0 81 -39.5 123.5t-128.5 42.5q-124 0 -218 -103t-128 -270l-113 -532h-172zM457 1219q30 95 99 162t155 67q45 0 86 -18t66.5 -39.5 t56 -39.5t57.5 -18q36 0 61.5 29t48.5 82l113 -10q-37 -104 -104 -168t-150 -64q-44 0 -85.5 18.5t-68 40t-58 40t-56.5 18.5q-62 0 -107 -109z" />
<glyph unicode="&#xf2;" horiz-adv-x="1136" d="M195 377q0 128 42 249t117 216.5t189 153t248 57.5q177 0 274.5 -114t97.5 -294q0 -127 -38.5 -245.5t-110 -214.5t-184.5 -154t-250 -58q-177 0 -281 111.5t-104 292.5zM371 367q0 -123 57.5 -185.5t161.5 -62.5q96 0 174.5 51t125.5 131.5t72 172.5t25 183 q0 53 -10.5 96t-34 80.5t-68 58.5t-106.5 21q-89 0 -166 -52.5t-126 -133.5t-77 -176t-28 -184zM496 1487h229l147 -305h-112z" />
<glyph unicode="&#xf3;" horiz-adv-x="1136" d="M195 377q0 128 42 249t117 216.5t189 153t248 57.5q177 0 274.5 -114t97.5 -294q0 -127 -38.5 -245.5t-110 -214.5t-184.5 -154t-250 -58q-177 0 -281 111.5t-104 292.5zM371 367q0 -123 57.5 -185.5t161.5 -62.5q96 0 174.5 51t125.5 131.5t72 172.5t25 183 q0 53 -10.5 96t-34 80.5t-68 58.5t-106.5 21q-89 0 -166 -52.5t-126 -133.5t-77 -176t-28 -184zM688 1180l279 307h258l-396 -307h-141z" />
<glyph unicode="&#xf4;" horiz-adv-x="1136" d="M195 377q0 128 42 249t117 216.5t189 153t248 57.5q177 0 274.5 -114t97.5 -294q0 -127 -38.5 -245.5t-110 -214.5t-184.5 -154t-250 -58q-177 0 -281 111.5t-104 292.5zM371 367q0 -123 57.5 -185.5t161.5 -62.5q96 0 174.5 51t125.5 131.5t72 172.5t25 183 q0 53 -10.5 96t-34 80.5t-68 58.5t-106.5 21q-89 0 -166 -52.5t-126 -133.5t-77 -176t-28 -184zM463 1184l321 305h131l197 -305h-121l-160 168l-223 -168h-145z" />
<glyph unicode="&#xf5;" horiz-adv-x="1136" d="M195 377q0 128 42 249t117 216.5t189 153t248 57.5q177 0 274.5 -114t97.5 -294q0 -127 -38.5 -245.5t-110 -214.5t-184.5 -154t-250 -58q-177 0 -281 111.5t-104 292.5zM371 367q0 -123 57.5 -185.5t161.5 -62.5q96 0 174.5 51t125.5 131.5t72 172.5t25 183 q0 53 -10.5 96t-34 80.5t-68 58.5t-106.5 21q-89 0 -166 -52.5t-126 -133.5t-77 -176t-28 -184zM471 1219q30 95 99 162t155 67q44 0 85 -18t66.5 -39.5t56.5 -39.5t58 -18q63 0 111 111l112 -10q-37 -104 -103.5 -168t-149.5 -64q-44 0 -86 18.5t-69 40t-58 40t-56 18.5 q-61 0 -106 -109z" />
<glyph unicode="&#xf6;" horiz-adv-x="1136" d="M195 377q0 128 42 249t117 216.5t189 153t248 57.5q177 0 274.5 -114t97.5 -294q0 -127 -38.5 -245.5t-110 -214.5t-184.5 -154t-250 -58q-177 0 -281 111.5t-104 292.5zM371 367q0 -123 57.5 -185.5t161.5 -62.5q96 0 174.5 51t125.5 131.5t72 172.5t25 183 q0 53 -10.5 96t-34 80.5t-68 58.5t-106.5 21q-89 0 -166 -52.5t-126 -133.5t-77 -176t-28 -184zM565 1380q0 38 27.5 65.5t66.5 27.5q38 0 65.5 -27.5t27.5 -65.5q0 -40 -27 -67t-66 -27q-40 0 -67 27t-27 67zM930 1380q0 38 27 65.5t65 27.5q40 0 67 -27.5t27 -65.5 q0 -40 -27 -67t-67 -27q-38 0 -65 27t-27 67z" />
<glyph unicode="&#xf7;" horiz-adv-x="1284" d="M203 571l33 150h1120l-33 -150h-1120zM573 231q0 51 35 86t86 35t87 -35t36 -86t-36 -86.5t-87 -35.5t-86 35.5t-35 86.5zM741 1065q0 51 36 86t87 35t86 -35t35 -86t-35 -87t-86 -36t-87 36t-36 87z" />
<glyph unicode="&#xf8;" horiz-adv-x="1136" d="M195 -57l102 143q-102 111 -102 291q0 129 40 249.5t112.5 216.5t184.5 154t246 58q103 0 187 -43l88 123l127 -29l-121 -166q104 -113 104 -295q0 -127 -38.5 -245.5t-110 -214.5t-184.5 -154t-250 -58q-107 0 -187 41l-71 -98zM371 367q0 -82 28 -140l478 662 q-43 24 -109 24q-89 0 -166 -52.5t-126 -133.5t-77 -176t-28 -184zM483 141q43 -22 107 -22q96 0 174.5 51t125.5 131.5t72 172.5t25 183q0 85 -26 144z" />
<glyph unicode="&#xf9;" horiz-adv-x="1097" d="M201 266q0 74 18 156l129 608h172l-129 -612q-16 -75 -16 -127q0 -81 39.5 -123.5t128.5 -42.5q124 0 218 103t128 270l112 532h173l-220 -1030h-172l29 129q-127 -152 -319 -152q-150 0 -220.5 76t-70.5 213zM506 1487h229l148 -305h-113z" />
<glyph unicode="&#xfa;" horiz-adv-x="1097" d="M201 266q0 74 18 156l129 608h172l-129 -612q-16 -75 -16 -127q0 -81 39.5 -123.5t128.5 -42.5q124 0 218 103t128 270l112 532h173l-220 -1030h-172l29 129q-127 -152 -319 -152q-150 0 -220.5 76t-70.5 213zM678 1180l278 307h256l-393 -307h-141z" />
<glyph unicode="&#xfb;" horiz-adv-x="1097" d="M201 266q0 74 18 156l129 608h172l-129 -612q-16 -75 -16 -127q0 -81 39.5 -123.5t128.5 -42.5q124 0 218 103t128 270l112 532h173l-220 -1030h-172l29 129q-127 -152 -319 -152q-150 0 -220.5 76t-70.5 213zM438 1184l322 305h131l196 -305h-120l-160 168l-223 -168 h-146z" />
<glyph unicode="&#xfc;" horiz-adv-x="1097" d="M201 266q0 74 18 156l129 608h172l-129 -612q-16 -75 -16 -127q0 -81 39.5 -123.5t128.5 -42.5q124 0 218 103t128 270l112 532h173l-220 -1030h-172l29 129q-127 -152 -319 -152q-150 0 -220.5 76t-70.5 213zM555 1380q0 38 27 65.5t65 27.5t66 -27.5t28 -65.5 q0 -39 -27.5 -66.5t-66.5 -27.5q-38 0 -65 27t-27 67zM920 1380q0 38 27 65.5t65 27.5t66 -27.5t28 -65.5q0 -39 -27.5 -66.5t-66.5 -27.5q-38 0 -65 27t-27 67z" />
<glyph unicode="&#xfd;" horiz-adv-x="1038" d="M74 -406l53 132q44 -15 76 -15q69 0 114 74l123 215l-143 1030h164l100 -848l475 848h193l-787 -1327q-39 -67 -107 -101t-142 -34q-66 0 -119 26zM668 1180l278 307h256l-393 -307h-141z" />
<glyph unicode="&#xfe;" horiz-adv-x="1138" d="M68 -410l395 1850h170l-115 -537q138 150 328 150q146 0 227.5 -100.5t81.5 -274.5q0 -93 -20.5 -189.5t-64.5 -189t-104.5 -164.5t-148.5 -116t-190 -44q-185 0 -273 154l-114 -539h-172zM393 317q23 -95 83.5 -145.5t141.5 -50.5q73 0 134.5 37t102.5 95t69.5 132 t41.5 147t13 140q0 114 -50 175.5t-147 61.5q-96 0 -178.5 -67t-134.5 -174z" />
<glyph unicode="&#xff;" horiz-adv-x="1079" d="M84 -406l51 132q47 -15 76 -15q73 0 115 74l125 215l-144 1030h164l100 -848l473 848h193l-784 -1327q-39 -67 -107.5 -101t-142.5 -34q-68 0 -119 26zM512 1380q0 38 28 65.5t66 27.5t65 -27.5t27 -65.5q0 -40 -27 -67t-65 -27q-39 0 -66.5 27.5t-27.5 66.5zM877 1380 q0 38 28 65.5t66 27.5t65 -27.5t27 -65.5q0 -40 -27 -67t-65 -27q-39 0 -66.5 27.5t-27.5 66.5z" />
<glyph unicode="&#x152;" horiz-adv-x="2103" d="M236 535q0 91 18 182q31 153 107 290.5t182.5 240t245.5 162.5t288 60q131 0 281 -30h928l-33 -156h-748l-96 -455h563l-33 -153h-563l-110 -520h788l-33 -156h-950q-151 -29 -311 -29q-129 0 -230.5 45t-165 123t-96 179t-32.5 217zM422 561q0 -189 98 -312.5 t275 -123.5q174 0 295 47l235 1104q-112 45 -272 45q-112 0 -217 -51.5t-183.5 -137.5t-134.5 -194.5t-80 -224.5q-16 -82 -16 -152z" />
<glyph unicode="&#x153;" horiz-adv-x="1867" d="M193 360q0 101 25 201t76 189t121 157t166 108t205 40q124 0 213 -52.5t129 -146.5q82 95 188 147t220 52q176 0 267 -103.5t91 -271.5q0 -120 -32 -201h-725q-11 -68 -11 -117q0 -51 10.5 -92.5t34.5 -76.5t67.5 -54.5t104.5 -19.5q181 0 343 147l98 -92 q-182 -199 -463 -199q-120 0 -206 53.5t-126 153.5q-172 -207 -424 -207q-175 0 -273.5 104t-98.5 281zM371 369q0 -123 59 -186.5t164 -63.5q92 0 169 51t124.5 131t73.5 172.5t26 181.5q0 52 -11 96t-35 81.5t-68.5 59t-106.5 21.5q-92 0 -169.5 -52t-125.5 -133.5 t-74 -175.5t-26 -183zM1165 608h559q5 63 5 72q0 233 -211 233q-117 0 -211.5 -80.5t-141.5 -224.5z" />
<glyph unicode="&#x178;" horiz-adv-x="1296" d="M336 1440h188l258 -707l568 707h221l-725 -871l-121 -569h-178l123 578zM678 1667q0 40 27 67t65 27q39 0 66.5 -27.5t27.5 -66.5q0 -38 -28 -65t-66 -27t-65 27t-27 65zM1042 1667q0 39 27 66.5t66 27.5q38 0 65 -27t27 -67q0 -38 -27 -65t-65 -27t-65.5 27t-27.5 65z " />
<glyph unicode="&#x2c6;" horiz-adv-x="935" d="M395 1184l320 305h133l196 -305h-120l-162 168l-223 -168h-144z" />
<glyph unicode="&#x2dc;" horiz-adv-x="983" d="M401 1219q30 95 99 162t155 67q45 0 86 -18t66.5 -39.5t56.5 -39.5t58 -18q36 0 61.5 29t48.5 82l113 -10q-37 -104 -104 -168t-150 -64q-43 0 -84.5 18.5t-68 40t-58.5 40t-57 18.5q-62 0 -107 -109z" />
<glyph unicode="&#x2000;" horiz-adv-x="958" />
<glyph unicode="&#x2001;" horiz-adv-x="1917" />
<glyph unicode="&#x2002;" horiz-adv-x="958" />
<glyph unicode="&#x2003;" horiz-adv-x="1917" />
<glyph unicode="&#x2004;" horiz-adv-x="639" />
<glyph unicode="&#x2005;" horiz-adv-x="479" />
<glyph unicode="&#x2006;" horiz-adv-x="319" />
<glyph unicode="&#x2007;" horiz-adv-x="319" />
<glyph unicode="&#x2008;" horiz-adv-x="239" />
<glyph unicode="&#x2009;" horiz-adv-x="383" />
<glyph unicode="&#x200a;" horiz-adv-x="106" />
<glyph unicode="&#x2010;" horiz-adv-x="727" d="M236 625l34 163h523l-35 -163h-522z" />
<glyph unicode="&#x2011;" horiz-adv-x="727" d="M236 625l34 163h523l-35 -163h-522z" />
<glyph unicode="&#x2012;" horiz-adv-x="727" d="M236 625l34 163h523l-35 -163h-522z" />
<glyph unicode="&#x2013;" horiz-adv-x="1015" d="M215 625l35 163h852l-35 -163h-852z" />
<glyph unicode="&#x2014;" horiz-adv-x="1280" d="M215 625l35 163h1116l-35 -163h-1116z" />
<glyph unicode="&#x2018;" horiz-adv-x="503" d="M285 956l329 514l125 -26l-258 -488h-196z" />
<glyph unicode="&#x2019;" horiz-adv-x="503" d="M274 950l258 490h195l-328 -514z" />
<glyph unicode="&#x201a;" horiz-adv-x="514" d="M25 -309l258 487h196l-329 -514z" />
<glyph unicode="&#x201c;" horiz-adv-x="866" d="M285 956l329 514l125 -26l-258 -488h-196zM647 956l330 514l125 -26l-258 -488h-197z" />
<glyph unicode="&#x201d;" horiz-adv-x="866" d="M274 950l258 490h195l-328 -514zM637 950l258 490h195l-328 -514z" />
<glyph unicode="&#x201e;" horiz-adv-x="876" d="M25 -309l258 487h196l-329 -514zM389 -309l256 487h197l-330 -514z" />
<glyph unicode="&#x2022;" horiz-adv-x="749" d="M285 731q0 103 72.5 176.5t174.5 73.5t174 -73.5t72 -176.5t-71.5 -175.5t-174.5 -72.5t-175 72.5t-72 175.5z" />
<glyph unicode="&#x2026;" horiz-adv-x="1146" d="M98 90q0 46 33.5 78.5t79.5 32.5t78.5 -32.5t32.5 -78.5t-32.5 -78t-78.5 -32t-79.5 32.5t-33.5 77.5zM481 90q0 46 33 78.5t80 32.5q46 0 78.5 -32.5t32.5 -78.5t-32.5 -78t-78.5 -32q-47 0 -80 32t-33 78zM864 90q0 46 32.5 78.5t78.5 32.5t79 -32.5t33 -78.5t-33 -78 t-79 -32t-78.5 32t-32.5 78z" />
<glyph unicode="&#x202f;" horiz-adv-x="383" />
<glyph unicode="&#x2039;" horiz-adv-x="661" d="M207 586l428 461l149 -41l-411 -441l219 -413h-160z" />
<glyph unicode="&#x203a;" horiz-adv-x="673" d="M115 152l434 464l-203 383l131 58l240 -459l-418 -446h-184z" />
<glyph unicode="&#x205f;" horiz-adv-x="479" />
<glyph unicode="&#x20ac;" horiz-adv-x="1400" d="M109 508l38 131h172q6 41 15 84q9 39 14 55h-182l39 133h186q97 252 287 405.5t434 153.5q194 0 310.5 -101t152.5 -271l-164 -58q-27 127 -107 201t-223 74q-159 0 -290.5 -112t-210.5 -292h503l-41 -133h-510q-2 -10 -7 -30.5t-7 -30.5q-5 -24 -14 -78h522l-41 -131 h-487q3 -173 84.5 -277t242.5 -104q113 0 214.5 57.5t174.5 155.5l136 -100q-222 -271 -551 -271q-126 0 -221.5 41t-153.5 114.5t-86.5 170t-28.5 213.5h-200z" />
<glyph unicode="&#x2122;" horiz-adv-x="1544" d="M389 1346l21 94h561l-21 -94h-225l-139 -654h-107l139 654h-229zM911 692l160 748h125l84 -588l334 588h133l-158 -748h-104l102 473q0 2 13.5 60t13.5 59l-90 -160l-250 -432h-57q0 3 -33.5 240.5t-34.5 238.5q0 2 -7 57t-7 56q0 -3 -11 -59.5t-12 -59.5l-98 -473h-103z " />
<glyph unicode="&#x25fc;" horiz-adv-x="1034" d="M0 0v1034h1034v-1034h-1034z" />
</font>
</defs>
</svg>
