<svg version="1.1" id="Layer_1" xmlns="http://www.w3.org/2000/svg" xmlns:xlink="http://www.w3.org/1999/xlink" x="0" y="0" viewBox="0 0 10.6 10.6" xml:space="preserve"><style>.st3{clip-path:url(#SVGID_2_)}.st21{fill:#fff}</style><defs><path id="SVGID_1_" d="M-385.8-66.6h415v587.1h-415z"/></defs><clipPath id="SVGID_2_"><use xlink:href="#SVGID_1_" overflow="visible"/></clipPath><g class="st3"><defs><path id="SVGID_3_" d="M-385.8-66.6h415v587.1h-415z"/></defs><clipPath id="SVGID_4_"><use xlink:href="#SVGID_3_" overflow="visible"/></clipPath></g><g class="st3"><defs><path id="SVGID_5_" d="M-385.8-66.6h415v587.1h-415z"/></defs><clipPath id="SVGID_6_"><use xlink:href="#SVGID_5_" overflow="visible"/></clipPath></g><g class="st3"><defs><path id="SVGID_7_" d="M-385.8-66.6h415v587.1h-415z"/></defs><clipPath id="SVGID_8_"><use xlink:href="#SVGID_7_" overflow="visible"/></clipPath></g><g class="st3"><defs><path id="SVGID_15_" d="M-385.8-66.6h415v587.1h-415z"/></defs><clipPath id="SVGID_10_"><use xlink:href="#SVGID_15_" overflow="visible"/></clipPath></g><g class="st3"><defs><path id="SVGID_23_" d="M-385.8-66.6h415v587.1h-415z"/></defs><clipPath id="SVGID_12_"><use xlink:href="#SVGID_23_" overflow="visible"/></clipPath></g><g class="st3"><defs><path id="SVGID_25_" d="M-385.8-66.6h415v587.1h-415z"/></defs><clipPath id="SVGID_14_"><use xlink:href="#SVGID_25_" overflow="visible"/></clipPath></g><g class="st3"><defs><path id="SVGID_27_" d="M-385.8-66.6h415v587.1h-415z"/></defs><clipPath id="SVGID_16_"><use xlink:href="#SVGID_27_" overflow="visible"/></clipPath></g><g class="st3"><defs><path id="SVGID_29_" d="M-385.8-66.6h415v587.1h-415z"/></defs><clipPath id="SVGID_18_"><use xlink:href="#SVGID_29_" overflow="visible"/></clipPath></g><g class="st3"><defs><path id="SVGID_31_" d="M-385.8-66.6h415v587.1h-415z"/></defs><clipPath id="SVGID_20_"><use xlink:href="#SVGID_31_" overflow="visible"/></clipPath></g><g class="st3"><defs><path id="SVGID_33_" d="M-385.8-66.6h415v587.1h-415z"/></defs><clipPath id="SVGID_22_"><use xlink:href="#SVGID_33_" overflow="visible"/></clipPath><g clip-path="url(#SVGID_22_)"><path transform="rotate(-45.001 5.296 5.295)" class="st21" d="M4.8-1.7h1v14h-1z"/><path transform="rotate(-45.001 5.295 5.295)" class="st21" d="M-1.7 4.8h14v1h-14z"/></g></g></svg>