<svg xmlns="http://www.w3.org/2000/svg" xmlns:xlink="http://www.w3.org/1999/xlink" width="261" height="60" viewBox="0 0 261 60"><defs><path id="a" d="M184.945 6787.933h-2.39v14.506h9.473v-2.105h-7.083z"/><path id="b" d="M194.123 6802.439h2.368v-14.485h-2.368v7.243z"/><path id="c" d="M209.06 6798.734l-6.905-10.73-.032-.05h-2.359v14.485h2.39l-.022-10.801 6.945 10.75.032.05h2.32v-14.484h-2.369z"/><path id="d" d="M220.617 6789.713c1.556 0 2.813.915 3.45 2.51l.04.097 2.258-.848-.046-.105c-1.057-2.41-3.074-3.739-5.681-3.739-3.854 0-6.442 3.046-6.442 7.578 0 2.021.55 3.868 1.549 5.203 1.143 1.527 2.828 2.334 4.872 2.334 2.21 0 3.99-.958 5.146-2.769l.059-.093-2.017-1.255-.055.1c-.72 1.282-1.775 1.932-3.133 1.932-1.841 0-3.991-1.433-3.991-5.472 0-3.326 1.567-5.473 3.99-5.473z"/><path id="e" d="M234.453 6787.628c-3.854 0-6.442 3.046-6.442 7.578 0 4.521 2.588 7.558 6.442 7.558 3.852 0 6.44-3.037 6.44-7.558 0-4.532-2.588-7.578-6.44-7.578zm-.02 2.085c2.785 0 4.031 2.748 4.031 5.473 0 2.734-1.246 5.493-4.032 5.493-2.425 0-3.99-2.149-3.99-5.473 0-4.055 2.15-5.493 3.99-5.493z"/><path id="f" d="M246.05 6787.933h-2.388v14.506h9.472v-2.105h-7.084z"/><path id="g" d="M264.524 6798.734l-6.904-10.73-.032-.05h-2.36v14.485h2.389l-.02-10.801 6.944 10.75.032.05h2.319v-14.484h-2.368z"/><path id="h" d="M276.475 6802.439h2.369v-14.485h-2.37v7.243z"/><path id="i" d="M291.412 6798.734l-6.905-10.73-.032-.05h-2.36v14.485h2.39l-.02-10.801 6.945 10.75.031.05h2.32v-14.484h-2.369z"/><path id="j" d="M301.64 6793.722c-1.766-.527-2.663-1.011-2.663-2.189 0-1.148 1.001-1.861 2.612-1.861 1.56 0 2.566.506 3.588 1.806l.074.096 1.565-1.542-.075-.078c-.955-.972-2.262-2.305-5.07-2.305-2.326 0-5.042 1.054-5.042 4.025 0 1.94 1.225 3.142 4.095 4.022 2.63.797 3.963 1.439 3.963 2.737 0 1.407-1.074 2.246-2.875 2.246-1.787 0-2.955-.709-3.677-2.231l-.06-.129-1.677 1.45.042.076c1.061 1.95 2.805 2.898 5.331 2.898 3.186 0 5.244-1.683 5.244-4.29 0-2.264-1.406-3.502-5.375-4.731z"/><path id="k" d="M308.688 6789.977h4.2v12.462h2.39v-12.462h4.222v-2.023h-10.812z"/><path id="l" d="M321.594 6802.439h2.37v-14.485h-2.37v7.394z"/><path id="m" d="M326.039 6789.977h4.2v12.462h2.39v-12.462h4.222v-2.023h-10.812z"/><path id="n" d="M347.646 6796.708c0 2.755-.956 3.931-3.2 3.931-2.3 0-3.281-1.224-3.281-4.093v-8.593h-2.369v7.842c0 3.435.669 6.948 5.63 6.948 4.925 0 5.589-3.595 5.589-7.11v-7.68h-2.369z"/><path id="o" d="M351.97 6789.977h4.202v12.462h2.389v-12.462h4.222v-2.023H351.97z"/><path id="p" d="M367.246 6800.415v-4.532h5.562v-2.024h-5.562v-3.862h7.348v-2.044h-9.717v14.485H375v-2.023z"/><path id="q" d="M186.815 6823.022c-3.113 0-4.857-2.506-4.857-5.712 0-3.223 1.744-5.729 4.857-5.729 3.112 0 4.856 2.506 4.856 5.729 0 3.206-1.744 5.712-4.856 5.712zm-.016-10.009c-2.07 0-3.144 1.962-3.144 4.297 0 2.349 1.074 4.28 3.144 4.28 2.055 0 3.175-1.946 3.175-4.296 0-2.35-1.12-4.281-3.175-4.281z"/><path id="r" d="M195.651 6813.216v3.175h4.233v1.37h-4.233v5.012h-1.65v-10.943h7.27v1.386z"/><path id="s" d="M208.01 6822.773v-10.958h1.666v9.51h5.432v1.448z"/><path id="t" d="M224.724 6822.773l-.965-2.71h-4.405l-.965 2.71h-1.775l4.125-10.943h1.696l4.063 10.943zm-3.144-9.215l-1.775 5.168h3.518z"/><path id="u" d="M235.526 6822.773l-5.48-8.483.017 8.483h-1.666v-10.942h1.68l5.449 8.467v-8.467h1.65v10.942z"/><path id="v" d="M243.308 6822.772h-3.393v-10.942h3.424c3.41 0 5.277 1.665 5.277 5.417 0 3.782-1.837 5.541-5.308 5.525zm.031-9.525h-1.743v8.125h1.681c2.568-.016 3.673-1.309 3.673-4.078 0-2.709-1.089-4.03-3.61-4.047z"/><path id="w" d="M260.212 6818.414h-2.74v4.36h-1.65v-10.944h4.312c2.24 0 4.03.64 4.03 3.237 0 2.57-1.913 3.347-3.952 3.347zm-.25-5.245h-2.49v3.906h2.63c1.308 0 2.429-.42 2.429-1.96 0-1.697-1.198-1.946-2.568-1.946z"/><path id="x" d="M270.618 6823.022c-3.112 0-4.856-2.506-4.856-5.712 0-3.223 1.744-5.729 4.856-5.729 3.113 0 4.857 2.506 4.857 5.729 0 3.206-1.744 5.712-4.857 5.712zm-.015-10.009c-2.07 0-3.144 1.962-3.144 4.297 0 2.349 1.074 4.28 3.144 4.28 2.055 0 3.175-1.946 3.175-4.296 0-2.35-1.12-4.281-3.175-4.281z"/><path id="y" d="M277.804 6822.773v-10.958h1.666v9.51h5.432v1.448z"/><path id="z" d="M286.716 6822.773v-10.942h1.65v10.942z"/><path id="A" d="M298.255 6814.99c-.467-1.167-1.416-1.977-2.724-1.977-2.07 0-3.144 1.93-3.144 4.282 0 2.272 1.027 4.28 3.144 4.28 1.183 0 1.977-.64 2.475-1.525l1.4.87c-.793 1.246-2.069 2.087-3.875 2.087-3.33 0-4.84-2.787-4.84-5.697 0-3.222 1.742-5.728 4.856-5.728 2.164 0 3.564 1.182 4.28 2.817z"/><path id="B" d="M306.275 6818.352v4.42h-1.649v-4.403l-3.985-6.538h1.914l2.91 5.12 2.974-5.12h1.915z"/><path id="C" d="M167.998 6822.859h-20.442v-3.308h17.135v-52.626h-47.235v14.149h-3.308v-17.455h53.85z"/><path id="D" d="M123.636 6822.859h16.131v-7.324h-18.245v-26.716h-7.375v34.04z"/></defs><use fill="#fff" xlink:href="#a" transform="translate(-114 -6763)"/><use fill="#fff" xlink:href="#b" transform="translate(-114 -6763)"/><use fill="#fff" xlink:href="#c" transform="translate(-114 -6763)"/><use fill="#fff" xlink:href="#d" transform="translate(-114 -6763)"/><use fill="#fff" xlink:href="#e" transform="translate(-114 -6763)"/><use fill="#fff" xlink:href="#f" transform="translate(-114 -6763)"/><use fill="#fff" xlink:href="#g" transform="translate(-114 -6763)"/><use fill="#fff" xlink:href="#h" transform="translate(-114 -6763)"/><use fill="#fff" xlink:href="#i" transform="translate(-114 -6763)"/><use fill="#fff" xlink:href="#j" transform="translate(-114 -6763)"/><use fill="#fff" xlink:href="#k" transform="translate(-114 -6763)"/><use fill="#fff" xlink:href="#l" transform="translate(-114 -6763)"/><use fill="#fff" xlink:href="#m" transform="translate(-114 -6763)"/><use fill="#fff" xlink:href="#n" transform="translate(-114 -6763)"/><use fill="#fff" xlink:href="#o" transform="translate(-114 -6763)"/><use fill="#fff" xlink:href="#p" transform="translate(-114 -6763)"/><use fill="#fff" xlink:href="#q" transform="translate(-114 -6763)"/><use fill="#fff" xlink:href="#r" transform="translate(-114 -6763)"/><use fill="#fff" xlink:href="#s" transform="translate(-114 -6763)"/><use fill="#fff" xlink:href="#t" transform="translate(-114 -6763)"/><use fill="#fff" xlink:href="#u" transform="translate(-114 -6763)"/><use fill="#fff" xlink:href="#v" transform="translate(-114 -6763)"/><use fill="#fff" xlink:href="#w" transform="translate(-114 -6763)"/><use fill="#fff" xlink:href="#x" transform="translate(-114 -6763)"/><use fill="#fff" xlink:href="#y" transform="translate(-114 -6763)"/><use fill="#fff" xlink:href="#z" transform="translate(-114 -6763)"/><use fill="#fff" xlink:href="#A" transform="translate(-114 -6763)"/><use fill="#fff" xlink:href="#B" transform="translate(-114 -6763)"/><use fill="#fff" xlink:href="#C" transform="translate(-114 -6763)"/><use fill="#98c93c" xlink:href="#D" transform="translate(-114 -6763)"/></svg>