<svg version="1.1" id="Layer_1" xmlns="http://www.w3.org/2000/svg" x="0" y="0" viewBox="0 0 465.4 270.8" xml:space="preserve"><style>.st1{fill:#48535b}.st3{fill:#fff}</style><switch><g><linearGradient id="SVGID_1_" gradientUnits="userSpaceOnUse" x1="-1942.629" y1="-1122" x2="-1942.629" y2="-1123"><stop offset="0" stop-color="#656565"/><stop offset=".618" stop-color="#1b1b1b"/><stop offset=".629" stop-color="#545454"/><stop offset=".983" stop-color="#3e3e3e"/></linearGradient><path fill="none" stroke="#48535b" stroke-miterlimit="10" d="M463.4 238h-418V0"/><path class="st1" d="M170.7 264.6c-1.5 1.2-2.4 1.7-2.8 2.5h4.7v1h-6c0-1.8 2.1-3.1 3.4-4.1.9-.8 1.7-1.4 1.7-2.5s-.8-1.8-2-1.8c-1 0-1.7.8-2 1.4l-.8-.5c.4-1.1 1.5-1.8 2.8-1.8 1.8 0 3 1 3 2.7.1 1.2-.7 2.1-2 3.1zM177.7 268.2c-2.2 0-3.4-1.9-3.4-4.7 0-2.8 1.2-4.7 3.4-4.7s3.4 1.9 3.4 4.7c0 2.8-1.3 4.7-3.4 4.7zm-.1-8.6c-1.6 0-2.3 1.7-2.3 3.8 0 2.2.7 3.8 2.3 3.8 1.5 0 2.3-1.7 2.3-3.8.1-2.1-.7-3.8-2.3-3.8zM183.8 268v-7.2c-.2.1-1.1.2-1.5.2h-.1v-.8c1.3 0 1.7-.6 1.8-1.3h1v9.1h-1.2zM190.9 264.6c-1.5 1.2-2.4 1.7-2.8 2.5h4.7v1h-6c0-1.8 2.1-3.1 3.4-4.1.9-.8 1.7-1.4 1.7-2.5s-.8-1.8-2-1.8c-1 0-1.7.8-2 1.4l-.8-.5c.4-1.1 1.5-1.8 2.8-1.8 1.8 0 3 1 3 2.7.1 1.2-.7 2.1-2 3.1zM69.4 264.6c-1.5 1.2-2.4 1.7-2.8 2.5h4.7v1h-6c0-1.8 2.1-3.1 3.4-4.1.9-.8 1.7-1.4 1.7-2.5s-.8-1.8-2-1.8c-1 0-1.7.8-2 1.4l-.8-.5c.4-1.1 1.5-1.8 2.8-1.8 1.8 0 3 1 3 2.7 0 1.2-.8 2.1-2 3.1zM76.3 268.2c-2.2 0-3.4-1.9-3.4-4.7 0-2.8 1.2-4.7 3.4-4.7s3.4 1.9 3.4 4.7c0 2.8-1.3 4.7-3.4 4.7zm0-8.6c-1.6 0-2.3 1.7-2.3 3.8 0 2.2.7 3.8 2.3 3.8 1.5 0 2.3-1.7 2.3-3.8 0-2.1-.8-3.8-2.3-3.8zM82.4 268v-7.2c-.2.1-1.1.2-1.5.2h-.1v-.8c1.3 0 1.7-.6 1.8-1.3h1v9.1h-1.2zM88.8 268.2c-2.2 0-3.4-1.9-3.4-4.7 0-2.8 1.2-4.7 3.4-4.7s3.4 1.9 3.4 4.7c.1 2.8-1.2 4.7-3.4 4.7zm0-8.6c-1.6 0-2.3 1.7-2.3 3.8 0 2.2.7 3.8 2.3 3.8 1.5 0 2.3-1.7 2.3-3.8 0-2.1-.7-3.8-2.3-3.8zM16.6 238.2c-2.2 0-3.4-1.9-3.4-4.7 0-2.8 1.2-4.7 3.4-4.7s3.4 1.9 3.4 4.7c0 2.8-1.2 4.7-3.4 4.7zm0-8.6c-1.6 0-2.3 1.7-2.3 3.8 0 2.2.7 3.8 2.3 3.8 1.5 0 2.3-1.7 2.3-3.8 0-2.1-.8-3.8-2.3-3.8zM23.4 234.5c-1.4 0-2.1-1.3-2.1-2.9 0-1.4.5-2.9 2.1-2.9s2.1 1.6 2.1 2.9c.1 1.4-.5 2.9-2.1 2.9zm0-5c-.8 0-1.2.9-1.2 2.2 0 .8.2 2.2 1.2 2.2s1.2-1.4 1.2-2.1-.1-2.3-1.2-2.3zm1.3 8.7l-.8-.1 5.1-9.5.8.1-5.1 9.5zm5.4-.1c-1.4 0-2.1-1.3-2.1-2.9 0-1.4.5-2.9 2.1-2.9s2.1 1.6 2.1 2.9c.1 1.4-.5 2.9-2.1 2.9zm0-5c-.8 0-1.2.9-1.2 2.2 0 .8.2 2.2 1.2 2.2s1.2-1.4 1.2-2.1-.1-2.3-1.2-2.3zM2.6 12V4.8c-.2.1-1.1.1-1.6.1H.9v-.8c1.3 0 1.7-.6 1.8-1.3h1V12H2.6zM9 12.2c-2.2 0-3.4-1.9-3.4-4.7 0-2.8 1.2-4.7 3.4-4.7s3.4 1.9 3.4 4.7c0 2.8-1.2 4.7-3.4 4.7zm0-8.6c-1.6 0-2.3 1.7-2.3 3.8 0 2.2.7 3.8 2.3 3.8 1.5 0 2.3-1.7 2.3-3.8 0-2.1-.7-3.8-2.3-3.8zM17.1 12.2c-2.2 0-3.4-1.9-3.4-4.7 0-2.8 1.2-4.7 3.4-4.7s3.4 1.9 3.4 4.7c.1 2.8-1.2 4.7-3.4 4.7zm0-8.6c-1.6 0-2.3 1.7-2.3 3.8 0 2.2.7 3.8 2.3 3.8 1.5 0 2.3-1.7 2.3-3.8 0-2.1-.7-3.8-2.3-3.8zM24 8.5c-1.4 0-2.1-1.3-2.1-2.9 0-1.4.5-2.9 2.1-2.9s2.1 1.6 2.1 2.9c0 1.4-.6 2.9-2.1 2.9zm0-5c-.8 0-1.2.9-1.2 2.2 0 .8.2 2.2 1.2 2.2s1.2-1.4 1.2-2.1S25 3.5 24 3.5zm1.2 8.7l-.8-.1 5.1-9.5.8.1-5.1 9.5zm5.5-.1c-1.4 0-2.1-1.3-2.1-2.9 0-1.4.5-2.9 2.1-2.9s2.1 1.6 2.1 2.9c0 1.4-.6 2.9-2.1 2.9zm0-5c-.8 0-1.2.9-1.2 2.2 0 .8.2 2.2 1.2 2.2s1.2-1.4 1.2-2.1-.2-2.3-1.2-2.3zM121.5 264.6c-1.5 1.2-2.4 1.7-2.8 2.5h4.7v1h-6c0-1.8 2.1-3.1 3.4-4.1.9-.8 1.7-1.4 1.7-2.5s-.8-1.8-2-1.8c-1 0-1.7.8-2 1.4l-.8-.5c.4-1.1 1.5-1.8 2.8-1.8 1.8 0 3 1 3 2.7 0 1.2-.7 2.1-2 3.1zM128.4 268.2c-2.2 0-3.4-1.9-3.4-4.7 0-2.8 1.2-4.7 3.4-4.7s3.4 1.9 3.4 4.7c0 2.8-1.2 4.7-3.4 4.7zm0-8.6c-1.6 0-2.3 1.7-2.3 3.8 0 2.2.7 3.8 2.3 3.8 1.5 0 2.3-1.7 2.3-3.8 0-2.1-.8-3.8-2.3-3.8zM134.5 268v-7.2c-.2.1-1.1.2-1.5.2h-.1v-.8c1.3 0 1.7-.6 1.8-1.3h1v9.1h-1.2zM139.5 268v-7.2c-.2.1-1.1.2-1.5.2h-.1v-.8c1.3 0 1.7-.6 1.8-1.3h1v9.1h-1.2z"/><g><path class="st1" d="M221.3 264.6c-1.5 1.2-2.4 1.7-2.8 2.5h4.7v1h-6c0-1.8 2.1-3.1 3.4-4.1.9-.8 1.7-1.4 1.7-2.5s-.8-1.8-2-1.8c-1 0-1.7.8-2 1.4l-.8-.5c.4-1.1 1.5-1.8 2.8-1.8 1.8 0 3 1 3 2.7 0 1.2-.7 2.1-2 3.1zM228.2 268.2c-2.2 0-3.4-1.9-3.4-4.7 0-2.8 1.2-4.7 3.4-4.7s3.4 1.9 3.4 4.7c0 2.8-1.2 4.7-3.4 4.7zm0-8.6c-1.6 0-2.3 1.7-2.3 3.8 0 2.2.7 3.8 2.3 3.8 1.5 0 2.3-1.7 2.3-3.8 0-2.1-.7-3.8-2.3-3.8zM234.3 268v-7.2c-.2.1-1.1.2-1.5.2h-.1v-.8c1.3 0 1.7-.6 1.8-1.3h1v9.1h-1.2zM240.4 268.2c-.8 0-1.4-.2-2-.6-.5-.4-.9-.9-1.1-1.5l.9-.5c.3 1.2 1.2 1.7 2.2 1.7 1.2 0 2.1-.5 2.1-1.8 0-1.2-.9-1.7-2.1-1.7h-1v-.9h.9c1.1 0 2-.4 2-1.6 0-.9-.6-1.6-1.9-1.6-1.1 0-1.7.7-2 1.4l-.9-.5c.4-.7 1.1-1.8 2.9-1.8 1.7 0 2.9.8 2.9 2.5 0 1.1-.5 1.7-1.5 2 1.2.2 1.8 1 1.8 2.2 0 1.6-1.2 2.7-3.2 2.7z"/></g><g><path class="st1" d="M271.7 264.6c-1.5 1.2-2.4 1.7-2.8 2.5h4.7v1h-6c0-1.8 2.1-3.1 3.4-4.1.9-.8 1.7-1.4 1.7-2.5s-.8-1.8-2-1.8c-1 0-1.7.8-2 1.4l-.8-.5c.4-1.1 1.5-1.8 2.8-1.8 1.8 0 3 1 3 2.7 0 1.2-.7 2.1-2 3.1zM278.6 268.2c-2.2 0-3.4-1.9-3.4-4.7 0-2.8 1.2-4.7 3.4-4.7s3.4 1.9 3.4 4.7c0 2.8-1.2 4.7-3.4 4.7zm0-8.6c-1.6 0-2.3 1.7-2.3 3.8 0 2.2.7 3.8 2.3 3.8 1.5 0 2.3-1.7 2.3-3.8 0-2.1-.8-3.8-2.3-3.8zM284.7 268v-7.2c-.2.1-1.1.2-1.5.2h-.1v-.8c1.3 0 1.7-.6 1.8-1.3h1v9.1h-1.2zM293.3 265.8v2.2h-1v-2.2h-4.5v-.8l4.4-6.1h1.1v6.1h1.2v.9h-1.2zm-1-5.5l-3.4 4.7h3.4v-4.7z"/></g><g><path class="st1" d="M322.4 264.6c-1.5 1.2-2.4 1.7-2.8 2.5h4.7v1h-6c0-1.8 2.1-3.1 3.4-4.1.9-.8 1.7-1.4 1.7-2.5s-.8-1.8-2-1.8c-1 0-1.7.8-2 1.4l-.8-.5c.4-1.1 1.5-1.8 2.8-1.8 1.8 0 3 1 3 2.7 0 1.2-.7 2.1-2 3.1zM329.3 268.2c-2.2 0-3.4-1.9-3.4-4.7 0-2.8 1.2-4.7 3.4-4.7s3.4 1.9 3.4 4.7c.1 2.8-1.2 4.7-3.4 4.7zm0-8.6c-1.6 0-2.3 1.7-2.3 3.8 0 2.2.7 3.8 2.3 3.8 1.5 0 2.3-1.7 2.3-3.8 0-2.1-.7-3.8-2.3-3.8zM335.5 268v-7.2c-.2.1-1.1.2-1.5.2h-.1v-.8c1.3 0 1.7-.6 1.8-1.3h1v9.1h-1.2zM341.6 268.2c-1.3 0-2.5-.5-3.1-1.7l.8-.6c.4.6 1 1.4 2.3 1.4 1.4 0 2.2-.9 2.2-2.3 0-1.3-.8-2.1-2.1-2.1-.8 0-1.5.3-1.9 1.1l-1-.3.2-4.8h5.2v1H340l-.2 2.9c.4-.4 1-.8 2-.8 1.9 0 3 1.2 3 3 .1 2-1.2 3.2-3.2 3.2z"/></g><g><path class="st1" d="M372.9 264.6c-1.5 1.2-2.4 1.7-2.8 2.5h4.7v1h-6c0-1.8 2.1-3.1 3.4-4.1.9-.8 1.7-1.4 1.7-2.5s-.8-1.8-2-1.8c-1 0-1.7.8-2 1.4l-.8-.5c.4-1.1 1.5-1.8 2.8-1.8 1.8 0 3 1 3 2.7 0 1.2-.7 2.1-2 3.1zM379.8 268.2c-2.2 0-3.4-1.9-3.4-4.7 0-2.8 1.2-4.7 3.4-4.7s3.4 1.9 3.4 4.7c0 2.8-1.2 4.7-3.4 4.7zm0-8.6c-1.6 0-2.3 1.7-2.3 3.8 0 2.2.7 3.8 2.3 3.8 1.5 0 2.3-1.7 2.3-3.8 0-2.1-.8-3.8-2.3-3.8zM385.9 268v-7.2c-.2.1-1.1.2-1.5.2h-.1v-.8c1.3 0 1.7-.6 1.8-1.3h1v9.1h-1.2zM392.3 268.2c-2.5 0-3.3-2.1-3.3-4 0-2.5 1.1-5.4 3.9-5.4.8 0 1.5.2 1.9.5l-.5.8c-.3-.2-.8-.4-1.4-.4-1.9 0-2.6 2-2.8 3.6.6-.7 1.4-1.1 2.5-1.1 1.8 0 3 1.1 3 3 0 1.8-1.4 3-3.3 3zm0-5.2c-1.3 0-2.3.8-2.3 2 0 .7.5 2.2 2.2 2.2 1.3 0 2.2-.8 2.2-2.1.1-1.3-.8-2.1-2.1-2.1z"/></g><g><path class="st1" d="M423.7 264.6c-1.5 1.2-2.4 1.7-2.8 2.5h4.7v1h-6c0-1.8 2.1-3.1 3.4-4.1.9-.8 1.7-1.4 1.7-2.5s-.8-1.8-2-1.8c-1 0-1.7.8-2 1.4l-.8-.5c.4-1.1 1.5-1.8 2.8-1.8 1.8 0 3 1 3 2.7.1 1.2-.7 2.1-2 3.1zM430.7 268.2c-2.2 0-3.4-1.9-3.4-4.7 0-2.8 1.2-4.7 3.4-4.7s3.4 1.9 3.4 4.7c0 2.8-1.3 4.7-3.4 4.7zm-.1-8.6c-1.6 0-2.3 1.7-2.3 3.8 0 2.2.7 3.8 2.3 3.8 1.5 0 2.3-1.7 2.3-3.8.1-2.1-.7-3.8-2.3-3.8zM436.8 268v-7.2c-.2.1-1.1.2-1.5.2h-.1v-.8c1.3 0 1.7-.6 1.8-1.3h1v9.1h-1.2zM442.6 268h-1.1c.2-2.9 1.4-5.9 3.2-8.2h-5v-1h6v.9c-2 2.7-2.9 5.2-3.1 8.3z"/></g><path fill="none" stroke="#fff" stroke-width="3.077" stroke-linecap="round" stroke-miterlimit="10" d="M75.4 125.5l75.7-3 41.1-14H230l57.9-15 72.6 2 77.9-11"/><g><path class="st3" d="M70.2 160.3c-2.4 0-4.6-1-5.6-3.2L66 156c.6 1.2 1.8 2.6 4.2 2.6 2.6 0 4.1-1.6 4.1-4.2 0-2.4-1.4-3.9-3.9-3.9-1.4 0-2.7.6-3.5 2l-1.8-.5.5-8.9h9.6v1.8h-7.9l-.3 5.3c.7-.8 1.9-1.5 3.7-1.5 3.5 0 5.6 2.2 5.6 5.5.1 3.9-2.4 6.1-6.1 6.1zM85.7 153.7c-2.8 2.1-4.5 3.2-5.1 4.5h8.6v1.8H78c0-3.3 3.8-5.8 6.3-7.7 1.8-1.4 3.1-2.6 3.1-4.5 0-2.1-1.5-3.3-3.6-3.3-1.9 0-3.2 1.4-3.6 2.6l-1.5-.9c.8-2 2.8-3.4 5.3-3.4 3.4 0 5.6 1.9 5.6 4.9-.2 2.6-1.6 4.1-3.9 6zM95.8 153.6c-2.6 0-3.9-2.4-3.9-5.3 0-2.5 1-5.4 4-5.4s3.9 3 3.9 5.4c-.1 2.4-1.2 5.3-4 5.3zm0-9.3c-1.5 0-2.3 1.8-2.3 4 0 1.5.4 4 2.3 4s2.3-2.5 2.3-3.9-.4-4.1-2.3-4.1zm2.3 16.1l-1.5-.2 9.4-17.5 1.5.2-9.4 17.5zm10-.1c-2.6 0-3.9-2.4-3.9-5.3 0-2.5 1-5.4 4-5.4s3.9 3 3.9 5.4c0 2.4-1.1 5.3-4 5.3zm.1-9.4c-1.5 0-2.3 1.8-2.3 4 0 1.5.4 4 2.3 4s2.3-2.5 2.3-3.9-.4-4.1-2.3-4.1z"/></g><g><path class="st3" d="M421.7 68h-2c.3-5.3 2.6-10.8 5.9-15h-9.2v-1.8h11.2V53c-3.9 4.7-5.6 9.2-5.9 15zM435.4 68.3c-4 0-6.3-3.5-6.3-8.7 0-5.3 2.3-8.8 6.3-8.8s6.3 3.5 6.3 8.8c0 5.2-2.3 8.7-6.3 8.7zm0-15.8c-2.9 0-4.2 3.1-4.2 7.1 0 4 1.3 7 4.2 7 2.9 0 4.3-3 4.3-7.1 0-4-1.5-7-4.3-7zM447.8 61.6c-2.6 0-3.9-2.4-3.9-5.3 0-2.5 1-5.4 4-5.4s3.9 3 3.9 5.4c0 2.4-1.1 5.3-4 5.3zm.1-9.3c-1.5 0-2.3 1.8-2.3 4 0 1.5.4 4 2.3 4s2.3-2.5 2.3-3.9-.4-4.1-2.3-4.1zm2.2 16.1l-1.5-.2 9.4-17.5 1.5.2-9.4 17.5zm10.1-.1c-2.6 0-3.9-2.4-3.9-5.3 0-2.5 1-5.4 4-5.4s3.9 3 3.9 5.4c0 2.4-1.1 5.3-4 5.3zm0-9.4c-1.5 0-2.3 1.8-2.3 4 0 1.5.4 4 2.3 4s2.3-2.5 2.3-3.9-.3-4.1-2.3-4.1z"/></g></g></switch></svg>