<svg xmlns="http://www.w3.org/2000/svg" xmlns:xlink="http://www.w3.org/1999/xlink" width="174" height="135" viewBox="0 0 174 135"><defs><path id="a" d="M823.02 2809.187l-.933-4.3c-.671-3.094-1.342-6.19-1.836-9.317-.918-5.812-1.217-11.701-1.784-17.558-.675-6.984-1.73-13.926-2.876-20.848-.977-5.9-2.255-12.233-6.645-16.292 4.434-2.387 6.462-7.866 6.053-12.885-.287-3.527-1.526-6.873-2.987-10.066-.582-1.273-3.526-7.047-5.059-3.672-.04.088-4.66-3.087-5.237 1.253.182-1.356-3.133-2.534-4.13-1.753-.941.736-1.186 2.08-1.024 3.265-1.004-.617-2.399-.513-3.302.245-.902.758-1.245 2.113-.812 3.21-.995-.714-2.49.158-2.854 1.327-.363 1.17.035 2.426.431 3.585-.797-1.387-3.116-1.477-4.018-.156-.749 1.096-.445 2.632.285 3.74.73 1.109 1.812 1.929 2.739 2.879 1.739 1.783 2.928 4.017 4.298 6.098 1.37 2.08 3.031 4.104 5.31 5.11 2.279 1.008 5.299.699 6.809-1.283 4.511 4.402 6.589 10.856 7.866 17.028 1.202 5.805 2.153 12.617 1.774 18.538-1.164-.501-1.837-2.458-2.472-3.56-.712-1.234-1.426-2.473-2.269-3.622-2.464-3.358-5.923-5.824-9.32-8.232.815 5.102 2.584 10.31 3.741 15.403.489 2.155.984 4.327 1.889 6.343.946 2.109 2.315 3.994 3.505 5.975 1.715 2.853 3.062 5.908 4.404 8.954l3.945 8.953c2.7 6.128 4.249 12.07 5.28 18.649.63.057 1.368.073 1.774-.413 1.04-1.245-.164-5.621-.462-6.997-.695-3.198-1.32-6.42-2.083-9.601z"/><path id="b" d="M867.876 2784.828c3.687 2.128 5.392 6.645 5.534 10.899.142 4.254-.984 8.434-1.616 12.643-.621 4.13-.77 8.342-1.763 12.4-.994 4.058-2.976 8.076-6.426 10.432-3.45 2.355-8.573 2.549-11.564-.368-2.961 2.508-8.673.609-11.287-2.26-2.614-2.867-3.572-6.833-4.402-10.624-1.473-6.724-2.842-13.527-2.857-20.41-.008-3.445.39-7.074 2.392-9.878 3.437-4.815 10.177-5.553 16.085-5.86-.401-2.654-1.601-3.57-3.586-5.036-.144-.106-.293-.217-.389-.37-.146-.227-.155-.52-.105-.785.847-4.55 4.968-.134 6.374 1.58 1.574 1.92 2.917 4.608 5.249 5.73 2.675 1.29 5.622.326 8.361 1.907z"/><path id="c" d="M853.385 2717.447l-4.553-5.348a3.063 3.063 0 0 0 1.69-1.195 27.778 27.778 0 0 0-12.126-5.097c-2.683-.426-5.75-.619-7.467-2.723-.937-1.146-1.292-2.69-2.272-3.8-.98-1.108-3.143-1.414-3.71-.047-.282.68-.026 1.447.203 2.146 1.478 4.521 1.763 9.331 2.037 14.08.246 4.258.584 8.447.678 12.718.016.723.156 1.623.847 1.841a.634.634 0 0 0 .326.022c.232-.052.39-.257.564-.42 2.547-2.41 6.532 6.67 7.49 8.146l9.895 15.227c2.903 4.47 5.823 8.96 9.403 12.907 3.16 3.485 6.999 6.614 11.583 7.67 5.729 1.317 12.138-1.073 15.604-5.82 3.466-4.75 3.79-11.582.788-16.637-1.116-1.88-2.624-3.493-4.12-5.089l-31.027-33.119c1.075 1.214 3.348 3.956 4.423 5.17z"/><path id="d" d="M916.976 2767.13c.84-2.014 2.221-4.076 4.353-4.54 2.132-.463 4.65 1.833 3.62 3.756-2.243-.706-4.434 1.809-4.359 4.159.075 2.349 1.598 4.37 3.054 6.215 12.306-3.221 26.547 2.886 32.306 14.227 5.76 11.342 2.053 26.748-8.48 33.879-3.353 2.27-7.199 3.715-11.092 4.83-9.529 2.733-19.822 3.578-29.333.782-9.51-2.796-18.114-9.59-21.619-18.862-3.505-9.273-1.058-20.886 6.831-26.888 6.85-5.212 16.244-5.037 24.474-5.583-1.928-3.957-1.412-8.001.245-11.975z"/><path id="e" d="M934.936 2732.13c2.409-16.69-14.355-24.97-28.678-25.96-1.216-.083-2.449-.165-3.643.08-1.975.409-3.654 1.673-5.186 2.984-4.428 3.788-8.422 8.596-9.301 14.356-.917 6.012 1.682 11.949 4.324 17.426 1.102 2.285 2.273 4.627 4.199 6.277 3.121 2.673 7.564 3.013 11.673 3.05 9.474.087 20.696-1.892 24.708-10.476 1.129-2.415 1.523-5.098 1.904-7.737z"/></defs><use fill="#fff" xlink:href="#a" transform="translate(-785 -2698)"/><use fill="#fff" xlink:href="#b" transform="translate(-785 -2698)"/><use fill="#fff" xlink:href="#c" transform="translate(-785 -2698)"/><use fill="#fff" xlink:href="#d" transform="translate(-785 -2698)"/><use fill="#fff" xlink:href="#e" transform="translate(-785 -2698)"/></svg>