<svg xmlns="http://www.w3.org/2000/svg" xmlns:xlink="http://www.w3.org/1999/xlink" width="159" height="101" viewBox="0 0 159 101"><defs><path id="a" d="M615.786 2754.856v26.253h24.11v12.435h-24.11v20.726h-21.348v-20.726h-24.94v20.726h-21.347v-20.726h-24.94v20.726h-21.347v-20.726H481v-12.435h20.864v-26.253H481v-12.435h20.864v-16.199h.037l10.64-11.435 10.639 11.435h.031v16.199h24.94v-16.199h.037l10.64-11.435 10.639 11.435h.031v16.199h24.94v-16.199h.037l10.64-11.435 10.639 11.435h.032v16.199h24.11v12.435zm-67.636 26.254v-26.25h-24.94v26.25zm46.29 0v-26.25H569.5v26.25z"/></defs><use fill="#fff" xlink:href="#a" transform="translate(-481 -2714)"/></svg>