<svg version="1.1" id="Layer_1" xmlns="http://www.w3.org/2000/svg" x="0" y="0" viewBox="0 0 418 235.3" xml:space="preserve"><style>.st1{fill:#51a1cf}.st3{fill:#fff}.st4{fill:#48535b}</style><switch><g><linearGradient id="SVGID_1_" gradientUnits="userSpaceOnUse" x1="-1629" y1="-381.552" x2="-1629" y2="-382.552"><stop offset="0" stop-color="#656565"/><stop offset=".618" stop-color="#1b1b1b"/><stop offset=".629" stop-color="#545454"/><stop offset=".983" stop-color="#3e3e3e"/></linearGradient><path fill="#98c93c" d="M-152-318.9v643.3"/><path class="st1" d="M19.5 79.9h39v122h-39zM89.2 64.4h39v138h-39zM158.9 58.4h39v144h-39zM228.6 49.4h39v153h-39zM298.3 43.4h39v159h-39zM368 29.4h39v173h-39z"/><path fill="none" stroke="#48535b" stroke-miterlimit="10" d="M0 202.4h418"/><path class="st3" d="M18.7 70.4V57.1c-.3.2-2 .3-2.8.3h-.2V56c2.4-.1 3.2-1.1 3.3-2.4h1.8v16.9h-2.1zM30.3 70.7c-4 0-6.3-3.5-6.3-8.7 0-5.3 2.3-8.8 6.3-8.8s6.3 3.5 6.3 8.8c0 5.2-2.3 8.7-6.3 8.7zm0-15.8c-2.9 0-4.2 3.1-4.2 7.1 0 4 1.3 7 4.2 7 2.9 0 4.3-3 4.3-7.1 0-3.9-1.5-7-4.3-7zM39.7 70.7c-.7 0-1.3-.6-1.3-1.3 0-.7.6-1.3 1.3-1.3.7 0 1.3.6 1.3 1.3 0 .7-.6 1.3-1.3 1.3zM48.9 70.7c-2.4 0-4.6-1-5.6-3.2l1.5-1.1c.6 1.2 1.8 2.6 4.2 2.6 2.6 0 4.1-1.6 4.1-4.2 0-2.4-1.4-3.9-3.9-3.9-1.4 0-2.7.6-3.5 2l-1.7-.4.5-8.9H54v1.8h-7.9l-.3 5.3c.7-.8 1.9-1.5 3.7-1.5 3.5 0 5.6 2.2 5.6 5.5 0 3.8-2.5 6-6.2 6zM65.7 70.4l-3.6-6.1-2.2 2.5v3.6H58V53.6h2v10.8l5.2-6h2.4l-4 4.5 4.5 7.6h-2.4zM92.7 53.4V40.1c-.3.2-2 .3-2.8.3h-.2V39c2.4-.1 3.2-1.1 3.3-2.4h1.8v16.9h-2.1zM100.9 53.4V40.1c-.3.2-2 .3-2.8.3h-.2V39c2.4-.1 3.2-1.1 3.3-2.4h1.8v16.9h-2.1zM107.6 53.7c-.7 0-1.3-.6-1.3-1.3 0-.7.6-1.3 1.3-1.3.7 0 1.3.6 1.3 1.3 0 .7-.6 1.3-1.3 1.3zM115.1 53.4h-2c.3-5.3 2.6-10.8 5.9-15h-9.2v-1.8H121v1.8c-3.9 4.7-5.6 9.3-5.9 15zM131.2 53.4l-3.6-6.1-2.2 2.5v3.6h-1.9V36.6h2v10.8l5.2-6h2.4l-4 4.5 4.5 7.6h-2.4zM159.7 49.4V36.1c-.3.2-2 .3-2.8.3h-.2V35c2.4-.1 3.2-1.1 3.3-2.4h1.8v16.9h-2.1zM172.2 43.1c-2.8 2.1-4.5 3.2-5.1 4.5h8.6v1.8h-11.2c0-3.3 3.8-5.8 6.3-7.7 1.8-1.4 3.1-2.6 3.1-4.5 0-2.1-1.5-3.3-3.6-3.3-1.9 0-3.2 1.4-3.6 2.6l-1.5-.9c.8-2 2.8-3.4 5.3-3.4 3.4 0 5.6 1.9 5.6 4.9-.2 2.6-1.5 4.2-3.9 6zM179.5 49.7c-.7 0-1.3-.6-1.3-1.3 0-.7.6-1.3 1.3-1.3.7 0 1.3.6 1.3 1.3 0 .7-.6 1.3-1.3 1.3zM188.8 49.7c-2.4 0-4.6-1-5.6-3.2l1.5-1.1c.6 1.2 1.8 2.6 4.2 2.6 2.6 0 4.1-1.6 4.1-4.2 0-2.4-1.4-3.9-3.9-3.9-1.4 0-2.7.6-3.5 2l-1.8-.5.5-8.9h9.6v1.8H186l-.3 5.3c.7-.8 1.9-1.5 3.7-1.5 3.5 0 5.6 2.2 5.6 5.5-.1 3.9-2.6 6.1-6.2 6.1zM205.5 49.4l-3.6-6.1-2.2 2.5v3.6h-1.9V32.6h2v10.8l5.2-6h2.4l-4 4.5 4.5 7.6h-2.4z"/><g><path class="st3" d="M228.7 40.4V27.1c-.3.2-2 .3-2.8.3h-.2V26c2.4-.1 3.2-1.1 3.3-2.4h1.8v16.9h-2.1zM239.2 40.7c-1.4 0-2.7-.4-3.6-1-1-.6-1.7-1.6-2.1-2.7l1.6-1c.6 2.1 2.2 3 4.1 3 2.2 0 3.9-1 3.9-3.3s-1.7-3.2-3.9-3.2h-1.9v-1.6h1.6c1.9 0 3.7-.6 3.7-3 0-1.6-1.1-3-3.5-3-2 0-3.2 1.3-3.6 2.6l-1.6-.9c.6-1.2 2-3.4 5.3-3.4 3.1 0 5.4 1.6 5.4 4.6 0 2.1-.9 3.1-2.8 3.8 2.2.3 3.4 1.8 3.4 4-.1 3.2-2.3 5.1-6 5.1zM248.8 40.7c-.7 0-1.3-.6-1.3-1.3 0-.7.6-1.3 1.3-1.3.7 0 1.3.6 1.3 1.3 0 .7-.6 1.3-1.3 1.3zM258 40.7c-1.4 0-2.7-.4-3.6-1-1-.6-1.7-1.6-2.1-2.7l1.6-1c.6 2.1 2.2 3 4.1 3 2.2 0 3.9-1 3.9-3.3s-1.7-3.2-3.9-3.2h-1.9v-1.6h1.6c1.9 0 3.7-.6 3.7-3 0-1.6-1.1-3-3.5-3-2 0-3.2 1.3-3.6 2.6l-1.6-.9c.6-1.2 2-3.4 5.3-3.4 3.1 0 5.4 1.6 5.4 4.6 0 2.1-.9 3.1-2.8 3.8 2.2.3 3.4 1.8 3.4 4-.1 3.2-2.3 5.1-6 5.1zM274.7 40.4l-3.6-6.1-2.2 2.5v3.6H267V23.6h2v10.8l5.2-6h2.4l-4 4.5 4.5 7.6h-2.4z"/></g><g><path class="st3" d="M296.7 34.4V21.1c-.3.2-2 .3-2.8.3h-.2V20c2.4-.1 3.2-1.1 3.3-2.4h1.8v16.9h-2.1zM307.2 34.7c-1.4 0-2.7-.4-3.6-1-1-.6-1.7-1.6-2.1-2.7l1.6-1c.6 2.1 2.2 3 4.1 3 2.2 0 3.9-1 3.9-3.3s-1.7-3.2-3.9-3.2h-1.9v-1.6h1.6c1.9 0 3.7-.6 3.7-3 0-1.6-1.1-3-3.5-3-2 0-3.2 1.3-3.6 2.6l-1.6-.9c.6-1.2 2-3.4 5.3-3.4 3.1 0 5.4 1.6 5.4 4.6 0 2.1-.9 3.1-2.8 3.8 2.2.3 3.4 1.8 3.4 4-.1 3.2-2.3 5.1-6 5.1zM316.8 34.7c-.7 0-1.3-.6-1.3-1.3 0-.7.6-1.3 1.3-1.3.7 0 1.3.6 1.3 1.3 0 .7-.6 1.3-1.3 1.3zM326.6 34.7c-4 0-6.2-2.1-6.2-5 0-2.3 1.4-3.5 3.3-4.3-1.6-.6-2.6-1.9-2.6-3.6 0-2.7 2.1-4.6 5.5-4.6 3.5 0 5.6 1.8 5.6 4.5 0 1.9-1.2 3.1-2.7 3.6 1.9.6 3.3 2.1 3.3 4.3-.1 3.1-2.4 5.1-6.2 5.1zm4.2-5c0-2.1-1.8-3.4-4.2-3.4-2.4 0-4.2 1.3-4.2 3.3 0 1.9 1.5 3.4 4.2 3.4s4.1-1.4 4.2-3.3c0 .1 0 0 0 0zm-4.2-10.8c-2.6 0-3.6 1.5-3.6 2.9 0 1.6 1.3 2.9 3.6 2.9s3.6-1.3 3.6-2.9c0-2-1.8-2.9-3.6-2.9zM343.3 34.4l-3.6-6.1-2.2 2.5v3.6h-1.9V17.6h2v10.8l5.2-6h2.4l-4 4.5 4.5 7.6h-2.4z"/></g><g><path class="st3" d="M373.7 20.4V7.1c-.3.2-2 .3-2.8.3h-.2V6c2.4-.1 3.2-1.1 3.3-2.4h1.8v16.9h-2.1zM384.5 20.7c-2.4 0-4.6-1-5.6-3.2l1.5-1.1c.6 1.2 1.8 2.6 4.2 2.6 2.6 0 4.1-1.6 4.1-4.2 0-2.4-1.4-3.9-3.9-3.9-1.4 0-2.7.6-3.5 2l-1.8-.5.5-8.9h9.6v1.8h-7.9l-.3 5.3c.7-.8 1.9-1.5 3.7-1.5 3.5 0 5.6 2.2 5.6 5.5-.1 3.9-2.5 6.1-6.2 6.1zM401.2 20.4l-3.6-6.1-2.2 2.5v3.6h-1.9V3.6h2v10.8l5.2-6h2.4l-4 4.5 4.5 7.6h-2.4z"/></g><g><path class="st4" d="M28.2 229c-1.5 1.2-2.4 1.7-2.8 2.5h4.7v1h-6c0-1.8 2.1-3.1 3.4-4.1.9-.8 1.7-1.4 1.7-2.5s-.8-1.8-2-1.8c-1 0-1.7.8-2 1.4l-.8-.5c.4-1.1 1.5-1.8 2.8-1.8 1.8 0 3 1 3 2.7 0 1.3-.7 2.1-2 3.1zM35.1 232.6c-2.2 0-3.4-1.9-3.4-4.7 0-2.8 1.2-4.7 3.4-4.7s3.4 1.9 3.4 4.7c0 2.8-1.2 4.7-3.4 4.7zm0-8.6c-1.6 0-2.3 1.7-2.3 3.8 0 2.2.7 3.8 2.3 3.8 1.5 0 2.3-1.7 2.3-3.8 0-2.1-.7-3.8-2.3-3.8zM41.2 232.4v-7.2c-.2.1-1.1.2-1.5.2h-.1v-.8c1.3 0 1.7-.6 1.8-1.3h1v9.1h-1.2zM48.4 229c-1.5 1.2-2.4 1.7-2.8 2.5h4.7v1h-6c0-1.8 2.1-3.1 3.4-4.1.9-.8 1.7-1.4 1.7-2.5s-.8-1.8-2-1.8c-1 0-1.7.8-2 1.4l-.8-.5c.4-1.1 1.5-1.8 2.8-1.8 1.8 0 3 1 3 2.7.1 1.3-.7 2.1-2 3.1z"/></g><g><path class="st4" d="M98.2 229c-1.5 1.2-2.4 1.7-2.8 2.5h4.7v1h-6c0-1.8 2.1-3.1 3.4-4.1.9-.8 1.7-1.4 1.7-2.5s-.8-1.8-2-1.8c-1 0-1.7.8-2 1.4l-.8-.5c.4-1.1 1.5-1.8 2.8-1.8 1.8 0 3 1 3 2.7 0 1.3-.7 2.1-2 3.1zM105.1 232.6c-2.2 0-3.4-1.9-3.4-4.7 0-2.8 1.2-4.7 3.4-4.7s3.4 1.9 3.4 4.7c0 2.8-1.2 4.7-3.4 4.7zm0-8.6c-1.6 0-2.3 1.7-2.3 3.8 0 2.2.7 3.8 2.3 3.8 1.5 0 2.3-1.7 2.3-3.8 0-2.1-.7-3.8-2.3-3.8zM111.3 232.4v-7.2c-.2.1-1.1.2-1.5.2h-.1v-.8c1.3 0 1.7-.6 1.8-1.3h1v9.1h-1.2zM117.3 232.6c-.8 0-1.4-.2-2-.6-.5-.4-.9-.9-1.1-1.5l.9-.5c.3 1.2 1.2 1.7 2.2 1.7 1.2 0 2.1-.5 2.1-1.8 0-1.2-.9-1.7-2.1-1.7h-1v-.9h.9c1.1 0 2-.4 2-1.6 0-.9-.6-1.6-1.9-1.6-1.1 0-1.7.7-2 1.4l-.9-.5c.4-.7 1.1-1.8 2.9-1.8 1.7 0 2.9.8 2.9 2.5 0 1.1-.5 1.7-1.5 2 1.2.2 1.8 1 1.8 2.2 0 1.6-1.2 2.7-3.2 2.7z"/></g><g><path class="st4" d="M170 229c-1.5 1.2-2.4 1.7-2.8 2.5h4.7v1h-6c0-1.8 2.1-3.1 3.4-4.1.9-.8 1.7-1.4 1.7-2.5s-.8-1.8-2-1.8c-1 0-1.7.8-2 1.4l-.8-.5c.4-1.1 1.5-1.8 2.8-1.8 1.8 0 3 1 3 2.7.1 1.3-.7 2.1-2 3.1zM177 232.6c-2.2 0-3.4-1.9-3.4-4.7 0-2.8 1.2-4.7 3.4-4.7s3.4 1.9 3.4 4.7c0 2.8-1.3 4.7-3.4 4.7zm-.1-8.6c-1.6 0-2.3 1.7-2.3 3.8 0 2.2.7 3.8 2.3 3.8 1.5 0 2.3-1.7 2.3-3.8.1-2.1-.7-3.8-2.3-3.8zM183.1 232.4v-7.2c-.2.1-1.1.2-1.5.2h-.1v-.8c1.3 0 1.7-.6 1.8-1.3h1v9.1h-1.2zM191.7 230.3v2.2h-1v-2.2h-4.5v-.8l4.4-6.1h1.1v6.1h1.2v.9h-1.2zm-1.1-5.6l-3.4 4.7h3.4v-4.7z"/></g><g><path class="st4" d="M238.2 229c-1.5 1.2-2.4 1.7-2.8 2.5h4.7v1h-6c0-1.8 2.1-3.1 3.4-4.1.9-.8 1.7-1.4 1.7-2.5s-.8-1.8-2-1.8c-1 0-1.7.8-2 1.4l-.8-.5c.4-1.1 1.5-1.8 2.8-1.8 1.8 0 3 1 3 2.7 0 1.3-.7 2.1-2 3.1zM245.1 232.6c-2.2 0-3.4-1.9-3.4-4.7 0-2.8 1.2-4.7 3.4-4.7s3.4 1.9 3.4 4.7c0 2.8-1.2 4.7-3.4 4.7zm0-8.6c-1.6 0-2.3 1.7-2.3 3.8 0 2.2.7 3.8 2.3 3.8 1.5 0 2.3-1.7 2.3-3.8 0-2.1-.7-3.8-2.3-3.8zM251.2 232.4v-7.2c-.2.1-1.1.2-1.5.2h-.1v-.8c1.3 0 1.7-.6 1.8-1.3h1v9.1h-1.2zM257.3 232.6c-1.3 0-2.5-.5-3.1-1.7l.8-.6c.4.6 1 1.4 2.3 1.4 1.4 0 2.2-.9 2.2-2.3 0-1.3-.8-2.1-2.1-2.1-.8 0-1.5.3-1.9 1.1l-1-.3.2-4.8h5.2v1h-4.3l-.2 2.9c.4-.4 1-.8 2-.8 1.9 0 3 1.2 3 3 .3 2-1.1 3.2-3.1 3.2z"/></g><g><path class="st4" d="M309.1 229c-1.5 1.2-2.4 1.7-2.8 2.5h4.7v1h-6c0-1.8 2.1-3.1 3.4-4.1.9-.8 1.7-1.4 1.7-2.5s-.8-1.8-2-1.8c-1 0-1.7.8-2 1.4l-.8-.5c.4-1.1 1.5-1.8 2.8-1.8 1.8 0 3 1 3 2.7 0 1.3-.7 2.1-2 3.1zM316 232.6c-2.2 0-3.4-1.9-3.4-4.7 0-2.8 1.2-4.7 3.4-4.7s3.4 1.9 3.4 4.7c0 2.8-1.2 4.7-3.4 4.7zm0-8.6c-1.6 0-2.3 1.7-2.3 3.8 0 2.2.7 3.8 2.3 3.8 1.5 0 2.3-1.7 2.3-3.8 0-2.1-.8-3.8-2.3-3.8zM322.1 232.4v-7.2c-.2.1-1.1.2-1.5.2h-.1v-.8c1.3 0 1.7-.6 1.8-1.3h1v9.1h-1.2zM328.5 232.6c-2.5 0-3.3-2.1-3.3-4 0-2.5 1.1-5.4 3.9-5.4.8 0 1.5.2 1.9.5l-.5.8c-.3-.2-.8-.4-1.4-.4-1.9 0-2.6 2-2.8 3.6.6-.7 1.4-1.1 2.5-1.1 1.8 0 3 1.1 3 3s-1.4 3-3.3 3zm0-5.1c-1.3 0-2.3.8-2.3 2 0 .7.5 2.2 2.2 2.2 1.3 0 2.2-.8 2.2-2.1.1-1.4-.8-2.1-2.1-2.1z"/></g><g><path class="st4" d="M378.4 229c-1.5 1.2-2.4 1.7-2.8 2.5h4.7v1h-6c0-1.8 2.1-3.1 3.4-4.1.9-.8 1.7-1.4 1.7-2.5s-.8-1.8-2-1.8c-1 0-1.7.8-2 1.4l-.8-.5c.4-1.1 1.5-1.8 2.8-1.8 1.8 0 3 1 3 2.7 0 1.3-.7 2.1-2 3.1zM385.3 232.6c-2.2 0-3.4-1.9-3.4-4.7 0-2.8 1.2-4.7 3.4-4.7s3.4 1.9 3.4 4.7c0 2.8-1.2 4.7-3.4 4.7zm0-8.6c-1.6 0-2.3 1.7-2.3 3.8 0 2.2.7 3.8 2.3 3.8 1.5 0 2.3-1.7 2.3-3.8 0-2.1-.8-3.8-2.3-3.8zM391.4 232.4v-7.2c-.2.1-1.1.2-1.5.2h-.1v-.8c1.3 0 1.7-.6 1.8-1.3h1v9.1h-1.2zM397.2 232.4h-1.1c.2-2.9 1.4-5.9 3.2-8.2h-5v-1h6v.9c-2 2.7-2.9 5.2-3.1 8.3z"/></g></g></switch></svg>