<svg version="1.1" id="Layer_1" xmlns="http://www.w3.org/2000/svg" x="0" y="0" viewBox="0 0 1000 55" xml:space="preserve"><style>.st0{fill:#48535b}.st1{fill:#88b723}</style><path class="st0" d="M33.4 40.3V16l-9.2 24.3h-3.5l-9.1-24.2v24.2H4.5V4.7h8.7L22.6 30l9.3-25.3h8.7v35.6h-7.2zM66.3 40.3c-1.9 0-3.3-.7-3.5-2.6-1.5 1.8-4.2 3.1-7.8 3.1-5.1 0-8.4-3.2-8.4-8.4 0-5.4 4.8-8.8 12-8.8 1.3 0 2.7.1 4.1.4v-1.6c0-2.5-1.4-3.8-4.6-3.8-2.6 0-4.3 1.1-5.6 3.1L48 19.3c2-3.4 4.8-5.6 11.1-5.6 6.5 0 10.1 2.9 10.1 9.1v13.7c0 .8.4 1.1 1.6 1.1v2.7h-4.5zm-3.6-11.4c-.5-.4-1.4-.7-3-.7-3.9 0-6.8 1.9-6.8 4.3 0 2.1 1.7 3.4 3.8 3.4 2.2 0 4.9-1.1 6-3.6v-3.4zM93.5 40.3l-6.3-11.7-3.5 4v7.7H77V4.7h6.7v19.8l8.6-10.1h8.1L92 23.6l9.2 16.8h-7.7zM109.8 11.6c-2.1 0-3.8-1.7-3.8-3.8 0-2.1 1.7-3.8 3.8-3.8 2.1 0 3.7 1.7 3.7 3.8 0 2.1-1.7 3.8-3.7 3.8zm-3.5 28.7V14.4h6.8v25.9h-6.8zM136.8 40.3V26c0-4.4-1.1-6.3-4.4-6.3-3.6 0-5.1 2.3-5.1 6.8v13.8h-6.7V14.4h6.7v2.8c1.3-1.7 3.4-3.4 7.3-3.4 7 0 9 5 9 11.1v15.3h-6.8zM160.9 51.1c-4.8 0-8-2.9-9.7-5.6l4.9-3.2c1 1.6 2.8 3.3 5.1 3.3 3.2 0 5.7-2.3 5.7-6v-1.7c-1.7 2-3.9 3-6.9 3-6.3 0-10.2-5.3-10.2-13.6 0-8.1 4.3-13.5 10.9-13.5 2.9 0 4.9 1.2 6.3 3.1v-2.5h6.7v23.4c-.2 8.6-4.9 13.3-12.8 13.3zm6-27c-.7-2.9-3-4.9-5.3-4.9-4.2 0-5.1 4.6-5.1 8 0 3.8.9 8.3 5.4 8.3 3.2 0 4.3-2 5.1-3.3v-8.1zM207.4 41.1c-6 0-10.1-1.9-13.6-6.4l4.6-4.4c2.3 3.3 5.2 4.9 9.5 4.9s6.4-2 6.4-4.7c0-2.5-3.2-4.5-8.1-5.8-8.2-2.2-11.9-4.9-11.9-10.4 0-7.2 6.4-10.4 13.2-10.4 6.5 0 10.1 2.5 13.3 5.5l-4.4 4.6c-2.6-2.9-5.2-4.3-9.3-4.3-3.4 0-5.9 1.4-5.9 4s2.2 3.6 6.4 4.8c8.5 2.3 13.6 5.3 13.6 11.7 0 6.6-4.8 10.9-13.8 10.9zM249.9 28.4c0 .2-.1.3-.1.6h-17.3c.2 3.6 1.9 6.7 5.9 6.7 2.5 0 4.5-.9 6.6-3.2l4.3 3.3c-2.6 3.2-6.2 5.2-11.2 5.2-7.6 0-12.3-5.6-12.3-13.7 0-8.6 5.3-13.6 12.2-13.6 8.4 0 12 6.4 12 14.1-.1.3-.1.5-.1.6zm-12-9.6c-3.1 0-4.9 2.3-5.4 5.7h10.7c-.2-3.2-1.7-5.7-5.3-5.7zM272 40.3V26c0-4.4-1.1-6.3-4.4-6.3-3.6 0-5.1 2.3-5.1 6.8v13.8h-6.7V14.4h6.7v2.8c1.3-1.7 3.4-3.4 7.3-3.4 7 0 9 5 9 11.1v15.3H272zM295.3 41c-4.8 0-7.7-1.7-10.4-4.2l3.4-4.2c2.1 2.1 4 3.1 7 3.1 2.6 0 4.2-1.1 4.2-2.7 0-1.7-1.3-2.2-5.4-3.5-4.2-1.3-8.8-2.5-8.8-8.1 0-5.7 5.1-7.7 9.9-7.7 4 0 7 .8 10.1 3.4l-3.4 4.3c-2.3-1.8-4.2-2.7-6.8-2.7-1.7 0-3.6.6-3.6 2.3 0 1.5 1.2 2 4.5 3 7.4 2.3 9.7 4.4 9.7 8.8-.1 5.1-4.1 8.2-10.4 8.2zM334.3 28.4c0 .2-.1.3-.1.6h-17.3c.2 3.6 1.9 6.7 5.9 6.7 2.5 0 4.5-.9 6.6-3.2l4.3 3.3c-2.6 3.2-6.2 5.2-11.2 5.2-7.6 0-12.3-5.6-12.3-13.7 0-8.6 5.3-13.6 12.1-13.6 8.4 0 12 6.4 12 14.1v.6zm-12-9.6c-3.1 0-4.9 2.3-5.4 5.7h10.7c-.2-3.2-1.7-5.7-5.3-5.7zM365.7 41c-7.8 0-12.5-5.5-12.5-13.5 0-8.1 4.7-13.8 12.7-13.8 8 0 12.6 5.4 12.6 13.6 0 7.7-4.6 13.7-12.8 13.7zm.2-21.9c-4.4 0-5.8 4-5.8 8.3 0 5.1 2.1 8.2 5.7 8.2 3.8 0 5.8-3.1 5.8-8.3 0-4.1-1.4-8.2-5.7-8.2zM391.6 19.5v20.9H385V19.5h-4v-5h3.9l-.1-2.8c0-4.9 2.5-7.4 6.9-7.4 2 0 3.8.5 5.1 1.3v4.7c-.7-1-1.8-1.4-2.9-1.4-1.9 0-2.4 1.4-2.4 3.2v2.4h5.5v5h-5.4zM432 27h-8.4v13.3h-7.1V4.7h15.3c7.5 0 13.3 2.4 13.3 10.9 0 8.4-6 11.4-13.1 11.4zm6-11.2c0-4.8-3.4-5.6-7.1-5.6h-7.3v11.3h7.6c3.8 0 6.8-1.3 6.8-5.7zM449.6 40.3V4.7h6.8v35.6h-6.8zM482.2 40.3c-1.9 0-3.3-.7-3.5-2.6-1.5 1.8-4.2 3.1-7.8 3.1-5.1 0-8.4-3.2-8.4-8.4 0-5.4 4.8-8.8 12-8.8 1.3 0 2.7.1 4.1.4v-1.6c0-2.5-1.4-3.8-4.6-3.8-2.6 0-4.3 1.1-5.6 3.1l-4.5-2.4c2-3.4 4.8-5.6 11.1-5.6 6.5 0 10.1 2.9 10.1 9.1v13.7c0 .8.4 1.1 1.6 1.1v2.7h-4.5zm-3.5-11.4c-.5-.4-1.4-.7-3-.7-3.9 0-6.8 1.9-6.8 4.3 0 2.1 1.7 3.4 3.8 3.4 2.2 0 4.9-1.1 6-3.6v-3.4zM504.1 41c-7.5 0-12.1-5.5-12.1-13.7 0-8.7 5.2-13.7 12.6-13.7 5.1 0 8.2 2.7 10.2 5.7l-5 3.3c-1.3-2.5-3-3.5-5.2-3.5-3.4 0-5.7 3-5.7 8.2 0 4.1 1.4 8.2 5.7 8.2 2.6 0 3.9-1.6 5.4-3.8l5 3.1c-2.7 4.2-6 6.2-10.9 6.2zM542.2 28.4c0 .2-.1.3-.1.6h-17.3c.2 3.6 1.9 6.7 5.9 6.7 2.5 0 4.5-.9 6.6-3.2l4.3 3.3C539 39 535.4 41 530.4 41c-7.6 0-12.3-5.6-12.3-13.7 0-8.6 5.3-13.6 12.2-13.6 8.4 0 12 6.4 12 14.1-.1.3-.1.5-.1.6zm-12-9.6c-3.1 0-4.9 2.3-5.4 5.7h10.7c-.3-3.2-1.7-5.7-5.3-5.7z"/><path class="st1" d="M576.9 10.4v29.9h-7.1V10.4h-10.2V4.7H587v5.7h-10.1zM606.5 40.3V25.6c0-3.6-.9-6.1-4.5-6.1-3.1 0-4.9 2.3-4.9 6.8v14h-6.7V4.7h6.7v12.1c1.4-1.8 3.7-3.2 7.2-3.2 6.9 0 9 4.8 9 10.8v15.8h-6.8zM643.2 28.4c0 .2-.1.3-.1.6h-17.3c.2 3.6 1.9 6.7 5.9 6.7 2.5 0 4.5-.9 6.6-3.2l4.3 3.3C640 39 636.4 41 631.4 41c-7.6 0-12.3-5.6-12.3-13.7 0-8.6 5.3-13.6 12.2-13.6 8.4 0 12 6.4 12 14.1 0 .3 0 .5-.1.6zm-11.9-9.6c-3.1 0-4.9 2.3-5.4 5.7h10.7c-.3-3.2-1.8-5.7-5.3-5.7zM663.2 40.3V4.7h7.1v29.6H687v6.1h-23.8zM695.4 11.6c-2.1 0-3.8-1.7-3.8-3.8 0-2.1 1.7-3.8 3.8-3.8 2.1 0 3.7 1.7 3.7 3.8.1 2.1-1.6 3.8-3.7 3.8zM692 40.3V14.4h6.8v25.9H692zM719.8 40.3h-6.6l-9-25.9h7.2l5.1 18.6 5.4-18.6h7.1l-9.2 25.9zM755.8 28.4c0 .2 0 .3-.1.6h-17.3c.2 3.6 1.9 6.7 5.9 6.7 2.5 0 4.5-.9 6.6-3.2l4.3 3.3C752.6 39 749 41 744 41c-7.6 0-12.3-5.6-12.3-13.7 0-8.6 5.3-13.6 12.1-13.6 8.4 0 12 6.4 12 14.1.1.3.1.5 0 .6zm-11.9-9.6c-3.1 0-4.9 2.3-5.4 5.7h10.7c-.3-3.2-1.8-5.7-5.3-5.7zM770.3 41c-4.8 0-7.7-1.7-10.4-4.2l3.4-4.2c2.1 2.1 4 3.1 7 3.1 2.6 0 4.2-1.1 4.2-2.7 0-1.7-1.3-2.2-5.4-3.5-4.2-1.3-8.8-2.5-8.8-8.1 0-5.7 5.1-7.7 9.9-7.7 4 0 7 .8 10.1 3.4l-3.4 4.3c-2.3-1.8-4.2-2.7-6.8-2.7-1.7 0-3.6.6-3.6 2.3 0 1.5 1.2 2 4.5 3 7.4 2.3 9.7 4.4 9.7 8.8 0 5.1-4 8.2-10.4 8.2zM811.8 41c-7.8 0-12.5-5.5-12.5-13.5 0-8.1 4.7-13.8 12.7-13.8 8 0 12.6 5.4 12.6 13.6 0 7.7-4.6 13.7-12.8 13.7zm.2-21.9c-4.4 0-5.8 4-5.8 8.3 0 5.1 2.1 8.2 5.7 8.2 3.8 0 5.8-3.1 5.8-8.3 0-4.1-1.4-8.2-5.7-8.2zM837.7 19.5v20.9h-6.6V19.5h-3.9v-5h3.9l-.1-2.8c0-4.9 2.5-7.4 6.9-7.4 2 0 3.8.5 5.1 1.3v4.7c-.7-1-1.8-1.4-2.9-1.4-1.9 0-2.4 1.4-2.4 3.2v2.4h5.5v5h-5.5zM885.7 15.5c-1.3-3.3-4-5.6-7.7-5.6-5.8 0-9.2 5.2-9.2 12.6 0 7 3 12.6 9.2 12.6 3.4 0 5.8-1.8 7.2-4.5l5.9 3.7c-2.7 4.1-7.1 6.8-13.2 6.8-11.3 0-16.4-9-16.4-18.6 0-10.6 6-18.7 16.5-18.7 7.3 0 12.1 3.8 14.5 9.2l-6.8 2.5zM901.4 11.6c-2.1 0-3.8-1.7-3.8-3.8 0-2.1 1.7-3.8 3.8-3.8 2.1 0 3.7 1.7 3.7 3.8.1 2.1-1.6 3.8-3.7 3.8zM898 40.3V14.4h6.8v25.9H898zM921.6 19.5v13.1c0 1.9.5 2.7 2.2 2.7.9 0 2.2-.5 3.2-1v5.3c-1.5.8-4 1.3-5.8 1.3-5 0-6.4-3-6.4-7.4v-14H911v-5h3.9V4.7h6.7v9.7h5.5v5h-5.5zM936.7 11.6c-2.1 0-3.8-1.7-3.8-3.8 0-2.1 1.7-3.8 3.8-3.8 2.1 0 3.7 1.7 3.7 3.8.1 2.1-1.6 3.8-3.7 3.8zm-3.4 28.7V14.4h6.8v25.9h-6.8zM970.6 28.4c0 .2-.1.3-.1.6h-17.3c.2 3.6 1.9 6.7 5.9 6.7 2.5 0 4.5-.9 6.6-3.2l4.3 3.3c-2.6 3.2-6.2 5.2-11.2 5.2-7.6 0-12.3-5.6-12.3-13.7 0-8.6 5.3-13.6 12.1-13.6 8.4 0 12 6.4 12 14.1.1.3.1.5 0 .6zm-11.9-9.6c-3.1 0-4.9 2.3-5.4 5.7H964c-.3-3.2-1.8-5.7-5.3-5.7zM985.1 41c-4.8 0-7.7-1.7-10.4-4.2l3.4-4.2c2.1 2.1 4.1 3.1 7 3.1 2.6 0 4.2-1.1 4.2-2.7 0-1.7-1.3-2.2-5.4-3.5-4.2-1.3-8.8-2.5-8.8-8.1 0-5.7 5.1-7.7 9.9-7.7 4 0 7 .8 10.1 3.4l-3.4 4.3c-2.3-1.8-4.2-2.7-6.8-2.7-1.7 0-3.6.6-3.6 2.3 0 1.5 1.2 2 4.5 3 7.4 2.3 9.7 4.4 9.7 8.8 0 5.1-4 8.2-10.4 8.2z"/></svg>